<?xml version="1.0" encoding="UTF-8"?>
<svg id="Redraw" xmlns="http://www.w3.org/2000/svg" viewBox="0 0 1800 1800">
  <defs>
    <style>
      .outline {
        stroke: #231f20;
        fill: none;
      }
      .greens {
        fill: #99cc67;
      }
      .lots {
        fill: #4167b0;
      }
      .lots:hover,
      .greens:hover {
        cursor: pointer;
        fill: #4a8923;
      }
      .lots:active,
      .greens:active {
        cursor: pointer;
        fill: #7ed747;
      }
    </style>
  </defs>
  <polygon id="Mz-13" class="greens" points="633.0642 1703.4862 771.0711 1586.5413 514.2408 1629.0023 633.0642 1703.4862"/>
  <polyline id="Mz-12" class="greens" points="1487.3093 980.5017 969.7491 1126.1816 1039.1092 1372.9016 1335.5095 1144.3018 1515.6293 1023.9419 1487.3093 980.5017"/>
  <g id="mz">
    <g id="Mz-11">
      <polygon id="Lt-1_Mz-11" class="lots" points="952.9172 1341.8057 962.7628 1401.4736 998.4017 1395.5818 981.8992 1337.0117 952.9172 1341.8057"/>
      <polygon id="Lt-2_Mz-11" class="lots" points="930.5462 1345.5077 940.439 1405.1659 962.7628 1401.4736 952.9172 1341.8057 930.5462 1345.5077"/>
      <polygon id="Lt-3_Mz-11" class="lots" points="908.1628 1349.2121 917.9977 1408.8773 940.439 1405.1659 930.5462 1345.5077 908.1628 1349.2121"/>
      <polygon id="Lt-4_Mz-11" class="lots" points="885.7865 1352.9183 895.6731 1412.5711 917.9977 1408.8773 908.1628 1349.2121 885.7865 1352.9183"/>
      <polygon id="Lt-5_Mz-11" class="lots" points="863.4054 1356.6186 873.2505 1416.2931 895.6731 1412.5711 885.7865 1352.9183 863.4054 1356.6186"/>
      <polygon id="Lt-6_Mz-11" class="lots" points="841.0242 1360.3186 850.9259 1419.9709 873.2505 1416.2931 863.4054 1356.6186 841.0242 1360.3186"/>
      <polygon id="Lt-7_Mz-11" class="lots" points="818.6427 1364.0247 828.4849 1423.6818 850.9259 1419.9709 841.0242 1360.3186 818.6427 1364.0247"/>
      <rect id="Lt-8_Mz-11" class="lots" x="801.0914" y="1365.4699" width="22.6242" height="60.4607" transform="translate(-216.2078 150.7354) rotate(-9.3614)"/>
      <rect id="Lt-9_Mz-11" class="lots" x="778.6502" y="1369.1732" width="22.7453" height="60.4587" transform="translate(-217.0366 147.0868) rotate(-9.3582)"/>
      <polygon id="Lt-10_Mz-11" class="lots" points="751.5731 1375.1243 761.4153 1434.7652 783.7181 1431.0852 773.8871 1371.4304 751.5731 1375.1243"/>
      <polygon id="Lt-11_Mz-11" class="lots" points="729.1883 1378.8334 739.0848 1438.4721 761.4153 1434.7652 751.5731 1375.1243 729.1883 1378.8334"/>
      <polygon id="Lt-12_Mz-11" class="lots" points="706.8073 1382.5327 716.6418 1442.1417 739.0848 1438.4721 729.1883 1378.8334 706.8073 1382.5327"/>
      <polygon id="Lt-13_Mz-11" class="lots" points="684.4261 1386.2317 694.3229 1445.8711 716.6418 1442.1417 706.8073 1382.5327 684.4261 1386.2317"/>
      <polygon id="Lt-14_Mz-11" class="lots" points="662.0504 1389.9359 671.8816 1449.5818 694.3229 1445.8711 684.4261 1386.2317 662.0504 1389.9359"/>
      <polygon id="Lt-15_Mz-11" class="lots" points="652.1964 1330.1807 662.0504 1389.9359 684.4261 1386.2317 674.5121 1326.4971 652.1964 1330.1807"/>
      <polygon id="Lt-16_Mz-11" class="lots" points="674.5121 1326.4971 684.4261 1386.2317 706.8073 1382.5327 696.9496 1322.7904 674.5121 1326.4971"/>
      <polygon id="Lt-17_Mz-11" class="lots" points="696.9496 1322.7904 706.8073 1382.5327 729.1883 1378.8334 719.2762 1319.103 696.9496 1322.7904"/>
      <polygon id="Lt-18_Mz-11" class="lots" points="719.2762 1319.103 729.1883 1378.8334 751.5731 1375.1243 741.7154 1315.3948 719.2762 1319.103"/>
      <polygon id="Lt-19_Mz-11" class="lots" points="741.7154 1315.3948 751.5731 1375.1243 773.8871 1371.4304 764.0307 1311.709 741.7154 1315.3948"/>
      <polygon id="Lt-20_Mz-11" class="lots" points="764.0307 1311.709 773.8871 1371.4304 796.3261 1367.7208 786.4862 1308.0049 764.0307 1311.709"/>
      <polygon id="Lt-21_Mz-11" class="lots" points="786.4862 1308.0049 796.3261 1367.7208 818.6427 1364.0247 808.7905 1304.32 786.4862 1308.0049"/>
      <polygon id="Lt-22_Mz-11" class="lots" points="808.7905 1304.32 818.6427 1364.0247 841.0242 1360.3186 831.1175 1300.6373 808.7905 1304.32"/>
      <polygon id="Lt-23_Mz-11" class="lots" points="831.1175 1300.6373 841.0242 1360.3186 863.4054 1356.6186 853.56 1296.9294 831.1175 1300.6373"/>
      <polygon id="Lt-24_Mz-11" class="lots" points="853.56 1296.9294 863.4054 1356.6186 885.7865 1352.9183 875.8838 1293.2447 853.56 1296.9294"/>
      <polygon id="Lt-25_Mz-11" class="lots" points="875.8838 1293.2447 885.7865 1352.9183 908.1628 1349.2121 898.3259 1289.5385 875.8838 1293.2447"/>
      <polygon id="Lt-26_Mz-11" class="lots" points="898.3259 1289.5385 908.1628 1349.2121 930.5462 1345.5077 920.6534 1285.8497 898.3259 1289.5385"/>
      <polygon id="Lt-27_Mz-11" class="lots" points="920.6534 1285.8497 930.5462 1345.5077 952.9172 1341.8057 943.0743 1282.1469 920.6534 1285.8497"/>
      <polygon id="Lt-28_Mz-11" class="lots" points="943.0743 1282.1469 952.9172 1341.8057 981.8992 1337.0117 965.4019 1278.4618 943.0743 1282.1469"/>
    </g>
    <g id="Mz-10">
      <polygon id="Lt-1_Mz-10" class="lots" points="1399.3763 895.4874 1415.8013 953.6338 1461.4014 940.7939 1426.8412 887.7537 1399.3763 895.4874"/>
      <polygon id="Lt-2_Mz-10" class="lots" points="1377.5986 901.6198 1393.961 959.7538 1415.8013 953.6338 1399.3763 895.4874 1377.5986 901.6198"/>
      <polygon id="Lt-3_Mz-10" class="lots" points="1355.7519 907.778 1372.1212 965.9936 1393.961 959.7538 1377.5986 901.6198 1355.7519 907.778"/>
      <polygon id="Lt-4_Mz-10" class="lots" points="1333.9034 913.9275 1350.2814 972.1137 1372.1212 965.9936 1355.7519 907.778 1333.9034 913.9275"/>
      <polygon id="Lt-5_Mz-10" class="lots" points="1312.0715 920.0773 1328.4411 978.2337 1350.2814 972.1137 1333.9034 913.9275 1312.0715 920.0773"/>
      <polygon id="Lt-6_Mz-10" class="lots" points="1290.2858 926.2053 1306.7211 984.3538 1328.4411 978.2337 1312.0715 920.0773 1290.2858 926.2053"/>
      <polygon id="Lt-7_Mz-10" class="lots" points="1268.4659 932.3544 1284.8812 990.4738 1306.7211 984.3538 1290.2858 926.2053 1268.4659 932.3544"/>
      <polygon id="Lt-8_Mz-10" class="lots" points="1246.6794 938.4897 1263.041 996.7137 1284.8812 990.4738 1268.4659 932.3544 1246.6794 938.4897"/>
      <polygon id="Lt-9_Mz-10" class="lots" points="1224.8269 944.6446 1241.2012 1002.8337 1263.041 996.7137 1246.6794 938.4897 1224.8269 944.6446"/>
      <polygon id="Lt-10_Mz-10" class="lots" points="1202.9975 950.7839 1219.3613 1008.9538 1241.2012 1002.8337 1224.8269 944.6446 1202.9975 950.7839"/>
      <polygon id="Lt-11_Mz-10" class="lots" points="1181.1954 956.921 1197.5211 1015.0738 1219.3613 1008.9538 1202.9975 950.7839 1181.1954 956.921"/>
      <polygon id="Lt-12_Mz-10" class="lots" points="1159.3313 963.0893 1175.6813 1021.1939 1197.5211 1015.0738 1181.1954 956.921 1159.3313 963.0893"/>
      <polygon id="Lt-13_Mz-10" class="lots" points="1137.4613 969.2377 1153.8411 1027.4337 1175.6813 1021.1939 1159.3313 963.0893 1137.4613 969.2377"/>
      <polygon id="Lt-14_Mz-10" class="lots" points="1115.6301 975.3952 1132.0012 1033.5538 1153.8411 1027.4337 1137.4613 969.2377 1115.6301 975.3952"/>
      <polygon id="Lt-15_Mz-10" class="lots" points="1093.8048 981.5421 1110.1614 1039.6739 1132.0012 1033.5538 1115.6301 975.3952 1093.8048 981.5421"/>
      <polygon id="Lt-16_Mz-10" class="lots" points="1072.0249 987.6814 1088.441 1045.7939 1110.1614 1039.6739 1093.8048 981.5421 1072.0249 987.6814"/>
      <polygon id="Lt-17_Mz-10" class="lots" points="1050.233 993.8126 1066.6012 1052.0337 1088.441 1045.7939 1072.0249 987.6814 1050.233 993.8126"/>
      <polygon id="Lt-18_Mz-10" class="lots" points="1028.3833 999.9676 1044.761 1058.1538 1066.6012 1052.0337 1050.233 993.8126 1028.3833 999.9676"/>
      <polygon id="Lt-19_Mz-10" class="lots" points="1006.5525 1006.1145 1022.9211 1064.2738 1044.761 1058.1538 1028.3833 999.9676 1006.5525 1006.1145"/>
      <polygon id="Lt-20_Mz-10" class="lots" points="984.7229 1012.2617 1001.0812 1070.3939 1022.9211 1064.2738 1006.5525 1006.1145 984.7229 1012.2617"/>
      <polygon id="Lt-21_Mz-10" class="lots" points="962.8888 1018.4127 979.241 1076.5136 1001.0812 1070.3939 984.7229 1012.2617 962.8888 1018.4127"/>
      <polygon id="Lt-22_Mz-10" class="lots" points="941.0443 1024.5632 957.4012 1082.7538 979.241 1076.5136 962.8888 1018.4127 941.0443 1024.5632"/>
      <polygon id="Lt-23_Mz-10" class="lots" points="924.6412 966.234 941.0443 1024.5632 962.8888 1018.4127 946.4731 960.0878 924.6412 966.234"/>
      <rect id="Lt-24_Mz-10" class="lots" x="954.2562" y="955.8804" width="22.6839" height="60.5898" transform="translate(-231.0677 298.4892) rotate(-15.7194)"/>
      <rect id="Lt-25_Mz-10" class="lots" x="976.0911" y="949.7345" width="22.6791" height="60.5865" transform="translate(-228.5851 304.1732) rotate(-15.7194)"/>
      <rect id="Lt-26_Mz-10" class="lots" x="997.9216" y="943.5897" width="22.6816" height="60.5838" transform="translate(-226.0953 309.8429) rotate(-15.7187)"/>
      <polygon id="Lt-27_Mz-10" class="lots" points="1011.9741 941.6488 1028.3833 999.9676 1050.233 993.8126 1033.8372 935.4954 1011.9741 941.6488"/>
      <polygon id="Lt-28_Mz-10" class="lots" points="1033.8372 935.4954 1050.233 993.8126 1072.0249 987.6814 1055.5591 929.3783 1033.8372 935.4954"/>
      <polygon id="Lt-29_Mz-10" class="lots" points="1055.5591 929.3783 1072.0249 987.6814 1093.8048 981.5421 1077.396 923.231 1055.5591 929.3783"/>
      <polygon id="Lt-30_Mz-10" class="lots" points="1077.396 923.231 1093.8048 981.5421 1115.6301 975.3952 1099.2424 917.0815 1077.396 923.231"/>
      <polygon id="Lt-31_Mz-10" class="lots" points="1099.2424 917.0815 1115.6301 975.3952 1137.4613 969.2377 1121.0558 910.9382 1099.2424 917.0815"/>
      <rect id="Lt-32_Mz-10" class="lots" x="1128.8348" y="906.7335" width="22.715" height="60.5625" transform="translate(-211.1903 343.8873) rotate(-15.7166)"/>
      <polygon id="Lt-33_Mz-10" class="lots" points="1142.921 904.7938 1159.3313 963.0893 1181.1954 956.921 1164.7557 898.6444 1142.921 904.7938"/>
      <polygon id="Lt-34_Mz-10" class="lots" points="1164.7557 898.6444 1181.1954 956.921 1202.9975 950.7839 1186.5876 892.4946 1164.7557 898.6444"/>
      <rect id="Lt-35_Mz-10" class="lots" x="1194.3687" y="888.2888" width="22.6757" height="60.5586" transform="translate(-203.8085 361.1069) rotate(-15.7233)"/>
      <polygon id="Lt-36_Mz-10" class="lots" points="1208.4141 886.3491 1224.8269 944.6446 1246.6794 938.4897 1230.2811 880.1939 1208.4141 886.3491"/>
      <polygon id="Lt-37_Mz-10" class="lots" points="1230.2811 880.1939 1246.6794 938.4897 1268.4659 932.3544 1252.0011 874.0738 1230.2811 880.1939"/>
      <polygon id="Lt-38_Mz-10" class="lots" points="1252.0011 874.0738 1268.4659 932.3544 1290.2858 926.2053 1273.8413 867.9538 1252.0011 874.0738"/>
      <polygon id="Lt-39_Mz-10" class="lots" points="1273.8413 867.9538 1290.2858 926.2053 1312.0715 920.0773 1295.6811 861.8337 1273.8413 867.9538"/>
      <polygon id="Lt-40_Mz-10" class="lots" points="1295.6811 861.8337 1312.0715 920.0773 1333.9034 913.9275 1317.5004 855.6432 1295.6811 861.8337"/>
      <polygon id="Lt-41_Mz-10" class="lots" points="1317.5004 855.6432 1333.9034 913.9275 1355.7519 907.778 1339.3612 849.4738 1317.5004 855.6432"/>
      <polygon id="Lt-42_Mz-10" class="lots" points="1339.3612 849.4738 1355.7519 907.778 1377.5986 901.6198 1361.201 843.3537 1339.3612 849.4738"/>
      <polygon id="Lt-43_Mz-10" class="lots" points="1361.201 843.3537 1377.5986 901.6198 1399.3612 895.4337 1426.8412 887.7537 1392.2812 834.5937 1361.201 843.3537"/>
    </g>
    <g id="Mz-9">
      <polygon id="Lt-1_Mz-9" class="lots" points="985.7255 655.5669 1015.4958 744.306 1094.6791 722.0184 1037.046 709.8945 1115.0963 612.1703 985.7255 655.5669"/>
      <polygon id="Lt-2_Mz-9" class="lots" points="964.2492 662.7723 993.6634 750.4437 1015.4958 744.306 985.7255 655.5669 964.2492 662.7723"/>
      <polygon id="Lt-3_Mz-9" class="lots" points="942.7544 669.9819 971.7941 756.5982 993.6634 750.4437 964.2492 662.7723 942.7544 669.9819"/>
      <polygon id="Lt-4_Mz-9" class="lots" points="921.2208 677.206 949.9614 762.7407 971.7941 756.5982 942.7544 669.9819 921.2208 677.206"/>
      <polygon id="Lt-5_Mz-9" class="lots" points="899.7445 684.4093 928.1307 768.8833 949.9614 762.7407 921.2208 677.206 899.7445 684.4093"/>
      <polygon id="Lt-6_Mz-9" class="lots" points="878.2497 691.6197 906.2613 775.0387 928.1307 768.8833 899.7445 684.4093 878.2497 691.6197"/>
      <polygon id="Lt-7_Mz-9" class="lots" points="856.7718 698.8264 884.4292 781.1816 906.2613 775.0387 878.2497 691.6197 856.7718 698.8264"/>
      <polygon id="Lt-8_Mz-9" class="lots" points="1131.2777 519.1292 1148.5276 570.2569 1210.4609 492.5872 1131.2777 519.1292"/>
      <polygon id="Lt-9_Mz-9" class="lots" points="1109.7976 526.328 1131.6421 591.4495 1148.5276 570.2569 1131.2777 519.1292 1109.7976 526.328"/>
      <polygon id="Lt-10_Mz-9" class="lots" points="1088.3185 533.5299 1115.0963 612.1703 1131.6421 591.4495 1109.7976 526.328 1088.3185 533.5299"/>
      <polygon id="Lt-11_Mz-9" class="lots" points="1066.8386 540.7296 1093.2184 619.5091 1115.0963 612.1703 1088.3185 533.5299 1066.8386 540.7296"/>
      <polygon id="Lt-12_Mz-9" class="lots" points="1045.2489 547.962 1071.7399 626.714 1093.2184 619.5091 1066.8386 540.7296 1045.2489 547.962"/>
      <rect id="Lt-13_Mz-9" class="lots" x="1036.4275" y="549.3957" width="22.6549" height="83.0888" transform="translate(-133.7314 364.9079) rotate(-18.5928)"/>
      <polygon id="Lt-14_Mz-9" class="lots" points="1002.2874 562.3607 1028.7831 641.1235 1050.2616 633.9187 1023.7694 555.1659 1002.2874 562.3607"/>
      <rect id="Lt-15_Mz-9" class="lots" x="993.4692" y="563.796" width="22.6544" height="83.0984" transform="translate(-140.5651 351.9567) rotate(-18.5925)"/>
      <polygon id="Lt-16_Mz-9" class="lots" points="959.2947 576.7801 985.7255 655.5669 1007.3046 648.3283 980.8105 569.5683 959.2947 576.7801"/>
      <rect id="Lt-17_Mz-9" class="lots" x="950.4446" y="578.2232" width="22.6534" height="83.1042" transform="translate(-147.1834 338.0931) rotate(-18.546)"/>
      <polygon id="Lt-18_Mz-9" class="lots" points="916.3348 591.1817 942.7544 669.9819 964.2492 662.7723 937.8158 583.9818 916.3348 591.1817"/>
      <polygon id="Lt-19_Mz-9" class="lots" points="894.7492 598.4216 921.2208 677.206 942.7544 669.9819 916.3348 591.1817 894.7492 598.4216"/>
      <rect id="Lt-20_Mz-9" class="lots" x="885.9193" y="599.8572" width="22.6532" height="83.1149" transform="translate(-157.5741 319.2071) rotate(-18.5739)"/>
      <polygon id="Lt-21_Mz-9" class="lots" points="851.7893 612.8219 878.2497 691.6197 899.7445 684.4093 873.2694 605.6215 851.7893 612.8219"/>
      <rect id="Lt-22_Mz-9" class="lots" x="842.9527" y="614.2597" width="22.6547" height="83.1255" transform="translate(-164.3291 306.0613) rotate(-18.5621)"/>
    </g>
    <g id="Mz-8">
      <polygon id="Lt-1_Mz-8" class="lots" points="1197.911 385.0105 1217.2281 442.5387 1262.6102 427.3304 1280.3968 405.0127 1265.9762 362.1579 1197.911 385.0105"/>
      <polygon id="Lt-2_Mz-8" class="lots" points="1176.4348 392.2208 1195.7484 449.7414 1217.2281 442.5387 1197.911 385.0105 1176.4348 392.2208"/>
      <polygon id="Lt-3_Mz-8" class="lots" points="1154.954 399.4392 1174.2684 456.9382 1195.7484 449.7414 1176.4348 392.2208 1154.954 399.4392"/>
      <polygon id="Lt-4_Mz-8" class="lots" points="1133.422 406.6612 1152.6831 464.1834 1174.2684 456.9382 1154.954 399.4392 1133.422 406.6612"/>
      <polygon id="Lt-5_Mz-8" class="lots" points="1111.9363 413.8857 1131.2007 471.3745 1152.6831 464.1834 1133.422 406.6612 1111.9363 413.8857"/>
      <polygon id="Lt-6_Mz-8" class="lots" points="1090.4036 421.1078 1109.7214 478.5758 1131.2007 471.3745 1111.9363 413.8857 1090.4036 421.1078"/>
      <polygon id="Lt-7_Mz-8" class="lots" points="1068.9292 428.3197 1088.2425 485.7736 1109.7214 478.5758 1090.4036 421.1078 1068.9292 428.3197"/>
      <polygon id="Lt-8_Mz-8" class="lots" points="1047.4291 435.5319 1066.7246 492.9886 1088.2425 485.7736 1068.9292 428.3197 1047.4291 435.5319"/>
      <polygon id="Lt-9_Mz-8" class="lots" points="1025.957 442.7469 1045.2453 500.1899 1066.7246 492.9886 1047.4291 435.5319 1025.957 442.7469"/>
      <polygon id="Lt-10_Mz-8" class="lots" points="1004.4281 449.9777 1023.657 507.4264 1045.2453 500.1899 1025.957 442.7469 1004.4281 449.9777"/>
      <polygon id="Lt-11_Mz-8" class="lots" points="982.9507 457.1873 1002.1758 514.6251 1023.657 507.4264 1004.4281 449.9777 982.9507 457.1873"/>
      <polygon id="Lt-12_Mz-8" class="lots" points="961.4033 464.4223 980.6973 521.826 1002.1758 514.6251 982.9507 457.1873 961.4033 464.4223"/>
      <polygon id="Lt-13_Mz-8" class="lots" points="939.9244 471.6355 959.2179 529.0261 980.6973 521.826 961.4033 464.4223 939.9244 471.6355"/>
      <rect id="Lt-14_Mz-8" class="lots" x="927.5056" y="473.6597" width="22.6533" height="60.5447" transform="translate(-111.6254 325.3482) rotate(-18.577)"/>
      <polygon id="Lt-15_Mz-8" class="lots" points="875.4786 493.2696 894.7407 550.6384 916.2579 543.4287 896.9745 486.0543 875.4786 493.2696"/>
      <polygon id="Lt-16_Mz-8" class="lots" points="896.9745 486.0543 916.2579 543.4287 937.7372 536.2274 918.4496 478.8393 896.9745 486.0543"/>
      <polygon id="Lt-17_Mz-8" class="lots" points="873.1523 557.8726 894.7407 550.6384 875.4786 493.2696 853.9493 500.5019 873.1523 557.8726"/>
      <polygon id="Lt-18_Mz-8" class="lots" points="808.6907 555.5865 815.9094 577.0616 873.1523 557.8726 865.9573 536.3768 808.6907 555.5865"/>
      <polygon id="Lt-19_Mz-8" class="lots" points="801.4579 534.0774 808.6907 555.5865 865.9579 536.3767 858.7306 514.7867 801.4579 534.0774"/>
      <polygon id="Lt-20_Mz-8" class="lots" points="851.5398 493.3037 794.2411 512.603 801.4579 534.0774 858.7306 514.7867 851.5398 493.3037"/>
      <polygon id="Lt-21_Mz-8" class="lots" points="844.3493 471.8219 786.9894 491.0218 794.2411 512.603 851.5398 493.3037 844.3493 471.8219"/>
      <polygon id="Lt-22_Mz-8" class="lots" points="777.3892 462.4616 786.9894 491.0218 844.3494 471.8217 834.7493 443.1416 777.3892 462.4616"/>
      <polygon id="Lt-23_Mz-8" class="lots" points="834.7493 443.1416 844.3494 471.8217 844.3493 471.8219 844.3494 471.8217 849.5759 487.4365 851.7659 493.9788 853.9499 500.5018 875.4786 493.2696 856.2293 435.9417 834.7493 443.1416"/>
      <polygon id="Lt-24_Mz-8" class="lots" points="856.2293 435.9417 875.4786 493.2696 896.9745 486.0543 877.7093 428.7417 856.2293 435.9417"/>
      <polygon id="Lt-25_Mz-8" class="lots" points="877.7093 428.7417 896.9745 486.0543 918.4496 478.8393 899.1894 421.5418 877.7093 428.7417"/>
      <rect id="Lt-26_Mz-8" class="lots" x="908.2318" y="416.3669" width="22.6528" height="60.4454" transform="translate(-94.368 316.2703) rotate(-18.5798)"/>
      <polygon id="Lt-27_Mz-8" class="lots" points="920.6694 414.3416 939.9244 471.6355 961.4033 464.4223 942.1495 407.1416 920.6694 414.3416"/>
      <polygon id="Lt-28_Mz-8" class="lots" points="942.1495 407.1416 961.4033 464.4223 982.9507 457.1873 963.7492 399.8216 942.1495 407.1416"/>
      <polygon id="Lt-29_Mz-8" class="lots" points="963.7492 399.8216 982.9507 457.1873 1004.4281 449.9777 985.2292 392.6215 963.7492 399.8216"/>
      <polygon id="Lt-30_Mz-8" class="lots" points="985.2292 392.6215 1004.4281 449.9777 1025.957 442.7469 1006.7093 385.4217 985.2292 392.6215"/>
      <polygon id="Lt-31_Mz-8" class="lots" points="1006.7093 385.4217 1025.957 442.7469 1047.4291 435.5319 1028.1893 378.2215 1006.7093 385.4217"/>
      <polygon id="Lt-32_Mz-8" class="lots" points="1028.1893 378.2215 1047.4291 435.5319 1068.9292 428.3197 1049.6693 371.0218 1028.1893 378.2215"/>
      <polygon id="Lt-33_Mz-8" class="lots" points="1049.6693 371.0218 1068.9292 428.3197 1090.4036 421.1078 1071.1494 363.8216 1049.6693 371.0218"/>
      <polygon id="Lt-34_Mz-8" class="lots" points="1071.1494 363.8216 1090.4036 421.1078 1111.9363 413.8857 1092.7491 356.6218 1071.1494 363.8216"/>
      <polygon id="Lt-35_Mz-8" class="lots" points="1092.7491 356.6218 1111.9363 413.8857 1133.422 406.6612 1114.2291 349.3016 1092.7491 356.6218"/>
      <polygon id="Lt-36_Mz-8" class="lots" points="1114.2291 349.3016 1133.422 406.6612 1154.954 399.4392 1135.7092 342.1019 1114.2291 349.3016"/>
      <polygon id="Lt-37_Mz-8" class="lots" points="1135.7092 342.1019 1154.954 399.4392 1176.4348 392.2208 1157.1892 334.9017 1135.7092 342.1019"/>
      <polygon id="Lt-38_Mz-8" class="lots" points="1157.1892 334.9017 1176.4348 392.2208 1197.911 385.0105 1178.7219 327.8617 1157.1892 334.9017"/>
      <polygon id="Lt-39_Mz-8" class="lots" points="1178.7219 327.8617 1197.911 385.0105 1219.4415 377.7817 1200.202 320.6574 1178.7219 327.8617"/>
      <polygon id="Lt-40_Mz-8" class="lots" points="1200.202 320.6574 1219.4418 377.7826 1240.9184 370.5709 1221.6802 313.4565 1200.202 320.6574"/>
      <polygon id="Lt-41_Mz-8" class="lots" points="1221.6802 313.4565 1240.9184 370.5709 1265.9775 362.1574 1246.7571 305.0432 1221.6802 313.4565"/>
      <polygon id="Lt-42_Mz-8" class="lots" points="1246.7571 305.0432 1265.9775 362.1574 1280.3968 405.0127 1299.9885 380.5008 1271.8695 296.6251 1246.7571 305.0432"/>
      <polygon id="Lt-43_Mz-8" class="lots" points="1271.8695 296.6251 1299.9885 380.5008 1319.6548 355.8553 1296.9446 288.2076 1271.8695 296.6251"/>
      <polygon id="Lt-44_Mz-8" class="lots" points="1296.9446 288.2076 1319.6548 355.8553 1339.3234 331.2237 1322.0229 279.8046 1296.9446 288.2076"/>
      <polygon id="Lt-45_Mz-8" class="lots" points="1322.0229 279.8046 1339.3234 331.2237 1401.6902 253.0904 1322.0229 279.8046"/>
    </g>
    <g id="Mz-7">
      <polygon id="Lt-1_Mz-7" class="lots" points="1284.6695 211.3051 1294.7484 241.1855 1398.9025 206.2252 1397.3765 202.2735 1284.6695 211.3051"/>
      <polygon id="Lt-2_Mz-7" class="lots" points="1240.0026 214.8847 1253.4531 255.0471 1294.7484 241.1855 1284.6695 211.3051 1240.0026 214.8847"/>
      <polygon id="Lt-3_Mz-7" class="lots" points="1205.1139 217.6805 1221.2889 265.8431 1253.4531 255.0471 1240.0026 214.8847 1205.1139 217.6805"/>
      <polygon id="Lt-4_Mz-7" class="lots" points="1174.4921 220.1345 1193.0926 275.3073 1221.2889 265.8431 1205.1139 217.6805 1174.4921 220.1345"/>
      <polygon id="Lt-5_Mz-7" class="lots" points="1151.2336 221.9983 1171.6067 282.5196 1193.0926 275.3073 1174.4921 220.1345 1151.2336 221.9983"/>
      <polygon id="Lt-6_Mz-7" class="lots" points="1127.9348 223.8651 1150.0558 289.7534 1171.6067 282.5196 1151.2336 221.9983 1127.9348 223.8651"/>
      <polygon id="Lt-7_Mz-7" class="lots" points="1104.676 225.7292 1128.5443 296.9738 1150.0558 289.7534 1127.9348 223.8651 1104.676 225.7292"/>
      <polygon id="Lt-8_Mz-7" class="lots" points="1107.0681 304.1825 1128.5443 296.9738 1104.676 225.7292 1081.3783 227.5962 1107.0681 304.1825"/>
      <polygon id="Lt-9_Mz-7" class="lots" points="1066.2759 253.7756 1085.592 311.3912 1107.0681 304.1825 1087.7345 246.5451 1066.2759 253.7756"/>
      <polygon id="Lt-10_Mz-7" class="lots" points="1044.6721 261.0117 1064.1088 318.6023 1085.592 311.3912 1066.2759 253.7756 1044.6721 261.0117"/>
      <polygon id="Lt-11_Mz-7" class="lots" points="1023.2018 268.244 1042.6052 325.8204 1064.1088 318.6023 1044.6721 261.0117 1023.2018 268.244"/>
      <polygon id="Lt-12_Mz-7" class="lots" points="1001.7366 275.4538 1020.9893 332.8617 1042.6052 325.8204 1023.2018 268.244 1001.7366 275.4538"/>
      <polygon id="Lt-13_Mz-7" class="lots" points="979.7611 282.8389 999.4563 340.3036 1020.9893 332.8617 1001.7366 275.4538 979.7611 282.8389"/>
      <polygon id="Lt-14_Mz-7" class="lots" points="958.7764 289.874 978.0464 347.4405 999.4563 340.3036 980.2565 282.6738 958.7764 289.874"/>
      <polygon id="Lt-15_Mz-7" class="lots" points="937.2291 297.1018 956.5288 354.7182 977.9791 347.4687 958.7092 289.9022 937.2291 297.1018"/>
      <polygon id="Lt-16_Mz-7" class="lots" points="915.8367 304.3336 935.0944 361.9073 956.596 354.69 937.2964 297.0736 915.8367 304.3336"/>
      <polygon id="Lt-17_Mz-7" class="lots" points="894.2164 311.5936 913.6429 369.1078 935.0944 361.9073 915.8367 304.3336 894.2164 311.5936"/>
      <polygon id="Lt-18_Mz-7" class="lots" points="872.7367 318.7937 892.1617 376.3181 913.6429 369.1078 894.2164 311.5936 872.7367 318.7937"/>
      <polygon id="Lt-19_Mz-7" class="lots" points="851.2355 325.9233 870.5364 383.5769 892.1617 376.3181 872.7367 318.7937 851.2355 325.9233"/>
      <polygon id="Lt-20_Mz-7" class="lots" points="829.8036 333.1947 849.048 390.7894 870.5364 383.5769 851.2355 325.9233 829.8036 333.1947"/>
      <polygon id="Lt-21_Mz-7" class="lots" points="808.2405 340.4386 827.5582 398.0029 849.048 390.7894 829.8036 333.1947 808.2405 340.4386"/>
      <polygon id="Lt-22_Mz-7" class="lots" points="786.758 347.6363 806.1258 405.1971 827.5582 398.0029 808.2405 340.4386 786.758 347.6363"/>
      <polygon id="Lt-23_Mz-7" class="lots" points="765.2866 354.8681 784.6337 412.4109 806.1258 405.1971 786.758 347.6363 765.2866 354.8681"/>
      <polygon id="Lt-24_Mz-7" class="lots" points="743.6163 362.148 763.0337 419.5859 784.6337 412.4109 765.2866 354.8681 743.6163 362.148"/>
      <polygon id="Lt-25_Mz-7" class="lots" points="724.4164 305.3537 743.6163 362.148 765.2866 354.8681 746.1827 298.0479 724.4164 305.3537"/>
      <polygon id="Lt-26_Mz-7" class="lots" points="746.1827 298.0479 765.2866 354.8681 786.758 347.6363 767.66 290.8393 746.1827 298.0479"/>
      <polygon id="Lt-27_Mz-7" class="lots" points="767.66 290.8393 786.758 347.6363 808.2405 340.4386 789.173 283.6185 767.66 290.8393"/>
      <polygon id="Lt-28_Mz-7" class="lots" points="789.173 283.6185 808.2405 340.4386 829.8036 333.1947 810.7869 276.364 789.173 283.6185"/>
      <polygon id="Lt-29_Mz-7" class="lots" points="810.7869 276.364 829.8036 333.1947 851.2355 325.9233 832.2236 269.1322 810.7869 276.364"/>
      <polygon id="Lt-30_Mz-7" class="lots" points="916.7879 240.7855 832.2236 269.1322 851.2355 325.9233 1087.7349 246.545 1081.3783 227.5962 916.7879 240.7855"/>
    </g>
    <g id="Mz-6">
      <polyline id="Lt-1_Mz-6" class="lots" points="700.7093 376.5418 700.7093 376.5418 700.7093 376.5418 679.2339 383.7511 698.4725 441.2294 719.9093 433.9018 700.7093 376.5418"/>
      <polyline id="Lt-2_Mz-6" class="lots" points="679.2339 383.7511 657.6972 390.9725 676.9493 448.3017 676.9493 448.3017 676.9493 448.3017 698.4725 441.2294 698.4725 441.2294 698.4725 441.2294 679.2339 383.7511"/>
      <polygon id="Lt-3_Mz-6" class="lots" points="657.6972 390.9725 636.2103 398.2079 655.4693 455.5017 676.9493 448.3017 657.6972 390.9725"/>
      <line id="Lt-4_Mz-6" class="lots" x1="635.9791" y1="464.3911" x2="635.9808" y2="464.3962"/>
      <rect id="Lt-4_Mz-6-2" data-name="Lt-4_Mz-6" class="lots" x="623.7703" y="400.2203" width="22.6579" height="60.4564" transform="translate(-104.0524 224.7988) rotate(-18.5802)"/>
      <polyline id="Lt-5_Mz-6" class="lots" points="614.7267 405.3986 593.9834 413.0494 593.9852 413.0549 593.9804 413.0566 613.2349 470.3814 634.0387 463.3866 614.7267 405.3986"/>
      <polyline id="Lt-6_Mz-6" class="lots" points="593.2016 413.3177 572.5021 420.2584 591.7748 477.5654 591.0697 477.8017 591.0705 477.8044 613.2367 470.3869 613.2349 470.3814 612.5666 470.6062 593.2016 413.3177"/>
      <polyline id="Lt-7_Mz-6" class="lots" points="571.8224 420.4864 550.9617 427.4879 570.1406 484.8183 591.0697 477.8017 571.8224 420.4864"/>
      <polyline id="Lt-8_Mz-6" class="lots" points="550.2695 427.7201 529.4903 434.6641 548.6702 492.0323 570.1451 484.8317 570.1406 484.8183 569.3507 485.0831 550.2695 427.7201"/>
      <polyline id="Lt-9_Mz-6" class="lots" points="528.7966 434.9088 507.9466 441.9229 527.1875 499.2386 548.672 492.0377 548.6702 492.0323 547.9717 492.2666 528.7966 434.9088"/>
      <polyline id="Lt-10_Mz-6" class="lots" points="507.2649 442.1541 486.4695 449.1331 505.713 506.4426 505.0297 506.6718 505.0301 506.6729 527.188 499.24 527.1875 499.2386 526.508 499.4663 507.2649 442.1541"/>
      <polyline id="Lt-11_Mz-6" class="lots" points="485.7841 449.362 464.9786 456.3541 484.2315 513.6467 483.5481 513.8759 483.5494 513.8796 505.0297 506.6718 485.7846 449.363 485.7845 449.363"/>
      <polyline id="Lt-12_Mz-6" class="lots" points="464.2822 456.5733 443.505 463.58 462.7547 520.8529 462.0713 521.0821 462.0715 521.0826 483.5481 513.8759 464.2939 456.5842 464.2867 456.5866 464.2822 456.5733"/>
      <polyline id="Lt-13_Mz-6" class="lots" points="442.8179 463.7962 422.0249 470.7727 441.2805 528.0561 462.0713 521.0821 442.8179 463.7962"/>
      <polyline id="Lt-14_Mz-6" class="lots" points="421.3179 470.987 400.4796 477.9589 419.6902 535.2984 441.2815 528.0592 441.2805 528.0561 440.5965 528.2856 421.3407 471.0022 421.3248 471.0075 421.3179 470.987"/>
      <polyline id="Lt-15_Mz-6" class="lots" points="399.8007 478.2182 378.9392 485.2216 398.1748 542.5138 397.4968 542.7412 397.4988 542.747 419.6914 535.302 419.6902 535.2984 419.0064 535.5277 399.8007 478.2182"/>
      <polyline id="Lt-16_Mz-6" class="lots" points="378.2121 484.7729 356.7893 491.9817 376.0153 549.9491 376.0153 549.9491 376.0153 549.9491 397.4968 542.7412 378.2121 484.7729"/>
      <polygon id="Lt-17_Mz-6" class="lots" points="333.1493 499.9018 323.7427 567.484 376.0153 549.9491 356.7893 491.9817 333.1493 499.9018"/>
      <polyline id="Lt-18_Mz-6" class="lots" points="359.349 427.2871 342.4156 433.0708 333.1493 499.9018 333.1493 499.9018 333.1493 499.9018 357.0669 491.8031 378.2121 484.7729 358.7825 427.4885 359.3524 427.2971 359.349 427.2871"/>
      <polyline id="Lt-19_Mz-6" class="lots" points="380.3732 420.2378 359.3524 427.2971 378.7427 484.529 399.5691 477.5398 380.3732 420.2378"/>
      <polyline id="Lt-20_Mz-6" class="lots" points="402.512 412.7756 380.3629 420.2069 380.3732 420.2378 381.0584 420.0077 400.2565 477.306 421.0922 470.3149 401.8487 413.0035 402.5139 412.7812 402.512 412.7756"/>
      <polyline id="Lt-21_Mz-6" class="lots" points="424.0311 405.5919 402.5139 412.7812 421.7716 470.0852 442.5843 463.1012 442.5835 463.0988 442.5873 463.0975 423.3277 405.8324 424.0324 405.5957 424.0311 405.5919"/>
      <polyline id="Lt-22_Mz-6" class="lots" points="444.8102 398.6175 424.0324 405.5957 443.2514 462.8747 464.0543 455.8951 444.8102 398.6175"/>
      <polyline id="Lt-23_Mz-6" class="lots" points="467.0119 391.1351 444.8044 398.6004 444.8102 398.6175 445.505 398.3841 464.7376 455.6641 485.5556 448.681 485.5548 448.6787 466.3301 391.3735 467.0148 391.1436 467.0119 391.1351"/>
      <polyline id="Lt-24_Mz-6" class="lots" points="487.7963 384.1676 467.0148 391.1436 486.2417 448.4481 507.0357 441.4675 487.7963 384.1676"/>
      <polyline id="Lt-25_Mz-6" class="lots" points="510.0477 376.681 487.7942 384.1615 487.7963 384.1676 488.489 383.935 507.7145 441.2396 507.7169 441.2389 528.5322 434.264 509.3826 376.9106 510.0497 376.687 510.0477 376.681"/>
      <polyline id="Lt-26_Mz-6" class="lots" points="530.856 369.7102 510.0497 376.687 529.222 433.8867 550.0454 427.0465 550.0417 427.0352 550.0433 427.0348 530.856 369.7102"/>
      <polyline id="Lt-27_Mz-6" class="lots" points="552.5073 362.4959 530.8532 369.7019 530.856 369.7102 531.5531 369.4765 550.7236 426.8066 571.7716 419.8178 552.5093 362.5017 552.5093 362.5017 552.5073 362.4959"/>
      <polyline id="Lt-28_Mz-6" class="lots" points="573.9893 355.3017 552.5093 362.5017 571.7716 419.8178 593.2512 412.6062 593.2502 412.6033 593.2502 412.6033 573.9893 355.3017"/>
      <polyline id="Lt-29_Mz-6" class="lots" points="595.4693 348.1017 573.9893 355.3017 573.9893 355.3017 573.9893 355.3017 593.2512 412.6062 614.7267 405.3986 614.7267 405.3986 614.7267 405.3986 595.4693 348.1017"/>
      <polyline id="Lt-30_Mz-6" class="lots" points="616.7831 340.8764 595.4693 348.1017 595.4693 348.1017 595.4693 348.1017 614.7267 405.3986 636.2116 398.192 616.7831 340.8764 616.7831 340.8764 616.7831 340.8764"/>
      <polygon id="Lt-31_Mz-6" class="lots" points="638.4293 333.5817 616.7831 340.8764 636.2032 398.1903 636.2103 398.188 636.2116 398.192 657.6952 390.9771 657.6972 390.9725 657.6972 390.9725 638.4293 333.5817"/>
      <polygon id="Lt-32_Mz-6" class="lots" points="638.4293 333.5817 657.6972 390.9725 679.2339 383.7511 660.0293 326.3817 638.4293 333.5817"/>
      <polygon id="Lt-33_Mz-6" class="lots" points="700.7093 376.5418 681.5093 319.1817 660.0293 326.3817 679.2339 383.7511 700.7093 376.5418"/>
    </g>
    <g id="Mz-5">
      <polyline id="Lt-1_Mz-5" class="lots" points="765.5738 569.8822 708.3342 589.2019 715.5026 610.5887 772.7739 591.362 765.5738 569.8822"/>
      <polyline id="Lt-2_Mz-5" class="lots" points="758.3741 548.4021 701.0798 567.6046 708.3342 589.2019 765.5738 569.8822 758.3741 548.4021"/>
      <polyline id="Lt-3_Mz-5" class="lots" points="751.174 526.922 693.8514 546.1093 696.2674 553.3049 696.2458 553.3121 696.2674 553.3049 699.5857 563.187 701.0798 567.6046 758.3741 548.4021 751.174 526.922"/>
      <polyline id="Lt-4_Mz-5" class="lots" points="743.983 505.4392 686.6406 524.6331 693.8514 546.1093 751.174 526.922 743.983 505.4392"/>
      <polyline id="Lt-5_Mz-5" class="lots" points="734.374 476.7619 677.03 496.01 686.6406 524.6331 743.983 505.4392 734.374 476.7619"/>
      <polyline id="Lt-6_Mz-5" class="lots" points="696.2458 553.3121 674.7876 560.5127 694.026 617.7988 715.5026 610.5887 699.5857 563.187 696.2458 553.3121"/>
      <polyline id="Lt-7_Mz-5" class="lots" points="674.7876 560.5127 674.7876 560.5127 653.3103 567.9495 672.4416 625.0448 694.026 617.7988 674.7876 560.5127"/>
      <polyline id="Lt-8_Mz-5" class="lots" points="653.2243 567.7495 631.7657 574.958 650.974 632.2819 672.4416 625.0448 653.3103 567.9495 653.2933 567.9554 653.2243 567.7495"/>
      <polyline id="Lt-9_Mz-5" class="lots" points="631.7657 574.958 610.233 582.1903 629.4939 639.482 650.974 632.2819 631.7657 574.958"/>
      <polyline id="Lt-10_Mz-5" class="lots" points="610.233 582.1903 588.7586 589.4019 608.0141 646.6821 629.4939 639.482 610.233 582.1903"/>
      <polyline id="Lt-11_Mz-5" class="lots" points="588.7586 589.4019 567.2607 596.6059 586.5023 653.9054 608.0141 646.6821 588.7586 589.4019"/>
      <polyline id="Lt-12_Mz-5" class="lots" points="567.2607 596.6059 545.7955 603.8215 565.0332 661.099 586.5023 653.9054 567.2607 596.6059"/>
      <polyline id="Lt-13_Mz-5" class="lots" points="545.7955 603.8215 524.3069 611.029 543.5401 668.3203 565.0332 661.099 545.7955 603.8215"/>
      <polyline id="Lt-14_Mz-5" class="lots" points="524.3069 611.029 502.778 618.2642 521.9651 675.5662 543.5401 668.3203 524.3069 611.029"/>
      <polyline id="Lt-15_Mz-5" class="lots" points="502.778 618.2642 481.2475 625.5059 500.4866 682.7718 521.9651 675.5662 502.778 618.2642"/>
      <polyline id="Lt-16_Mz-5" class="lots" points="481.2475 625.5059 459.7416 632.6995 479.008 689.9806 500.4866 682.7718 481.2475 625.5059"/>
      <polyline id="Lt-17_Mz-5" class="lots" points="459.7416 632.6995 438.284 639.9141 457.5305 697.1922 479.008 689.9806 459.7416 632.6995"/>
      <polyline id="Lt-18_Mz-5" class="lots" points="438.284 639.9141 416.7852 647.1187 436.0278 704.4117 457.5305 697.1922 438.284 639.9141"/>
      <polyline id="Lt-19_Mz-5" class="lots" points="416.7852 647.1187 395.3093 654.3278 414.5518 711.6244 436.0278 704.4117 416.7852 647.1187"/>
      <polyline id="Lt-20_Mz-5" class="lots" points="395.3093 654.3278 373.7765 661.5572 392.9635 718.8698 414.5518 711.6244 395.3093 654.3278"/>
      <polyline id="Lt-21_Mz-5" class="lots" points="373.7765 661.5572 352.3083 668.7622 371.4802 726.0816 392.9635 718.8698 373.7765 661.5572"/>
      <polyline id="Lt-22_Mz-5" class="lots" points="352.3083 668.7622 352.3083 668.7622 330.8186 675.9757 350.0046 733.2907 371.4802 726.0816 352.3083 668.7622"/>
      <polyline id="Lt-23_Mz-5" class="lots" points="330.8186 675.9757 320.1341 679.5621 318.8141 743.762 350.0046 733.2907 330.8186 675.9757"/>
      <polyline id="Lt-24_Mz-5" class="lots" points="333.1332 611.4566 321.4541 615.3621 320.1341 679.5621 330.814 675.9619 352.3083 668.7622 333.1332 611.4566"/>
      <polyline id="Lt-25_Mz-5" class="lots" points="354.5869 604.2407 333.1332 611.4566 352.3083 668.7622 373.7765 661.5572 354.5869 604.2407"/>
      <polyline id="Lt-26_Mz-5" class="lots" points="376.0641 597.0319 354.5869 604.2407 373.7765 661.5572 395.3093 654.3278 376.0641 597.0319"/>
      <polyline id="Lt-27_Mz-5" class="lots" points="397.541 589.8228 376.0641 597.0319 395.3093 654.3278 416.7852 647.1187 397.541 589.8228"/>
      <polyline id="Lt-28_Mz-5" class="lots" points="419.0179 582.6141 397.541 589.8228 416.7852 647.1187 438.284 639.9141 419.0179 582.6141"/>
      <polyline id="Lt-29_Mz-5" class="lots" points="440.4948 575.405 419.0179 582.6141 438.284 639.9141 459.7416 632.6995 440.4948 575.405"/>
      <polyline id="Lt-30_Mz-5" class="lots" points="461.9721 568.1961 440.4948 575.405 459.7416 632.6995 481.2475 625.5059 461.9721 568.1961"/>
      <polyline id="Lt-31_Mz-5" class="lots" points="483.5929 560.9387 461.9721 568.1961 481.2475 625.5059 502.778 618.2642 483.5929 560.9387"/>
      <polyline id="Lt-32_Mz-5" class="lots" points="505.0701 553.7299 483.5929 560.9387 502.778 618.2642 524.3069 611.029 505.0701 553.7299"/>
      <polyline id="Lt-33_Mz-5" class="lots" points="526.547 546.5211 505.0701 553.7299 524.3069 611.029 545.7955 603.8215 526.547 546.5211"/>
      <polyline id="Lt-34_Mz-5" class="lots" points="548.0795 539.4117 526.547 546.5211 545.7955 603.8215 567.2607 596.6059 548.0795 539.4117"/>
      <polyline id="Lt-35_Mz-5" class="lots" points="569.5564 532.2026 548.0795 539.4117 567.2607 596.6059 588.7586 589.4019 569.5564 532.2026"/>
      <polyline id="Lt-36_Mz-5" class="lots" points="591.0333 524.9939 569.5564 532.2026 588.7586 589.4019 610.233 582.1903 591.0333 524.9939"/>
      <polyline id="Lt-37_Mz-5" class="lots" points="612.5629 517.6489 591.0333 524.9939 610.233 582.1903 631.7657 574.958 612.5629 517.6489"/>
      <polyline id="Lt-38_Mz-5" class="lots" points="634.0401 510.4401 612.5629 517.6489 631.7657 574.958 653.2243 567.7495 634.0401 510.4401"/>
      <polyline id="Lt-39_Mz-5" class="lots" points="655.5531 503.2191 634.0401 510.4401 653.2413 567.7437 653.2243 567.7495 653.2413 567.7437 674.7876 560.5127 655.5531 503.2191"/>
      <polyline id="Lt-40_Mz-5" class="lots" points="677.03 496.01 655.5531 503.2191 674.7876 560.5127 696.2458 553.3121 693.814 546.1219 693.8514 546.1093 693.814 546.1219 686.6139 524.6421 686.6406 524.6331 686.6139 524.6421 677.03 496.01"/>
    </g>
    <g id="Mz-4">
      <polyline id="Lt-1_Mz-4" class="lots" points="813.7492 713.3818 792.2887 720.5839 818.7621 799.5792 840.6294 793.4218 813.7492 713.3818"/>
      <polyline id="Lt-2_Mz-4" class="lots" points="792.2887 720.5839 770.7604 727.8092 796.9288 805.7243 818.7621 799.5792 792.2887 720.5839"/>
      <polyline id="Lt-3_Mz-4" class="lots" points="770.7604 727.8092 749.2834 735.0195 775.0994 811.874 796.9288 805.7243 770.7604 727.8092"/>
      <polyline id="Lt-4_Mz-4" class="lots" points="749.2834 735.0195 727.7937 742.2362 753.2313 818.0338 775.0994 811.874 749.2834 735.0195"/>
      <polyline id="Lt-5_Mz-4" class="lots" points="727.7937 742.2362 706.3141 749.4403 731.402 824.1782 753.2313 818.0338 727.7937 742.2362"/>
      <polyline id="Lt-6_Mz-4" class="lots" points="706.3141 749.4403 684.8216 756.6585 709.5754 830.328 731.402 824.1782 706.3141 749.4403"/>
      <polyline id="Lt-7_Mz-4" class="lots" points="684.8216 756.6585 663.3449 763.8653 687.737 836.4699 709.5754 830.328 684.8216 756.6585"/>
      <polyline id="Lt-8_Mz-4" class="lots" points="663.3449 763.8653 641.7977 771.0985 665.7641 842.6712 687.737 836.4699 663.3449 763.8653"/>
      <polyline id="Lt-9_Mz-4" class="lots" points="641.7977 771.0985 620.2688 778.3283 643.9358 848.8097 665.7641 842.6712 641.7977 771.0985"/>
      <polyline id="Lt-10_Mz-4" class="lots" points="620.2688 778.3283 598.8119 785.5825 622.1003 854.9575 643.9358 848.8097 620.2688 778.3283"/>
      <polyline id="Lt-11_Mz-4" class="lots" points="598.8119 785.5825 577.2995 792.7466 600.2336 861.1161 622.1003 854.9575 598.8119 785.5825"/>
      <polyline id="Lt-12_Mz-4" class="lots" points="577.2995 792.7466 555.8348 799.9495 578.4031 867.267 600.2336 861.1161 577.2995 792.7466"/>
      <polyline id="Lt-13_Mz-4" class="lots" points="555.8348 799.9495 534.3456 807.1671 556.5712 873.4119 578.4031 867.267 555.8348 799.9495"/>
      <polyline id="Lt-14_Mz-4" class="lots" points="534.3456 807.1671 512.8505 814.3802 534.7444 879.5609 556.5712 873.4119 534.3456 807.1671"/>
      <polyline id="Lt-15_Mz-4" class="lots" points="512.8505 814.3802 491.3072 821.6239 512.8816 885.7158 534.7444 879.5609 512.8505 814.3802"/>
      <polyline id="Lt-16_Mz-4" class="lots" points="491.3072 821.6239 469.7722 828.841 490.933 891.8964 512.8816 885.7158 491.3072 821.6239"/>
      <polyline id="Lt-17_Mz-4" class="lots" points="469.7722 828.841 448.2992 836.0501 469.1094 898.0619 490.933 891.8964 469.7722 828.841"/>
      <polyline id="Lt-18_Mz-4" class="lots" points="448.2992 836.0501 426.8156 843.2541 447.2727 904.1918 469.1094 898.0619 448.2992 836.0501"/>
      <polyline id="Lt-19_Mz-4" class="lots" points="426.8156 843.2541 405.3284 850.4734 425.4054 910.3504 447.2727 904.1918 426.8156 843.2541"/>
      <polyline id="Lt-20_Mz-4" class="lots" points="405.3284 850.4734 383.8489 857.6851 403.5741 916.4994 425.4054 910.3504 405.3284 850.4734"/>
      <polyline id="Lt-21_Mz-4" class="lots" points="383.8489 857.6851 362.3555 864.89 381.7492 922.6616 403.5741 916.4994 383.8489 857.6851"/>
      <polyline id="Lt-22_Mz-4" class="lots" points="362.3555 864.89 340.8292 872.1416 359.8749 928.8068 381.7492 922.6616 362.3555 864.89"/>
      <polyline id="Lt-23_Mz-4" class="lots" points="340.8292 872.1416 316.1094 880.4217 314.7892 941.5019 359.8749 928.8068 340.8292 872.1416"/>
      <polyline id="Lt-24_Mz-4" class="lots" points="335.9093 786.1016 317.9094 792.1016 316.1094 880.4217 362.3555 864.89 335.9093 786.1016"/>
      <polyline id="Lt-25_Mz-4" class="lots" points="357.3894 778.7818 335.9093 786.1016 362.3555 864.89 383.8489 857.6851 357.3894 778.7818"/>
      <polyline id="Lt-26_Mz-4" class="lots" points="378.8692 771.5817 357.3894 778.7818 383.8489 857.6851 405.3284 850.4734 378.8692 771.5817"/>
      <polyline id="Lt-27_Mz-4" class="lots" points="400.3493 764.3817 378.8692 771.5817 405.3284 850.4734 426.8156 843.2541 400.3493 764.3817"/>
      <polyline id="Lt-28_Mz-4" class="lots" points="421.8294 757.1816 400.3493 764.3817 426.8156 843.2541 448.2992 836.0501 421.8294 757.1816"/>
      <polyline id="Lt-29_Mz-4" class="lots" points="443.3092 749.9818 421.8294 757.1816 448.2992 836.0501 469.7722 828.841 443.3092 749.9818"/>
      <polyline id="Lt-30_Mz-4" class="lots" points="464.7893 742.7818 443.3092 749.9818 469.7722 828.841 491.3072 821.6239 464.7893 742.7818"/>
      <polyline id="Lt-31_Mz-4" class="lots" points="486.3892 735.5816 464.7893 742.7818 491.3072 821.6239 512.8505 814.3802 486.3892 735.5816"/>
      <polyline id="Lt-32_Mz-4" class="lots" points="507.8926 728.3388 486.3892 735.5816 512.8505 814.3802 534.3456 807.1671 507.8926 728.3388"/>
      <polyline id="Lt-33_Mz-4" class="lots" points="529.3922 721.1377 507.8926 728.3388 534.3456 807.1671 555.8348 799.9495 529.3922 721.1377"/>
      <polyline id="Lt-34_Mz-4" class="lots" points="550.8293 713.8617 529.3922 721.1377 555.8348 799.9495 577.2995 792.7466 550.8293 713.8617"/>
      <polyline id="Lt-35_Mz-4" class="lots" points="572.3094 706.6616 550.8293 713.8617 577.2995 792.7466 598.8119 785.5825 572.3094 706.6616"/>
      <polyline id="Lt-36_Mz-4" class="lots" points="593.7892 699.4619 572.3094 706.6616 598.8119 785.5825 620.2688 778.3283 593.7892 699.4619"/>
      <polyline id="Lt-37_Mz-4" class="lots" points="615.3894 692.2618 593.7892 699.4619 620.2688 778.3283 641.7977 771.0985 615.3894 692.2618"/>
      <polyline id="Lt-38_Mz-4" class="lots" points="636.8692 685.0617 615.3894 692.2618 641.7977 771.0985 663.3449 763.8653 636.8703 685.075 636.8733 685.0739 636.8692 685.0617"/>
      <polyline id="Lt-39_Mz-4" class="lots" points="658.3493 677.8619 636.8733 685.0739 663.3449 763.8653 684.8216 756.6585 658.3493 677.8619"/>
      <polyline id="Lt-40_Mz-4" class="lots" points="679.8532 670.625 658.3493 677.8619 684.8216 756.6585 706.3141 749.4403 679.8532 670.625"/>
      <polyline id="Lt-41_Mz-4" class="lots" points="701.3418 663.4116 679.8532 670.625 706.3141 749.4403 727.7937 742.2362 701.3418 663.4116"/>
      <polyline id="Lt-42_Mz-4" class="lots" points="722.8089 656.2028 701.3418 663.4116 727.7937 742.2362 749.2834 735.0195 722.8089 656.2028"/>
      <polyline id="Lt-43_Mz-4" class="lots" points="744.2878 648.994 722.8089 656.2028 749.2834 735.0195 770.7604 727.8092 744.2878 648.994"/>
      <polyline id="Lt-44_Mz-4" class="lots" points="765.8694 641.7418 744.2878 648.994 770.7604 727.8092 792.2887 720.5839 765.8694 641.7418"/>
      <polyline id="Lt-45_Mz-4" class="lots" points="787.3492 634.5417 765.8694 641.7418 792.2887 720.5839 813.7818 713.3702 787.3492 634.5417"/>
    </g>
    <g id="Mz-3">
      <polygon id="Lt-1_Mz-3" class="lots" points="875.5043 1042.8219 891.8693 1100.9817 913.7092 1094.8618 897.3324 1036.6746 875.5043 1042.8219"/>
      <polygon id="Lt-2_Mz-3" class="lots" points="853.7156 1048.977 870.1228 1107.1323 891.8693 1100.9817 875.5043 1042.8219 853.7156 1048.977"/>
      <polygon id="Lt-3_Mz-3" class="lots" points="831.9265 1055.0958 848.3039 1113.2671 870.1228 1107.1323 853.7156 1048.977 831.9265 1055.0958"/>
      <polygon id="Lt-4_Mz-3" class="lots" points="810.0905 1061.2512 826.4604 1119.4301 848.3039 1113.2671 831.9265 1055.0958 810.0905 1061.2512"/>
      <rect id="Lt-5_Mz-3" class="lots" x="796.0163" y="1063.1936" width="22.6833" height="60.439" transform="translate(-266.0286 259.6143) rotate(-15.7187)"/>
      <polygon id="Lt-6_Mz-3" class="lots" points="766.4219 1073.5443 782.7894 1131.7016 804.6274 1125.5753 788.2533 1067.3957 766.4219 1073.5443"/>
      <polygon id="Lt-7_Mz-3" class="lots" points="744.5768 1079.6973 760.9325 1137.875 782.7894 1131.7016 766.4219 1073.5443 744.5768 1079.6973"/>
      <polygon id="Lt-8_Mz-3" class="lots" points="722.7243 1085.8521 739.0981 1144.0247 760.9325 1137.875 744.5768 1079.6973 722.7243 1085.8521"/>
      <polygon id="Lt-9_Mz-3" class="lots" points="700.8951 1091.9997 717.2693 1150.1817 739.0981 1144.0247 722.7243 1085.8521 700.8951 1091.9997"/>
      <polygon id="Lt-10_Mz-3" class="lots" points="679.0688 1098.1605 695.4344 1156.3181 717.2693 1150.1817 700.8951 1091.9997 679.0688 1098.1605"/>
      <polygon id="Lt-11_Mz-3" class="lots" points="657.2569 1104.3119 673.6 1162.463 695.4344 1156.3181 679.0688 1098.1605 657.2569 1104.3119"/>
      <polygon id="Lt-12_Mz-3" class="lots" points="635.4279 1110.4428 651.8537 1168.5906 673.6 1162.463 657.2569 1104.3119 635.4279 1110.4428"/>
      <polygon id="Lt-13_Mz-3" class="lots" points="613.6545 1116.5704 630.0168 1174.7415 651.8537 1168.5906 635.4279 1110.4428 613.6545 1116.5704"/>
      <rect id="Lt-14_Mz-3" class="lots" x="599.5793" y="1118.512" width="22.68" height="60.4296" transform="translate(-288.2314 208.342) rotate(-15.7108)"/>
      <polygon id="Lt-15_Mz-3" class="lots" points="569.9953 1128.9037 586.3492 1187.0217 608.1848 1180.8842 591.8212 1122.7111 569.9953 1128.9037"/>
      <polygon id="Lt-16_Mz-3" class="lots" points="548.1421 1135.0412 564.49 1193.1901 586.3492 1187.0217 569.9953 1128.9037 548.1421 1135.0412"/>
      <polygon id="Lt-17_Mz-3" class="lots" points="526.2946 1141.1778 542.6608 1199.3399 564.49 1193.1901 548.1421 1135.0412 526.2946 1141.1778"/>
      <rect id="Lt-18_Mz-3" class="lots" x="512.2149" y="1143.1215" width="22.6869" height="60.4204" transform="translate(-298.3686 185.7809) rotate(-15.7231)"/>
      <polygon id="Lt-19_Mz-3" class="lots" points="482.6273 1153.468 498.9907 1211.6307 520.8256 1205.4842 504.4525 1147.3249 482.6273 1153.468"/>
      <polygon id="Lt-20_Mz-3" class="lots" points="460.7981 1159.5985 477.1574 1217.7782 498.9907 1211.6307 482.6273 1153.468 460.7981 1159.5985"/>
      <polygon id="Lt-21_Mz-3" class="lots" points="438.9544 1165.7735 455.292 1223.9227 477.1574 1217.7782 460.7981 1159.5985 438.9544 1165.7735"/>
      <polygon id="Lt-22_Mz-3" class="lots" points="417.1561 1171.9088 433.5767 1230.0451 455.292 1223.9227 438.9544 1165.7735 417.1561 1171.9088"/>
      <polygon id="Lt-23_Mz-3" class="lots" points="395.3813 1178.052 411.7416 1236.1941 433.5767 1230.0451 417.1561 1171.9088 395.3813 1178.052"/>
      <rect id="Lt-24_Mz-3" class="lots" x="381.3076" y="1179.9957" width="22.6782" height="60.4008" transform="translate(-313.0143 151.5231) rotate(-15.7099)"/>
      <polygon id="Lt-25_Mz-3" class="lots" points="351.7111 1190.3487 368.0756 1248.4895 389.9094 1242.3418 373.5546 1184.1965 351.7111 1190.3487"/>
      <rect id="Lt-26_Mz-3" class="lots" x="337.6092" y="1192.2956" width="22.7092" height="60.4017" transform="translate(-318.0438 140.196) rotate(-15.7135)"/>
      <rect id="Lt-27_Mz-3" class="lots" x="315.7752" y="1198.4465" width="22.6835" height="60.4029" transform="translate(-320.6342 134.5732) rotate(-15.7192)"/>
      <polygon id="Lt-28_Mz-3" class="lots" points="308.0176 1202.6504 286.2407 1208.7826 302.5493 1266.9418 324.3819 1260.7937 308.0176 1202.6504"/>
      <polygon id="Lt-29_Mz-3" class="lots" points="264.4086 1214.9303 280.7175 1273.0877 302.5493 1266.9418 286.2407 1208.7826 264.4086 1214.9303"/>
      <polygon id="Lt-30_Mz-3" class="lots" points="264.4086 1214.9303 280.7175 1273.0877 258.8526 1279.2442 242.5493 1221.1018 264.4086 1214.9303"/>
      <polygon id="Lt-31_Mz-3" class="lots" points="233.562 1223.6164 224.5493 1288.9016 258.8526 1279.2442 242.5493 1221.1018 233.562 1223.6164"/>
      <polygon id="Lt-32_Mz-3" class="lots" points="264.1492 1152.1016 233.9092 1221.1018 233.562 1223.6164 246.4719 1219.981 264.3894 1214.8617 286.2293 1208.7418 308.0176 1202.6504 291.6149 1144.3701 264.1492 1152.1016"/>
      <rect id="Lt-33_Mz-3" class="lots" x="299.3915" y="1140.163" width="22.6835" height="60.5452" transform="translate(-305.4736 127.956) rotate(-15.719)"/>
      <rect id="Lt-34_Mz-3" class="lots" x="321.2258" y="1134.013" width="22.7092" height="60.5442" transform="translate(-303.0914 133.7072) rotate(-15.7246)"/>
      <polygon id="Lt-35_Mz-3" class="lots" points="335.31 1132.07 351.7111 1190.3487 373.5546 1184.1965 357.1446 1125.9256 335.31 1132.07"/>
      <polygon id="Lt-36_Mz-3" class="lots" points="357.1446 1125.9256 373.5546 1184.1965 395.3813 1178.052 378.9802 1119.772 357.1446 1125.9256"/>
      <polygon id="Lt-37_Mz-3" class="lots" points="378.9802 1119.772 395.3813 1178.052 417.1561 1171.9088 400.6929 1113.6562 378.9802 1119.772"/>
      <polygon id="Lt-38_Mz-3" class="lots" points="400.6929 1113.6562 417.1561 1171.9088 438.9544 1165.7735 422.5826 1107.5046 400.6929 1113.6562"/>
      <polygon id="Lt-39_Mz-3" class="lots" points="422.5826 1107.5046 438.9544 1165.7735 460.7981 1159.5985 444.3967 1101.3608 422.5826 1107.5046"/>
      <rect id="Lt-40_Mz-3" class="lots" x="452.1746" y="1097.1588" width="22.6765" height="60.5069" transform="translate(-288.2656 167.8646) rotate(-15.7287)"/>
      <polygon id="Lt-41_Mz-3" class="lots" points="466.2294 1095.2217 482.6273 1153.468 504.4525 1147.3249 488.0604 1089.0643 466.2294 1095.2217"/>
      <polygon id="Lt-42_Mz-3" class="lots" points="488.0604 1089.0643 504.4525 1147.3249 526.2946 1141.1778 509.8935 1082.9211 488.0604 1089.0643"/>
      <polygon id="Lt-43_Mz-3" class="lots" points="509.8935 1082.9211 526.2946 1141.1778 548.1421 1135.0412 531.7552 1076.7624 509.8935 1082.9211"/>
      <polygon id="Lt-44_Mz-3" class="lots" points="531.7552 1076.7624 548.1421 1135.0412 569.9953 1128.9037 553.5892 1070.6217 531.7552 1076.7624"/>
      <polygon id="Lt-45_Mz-3" class="lots" points="553.5892 1070.6217 569.9953 1128.9037 591.8212 1122.7111 575.4293 1064.5018 553.5892 1070.6217"/>
      <polygon id="Lt-46_Mz-3" class="lots" points="575.4293 1064.5018 591.8212 1122.7111 613.6545 1116.5704 597.2638 1058.3177 575.4293 1064.5018"/>
      <polygon id="Lt-47_Mz-3" class="lots" points="597.2638 1058.3177 613.6545 1116.5704 635.4279 1110.4428 618.9816 1052.2132 597.2638 1058.3177"/>
      <polygon id="Lt-48_Mz-3" class="lots" points="618.9816 1052.2132 635.4279 1110.4428 657.2569 1104.3119 640.8368 1046.0561 618.9816 1052.2132"/>
      <polygon id="Lt-49_Mz-3" class="lots" points="640.8368 1046.0561 657.2569 1104.3119 679.0688 1098.1605 662.6692 1039.9018 640.8368 1046.0561"/>
      <polygon id="Lt-50_Mz-3" class="lots" points="662.6692 1039.9018 679.0688 1098.1605 700.8951 1091.9997 684.5093 1033.7817 662.6692 1039.9018"/>
      <polygon id="Lt-51_Mz-3" class="lots" points="684.5093 1033.7817 700.8951 1091.9997 722.7243 1085.8521 706.3374 1027.6175 684.5093 1033.7817"/>
      <polygon id="Lt-52_Mz-3" class="lots" points="706.3374 1027.6175 722.7243 1085.8521 744.5768 1079.6973 728.2003 1021.4628 706.3374 1027.6175"/>
      <polygon id="Lt-53_Mz-3" class="lots" points="728.2003 1021.4628 744.5768 1079.6973 766.4219 1073.5443 750.0293 1015.3018 728.2003 1021.4628"/>
      <polygon id="Lt-54_Mz-3" class="lots" points="750.0293 1015.3018 766.4219 1073.5443 788.2533 1067.3957 771.8694 1009.1817 750.0293 1015.3018"/>
      <polygon id="Lt-55_Mz-3" class="lots" points="771.8694 1009.1817 788.2533 1067.3957 810.0905 1061.2512 793.7012 1003.0062 771.8694 1009.1817"/>
      <polygon id="Lt-56_Mz-3" class="lots" points="793.7012 1003.0062 810.0905 1061.2512 831.9265 1055.0958 815.5328 996.8696 793.7012 1003.0062"/>
      <polygon id="Lt-57_Mz-3" class="lots" points="815.5328 996.8696 831.9265 1055.0958 853.7156 1048.977 837.2858 990.7528 815.5328 996.8696"/>
      <polygon id="Lt-58_Mz-3" class="lots" points="837.2858 990.7528 853.7156 1048.977 875.5043 1042.8219 859.1188 984.6079 837.2858 990.7528"/>
      <rect id="Lt-59_Mz-3" class="lots" x="866.8871" y="980.4039" width="22.6781" height="60.4752" transform="translate(-240.9757 275.7506) rotate(-15.7203)"/>
    </g>
    <g id="Mz-2">
      <polygon id="Lt-1_Mz-2" class="lots" points="904.2501 1144.7145 930.5251 1238.2971 953.0829 1234.5692 926.0829 1138.5693 904.2501 1144.7145"/>
      <polygon id="Lt-2_Mz-2" class="lots" points="882.4178 1150.8628 908.083 1242.0093 908.0206 1242.0196 908.0873 1242.2569 930.5251 1238.2971 904.2501 1144.7145 882.4178 1150.8628"/>
      <polygon id="Lt-3_Mz-2" class="lots" points="860.5508 1157.0118 885.5231 1245.7292 908.0206 1242.0196 882.4178 1150.8628 860.5508 1157.0118"/>
      <polygon id="Lt-4_Mz-2" class="lots" points="838.7231 1163.1693 863.0802 1249.4437 885.5231 1245.7292 860.5508 1157.0118 838.7231 1163.1693"/>
      <polygon id="Lt-5_Mz-2" class="lots" points="816.8884 1169.3109 840.5231 1253.1692 863.0802 1249.4437 838.7231 1163.1693 816.8884 1169.3109"/>
      <polygon id="Lt-6_Mz-2" class="lots" points="795.0553 1175.4566 817.965 1256.8966 840.5231 1253.1692 816.8884 1169.3109 795.0553 1175.4566"/>
      <polygon id="Lt-7_Mz-2" class="lots" points="773.2273 1181.6127 795.5229 1260.6093 817.965 1256.8966 795.0553 1175.4566 773.2273 1181.6127"/>
      <polygon id="Lt-8_Mz-2" class="lots" points="751.4732 1187.7338 772.9629 1264.3292 795.5229 1260.6093 773.2273 1181.6127 751.4732 1187.7338"/>
      <polygon id="Lt-9_Mz-2" class="lots" points="729.6409 1193.8831 750.523 1268.0492 772.9629 1264.3292 751.4732 1187.7338 729.6409 1193.8831"/>
      <polygon id="Lt-10_Mz-2" class="lots" points="707.8069 1200.0252 727.963 1271.7691 750.523 1268.0492 729.6409 1193.8831 707.8069 1200.0252"/>
      <polygon id="Lt-11_Mz-2" class="lots" points="685.9764 1206.1796 705.5184 1275.4756 727.963 1271.7691 707.8069 1200.0252 685.9764 1206.1796"/>
      <polygon id="Lt-12_Mz-2" class="lots" points="664.1445 1212.3272 682.9605 1279.2036 705.5184 1275.4756 685.9764 1206.1796 664.1445 1212.3272"/>
      <polygon id="Lt-13_Mz-2" class="lots" points="642.2829 1218.4892 660.4031 1282.9292 682.9605 1279.2036 664.1445 1212.3272 642.2829 1218.4892"/>
      <polygon id="Lt-14_Mz-2" class="lots" points="620.4501 1224.6344 637.9629 1286.6492 660.4031 1282.9292 642.2829 1218.4892 620.4501 1224.6344"/>
      <polygon id="Lt-15_Mz-2" class="lots" points="598.6158 1230.7804 615.4017 1290.3658 637.9629 1286.6492 620.4501 1224.6344 598.6158 1230.7804"/>
      <polygon id="Lt-16_Mz-2" class="lots" points="576.7851 1236.9284 592.9594 1294.0754 615.4017 1290.3658 598.6158 1230.7804 576.7851 1236.9284"/>
      <polygon id="Lt-17_Mz-2" class="lots" points="553.1283 1243.5907 568.4695 1298.121 592.9594 1294.0754 576.7851 1236.9284 553.1283 1243.5907"/>
      <polygon id="Lt-18_Mz-2" class="lots" points="528.4027 1250.5496 543.03 1302.3212 568.4695 1298.121 553.1283 1243.5907 528.4027 1250.5496"/>
      <polygon id="Lt-19_Mz-2" class="lots" points="502.9631 1257.7292 516.7566 1306.6651 543.03 1302.3212 528.4027 1250.5496 502.9631 1257.7292"/>
      <polygon id="Lt-20_Mz-2" class="lots" points="475.7169 1265.391 488.5508 1311.3267 516.7566 1306.6651 502.9631 1257.7292 475.7169 1265.391"/>
      <polygon id="Lt-21_Mz-2" class="lots" points="446.9349 1273.4927 458.9357 1316.2162 488.5508 1311.3267 475.7169 1265.391 446.9349 1273.4927"/>
      <polygon id="Lt-22_Mz-2" class="lots" points="414.9009 1282.5135 425.919 1321.6741 458.9357 1316.2162 446.9349 1273.4927 414.9009 1282.5135"/>
      <polygon id="Lt-23_Mz-2" class="lots" points="374.9335 1293.7687 384.631 1328.4962 425.919 1321.6741 414.9009 1282.5135 374.9335 1293.7687"/>
      <polygon id="Lt-24_Mz-2" class="lots" points="329.4462 1306.5792 337.8481 1336.2231 384.631 1328.4962 374.9335 1293.7687 329.4462 1306.5792"/>
      <polygon id="Lt-25_Mz-2" class="lots" points="280.3712 1320.3982 287.0832 1344.6151 337.8481 1336.2231 329.4462 1306.5792 280.3712 1320.3982"/>
      <polygon id="Lt-26_Mz-2" class="lots" points="217.8431 1338.0091 215.2031 1356.4891 287.0832 1344.6151 280.3712 1320.3982 217.8431 1338.0091"/>
    </g>
    <g id="Mz-1">
      <polygon id="Lt-1_Mz-1" class="lots" points="594.985 1400.9537 604.8293 1460.6217 627.1493 1456.9017 617.3093 1397.2617 594.985 1400.9537"/>
      <polygon id="Lt-2_Mz-1" class="lots" points="572.5428 1404.6652 582.3844 1464.3036 604.8292 1460.6217 594.9851 1400.9537 572.5428 1404.6652"/>
      <polygon id="Lt-3_Mz-1" class="lots" points="550.2298 1408.3587 560.0526 1467.9948 582.3844 1464.3036 572.5429 1404.6652 550.2298 1408.3587"/>
      <polygon id="Lt-4_Mz-1" class="lots" points="505.4679 1415.7614 515.3093 1475.3816 537.7338 1471.6887 527.8443 1412.0603 505.4679 1415.7614"/>
      <polygon id="Lt-5_Mz-1" class="lots" points="527.8443 1412.0603 537.7338 1471.6887 560.0526 1467.9947 550.2299 1408.3587 527.8443 1412.0603"/>
      <polygon id="Lt-6_Mz-1" class="lots" points="483.0908 1419.4677 492.9893 1479.1017 515.3093 1475.3818 505.4679 1415.7615 483.0908 1419.4677"/>
      <polygon id="Lt-7_Mz-1" class="lots" points="460.711 1423.1707 470.5493 1482.8217 492.9893 1479.1017 483.0907 1419.4677 460.711 1423.1707"/>
      <polygon id="Lt-8_Mz-1" class="lots" points="438.3229 1426.8697 448.2176 1486.4903 470.5494 1482.8217 460.711 1423.1706 438.3229 1426.8697"/>
      <polygon id="Lt-9_Mz-1" class="lots" points="415.9543 1430.5688 425.777 1490.1997 448.2176 1486.4902 438.3229 1426.8697 415.9543 1430.5688"/>
      <rect id="Lt-10_Mz-1" class="lots" x="398.3895" y="1432.0138" width="22.6277" height="60.4323" transform="translate(-232.377 86.11) rotate(-9.3608)"/>
      <polygon id="Lt-11_Mz-1" class="lots" points="371.1947 1437.9735 381.0357 1497.6031 403.4556 1493.8884 393.6267 1434.263 371.1947 1437.9735"/>
      <rect id="Lt-12_Mz-1" class="lots" x="353.6369" y="1439.4165" width="22.6303" height="60.4391" transform="translate(-234.4125 79.031) rotate(-9.3705)"/>
      <polygon id="Lt-13_Mz-1" class="lots" points="246.6293 1458.5817 257.1216 1469.6239 276.2569 1483.8463 323.4238 1507.1285 358.7093 1501.3017 348.8682 1441.6661 246.6293 1458.5817"/>
      <path id="Lt-14_Mz-1" class="lots" d="M217.2293,1402.0617c12.3513,39.2445,29.4,56.5199,29.4,56.5199l12.72-2.16-9.84-59.64-32.28,5.28Z"/>
      <polygon id="Lt-15_Mz-1" class="lots" points="249.5093 1396.7817 259.3493 1456.4217 281.7893 1452.7017 271.8293 1393.0617 249.5093 1396.7817"/>
      <polygon id="Lt-16_Mz-1" class="lots" points="271.8293 1393.0617 281.7893 1452.7017 304.1093 1449.1017 294.2693 1389.3417 271.8293 1393.0617"/>
      <polygon id="Lt-17_Mz-1" class="lots" points="294.2693 1389.3417 304.1093 1449.1017 326.4293 1445.3817 316.5918 1385.6514 294.2693 1389.3417"/>
      <polygon id="Lt-18_Mz-1" class="lots" points="316.5917 1385.6514 326.4292 1445.3817 348.8682 1441.6661 339.0293 1382.0217 316.5917 1385.6514"/>
      <polygon id="Lt-19_Mz-1" class="lots" points="339.0293 1382.0217 348.8682 1441.6661 371.1947 1437.9734 361.3493 1378.3017 339.0293 1382.0217"/>
      <polygon id="Lt-20_Mz-1" class="lots" points="361.3493 1378.3017 371.1948 1437.9734 393.6266 1434.263 383.7893 1374.5816 361.3493 1378.3017"/>
      <polygon id="Lt-21_Mz-1" class="lots" points="383.7893 1374.5816 393.6266 1434.263 415.9543 1430.5688 406.1093 1370.8617 383.7893 1374.5816"/>
      <polygon id="Lt-22_Mz-1" class="lots" points="406.1093 1370.8617 415.9543 1430.5688 438.3229 1426.8697 428.4293 1367.2617 406.1093 1370.8617"/>
      <polygon id="Lt-23_Mz-1" class="lots" points="428.4293 1367.2617 438.3229 1426.8697 460.711 1423.1707 450.859 1363.4816 428.4293 1367.2617"/>
      <polygon id="Lt-24_Mz-1" class="lots" points="450.859 1363.4817 460.7111 1423.1706 483.0908 1419.4677 473.1767 1359.7967 450.859 1363.4817"/>
      <polygon id="Lt-25_Mz-1" class="lots" points="473.1767 1359.7967 483.0907 1419.4677 505.4679 1415.7614 495.6293 1356.1016 473.1767 1359.7967"/>
      <polygon id="Lt-26_Mz-1" class="lots" points="495.6293 1356.1017 505.4679 1415.7615 527.8442 1412.0603 517.9515 1352.4023 495.6293 1356.1017"/>
      <polygon id="Lt-27_Mz-1" class="lots" points="517.9516 1352.4022 527.8443 1412.0603 550.2298 1408.3587 540.3916 1348.6968 517.9516 1352.4022"/>
      <polygon id="Lt-28_Mz-1" class="lots" points="540.3915 1348.6969 550.23 1408.3587 572.5428 1404.6652 562.6949 1345.0133 540.3915 1348.6969"/>
      <rect id="Lt-29_Mz-1" class="lots" x="567.4666" y="1342.7555" width="22.7473" height="60.4576" transform="translate(-215.9105 112.622) rotate(-9.3745)"/>
      <polygon id="Lt-30_Mz-1" class="lots" points="585.138 1341.3051 594.9851 1400.9538 617.3093 1397.2617 607.4692 1337.6217 585.138 1341.3051"/>
    </g>
  </g>
  <g id="Outline">
    <polygon id="ot_m13" class="outline" points="631.7431 1703.4862 769.75 1586.5413 512.9197 1629.0023 631.7431 1703.4862"/>
    <polyline id="ot_m12" class="outline" points="969.7493 1126.1817 1039.1093 1372.9017 1335.5093 1144.3017 1515.6293 1023.9417 1487.3093 980.5017 969.7493 1126.1817"/>
    <path id="ot_m11" class="outline" d="M662.0774,1389.938l319.8494-52.9265M943.102,1282.1392l19.6883,119.3343M920.6795,1285.8461l19.7869,119.3197M898.3542,1289.5348l19.671,119.3424M875.9111,1293.2386l19.7897,119.3326M853.5875,1296.9294l19.6904,119.3637M831.1443,1300.6326l19.809,119.3382M808.8179,1304.3201l19.6945,119.3617M786.5138,1308.005l19.6741,119.3687M764.0695,1311.7073l19.6762,119.3779M741.7429,1315.3947l19.6999,119.3705M719.3036,1319.1029l19.8087,119.3692M696.977,1322.7903l19.6923,119.3514M674.5413,1326.5046l19.8092,119.3666M998.4293,1395.5817l-33-117.12M652.2293,1330.1817l19.68,119.4M965.4293,1278.4617l-313.2,51.72M671.9093,1449.5817l326.52-54"/>
    <path id="ot_m10" class="outline" d="M941.0693,1024.4217l485.76-136.8M924.6293,966.1017l32.76,116.52,504.0001-141.96-69.12-106.2-467.6401,131.64M946.4693,959.9817l32.76,116.4M968.3093,953.8617l32.7599,116.4M990.1493,947.7417l32.76,116.4M1011.9893,941.6217l32.7599,116.4M1033.8293,935.3817l32.76,116.52M1055.5492,929.2617l32.88,116.4M1077.3893,923.1417l32.76,116.4M1099.2293,917.0217l32.76,116.4M1121.0693,910.9017l32.76,116.4M1175.6692,1021.0617l-32.76-116.4M1164.7493,898.5417l32.76,116.4M1219.3493,1008.8217l-32.76-116.4M1208.4292,886.3017l32.76,116.4M1230.2693,880.0617l32.7599,116.52M1251.9893,873.9417l32.88,116.4M1273.8293,867.8217l32.88,116.4M1295.6692,861.7017l32.76,116.4M1317.5093,855.5817l32.76,116.4M1339.3493,849.3417l32.76,116.52M1361.1893,843.2217l32.76,116.4M1399.3493,895.3017l16.4399,58.2"/>
    <path id="ot_m9" class="outline" d="M856.7719,698.8266l258.3244-86.6564M884.4293,781.1817l210.2496-59.1634-57.633-12.1239,77.7385-97.3349,95.6766-119.9725-380.1517,127.4346M830.3093,620.0218l54.12,161.16M851.7893,612.8217l54.4721,162.2169M873.2693,605.6217l54.8614,163.2616M894.7493,598.4217l55.212,164.319M916.3347,591.1818l55.4594,165.4163M937.816,583.9818l55.8133,166.3599M959.2945,576.7801l56.2012,167.526M980.8104,569.5685l26.499,78.7732M1002.2873,562.3607l26.502,78.781M1050.2693,633.9417l-26.4999-78.7758M1071.7493,626.7417l-26.5003-78.7797M1093.2293,619.5418l-26.3907-78.8121M1088.3185,533.53l26.7778,78.6401M1109.7975,526.3281l21.8447,65.1214M1131.2778,519.1292l17.2497,51.1277"/>
    <path id="ot_m8" class="outline" d="M786.9893,491.0218l57.36-19.2001M794.2412,512.6031l57.2986-19.2994M801.4577,534.0772l57.2749-19.2912M808.6908,555.5864l57.2671-19.2096M1265.9775,362.1576l-412.0282,138.3441M815.9093,577.0617l446.7008-149.7314,139.0801-174.24-624.3009,209.3714,38.52,114.6M873.1522,557.8725l-38.4029-114.7308M856.2293,435.9417l38.5116,114.6968M877.7093,428.7417l38.5485,114.6871M937.7373,536.2275l-38.548-114.6858M920.6693,414.3417l38.5485,114.6844M942.1493,407.1417l38.5478,114.6843M963.7493,399.8217l38.4267,114.8033M985.2293,392.6217l38.4275,114.8045M1006.7093,385.4218l38.536,114.7682M1028.1893,378.2217l38.5354,114.767M1088.2424,485.7738l-38.5732-114.752M1109.7213,478.5757l-38.572-114.754M1092.7493,356.6217l38.4515,114.7527M1114.2293,349.3017l38.4537,114.8818M1174.2683,456.9383l-38.559-114.8366M1157.1893,334.9018l38.5593,114.8397M1178.7218,327.8616l38.5064,114.6769M1200.2021,320.6575l19.2396,57.1252M1221.6803,313.4565l19.2385,57.1159M1246.757,305.0433l33.6397,99.9693M1271.8696,296.6251l28.1187,83.8757M1296.9446,288.2077l22.71,67.6475M1322.0229,279.8044l17.3006,51.4193"/>
    <path id="ot_m7" class="outline" d="M743.5492,362.1762l344.0587-115.583M746.1154,298.0761l38.451,114.363M767.5926,290.8674l38.4661,114.3576M789.1057,283.6466l38.3851,114.3844M848.9809,390.8177l-38.2612-114.4257M832.1672,269.1933l38.3017,114.4117M872.6693,318.8217l19.4251,57.5245M894.1493,311.6217l19.4262,57.5141M915.7694,304.3617l19.2579,57.5736M937.2293,297.1017l19.2994,57.6165M958.7093,289.9018l19.2699,57.567M999.3893,340.0617l-19.2-57.36M1021.0611,333.0572l-19.3918-57.5754M1023.1347,268.2717l19.4033,57.5765M1044.6049,261.0396l19.4368,57.5907M1066.2084,253.8036l19.3165,57.6156M1081.3113,227.624l25.6897,76.5865M1104.6089,225.7571l23.868,71.2449M1127.8675,223.8933l22.0919,65.8038M1151.1662,222.0262l20.3733,60.5213M1174.425,220.1624l18.6005,55.1732M1205.0465,217.7086l16.1751,48.1627M1239.99,215.0218l13.396,40.0532M1284.6024,211.3334l10.0788,29.8804M724.3494,305.3817l38.6399,114.3,635.8457-213.4282-1.5257-3.9518-480.5888,38.5119-192.3711,64.5682h0Z"/>
    <path id="ot_m6" class="outline" d="M323.467,567.2657c.167-.056,18.6731-134.413,18.6731-134.413l339.5956-114.1282,38.6259,115.4063-396.8947,133.1349ZM332.7587,500.0817l368.292-123.6599-368.292,123.6599ZM359.0299,427.6618l38.3588,114.24M356.8825,491.9817l19.1068,57.2895M380.6693,420.3417l38.28,114.24M402.0293,413.0218s38.1878,114.4436,38.4394,114.36M461.9486,520.1817l-38.4393-114.36M444.9893,398.6217l38.9804,114.5994M466.4693,391.3017l38.52,114.9002M487.9493,384.1017s38.0768,114.52,38.52,114.72M509.5493,376.9018l38.4738,114.66M531.0672,369.7017l38.3621,114.48M552.5093,362.5012l38.4797,114.4805M573.9486,355.3017l38.5607,114.4801M595.4693,347.9817l38.52,114.6M655.4693,455.5184l-38.6436-114.8395M638.4293,333.5817l38.52,114.7312M698.4293,441.1017l-38.52-114.72"/>
    <path id="ot_m5" class="outline" d="M686.6693,524.7417l57.3691-19.203M693.8693,546.2217l57.36-19.2M758.4293,548.5017l-57.36,19.2M765.6293,569.9817l-57.24,19.3199M320.1893,679.6618l376.08-126.24M715.5579,610.6884l-38.4725-114.5787M694.0813,617.8984l-38.4729-114.5798M634.0952,510.5397l38.4016,114.6049M612.6182,517.7486l38.4111,114.6331M629.5493,639.5817l-38.516-114.5879M569.5564,532.2027l38.513,114.5791M586.5576,654.005l-38.4782-114.5934M565.0884,661.1985l-38.4861-114.5779M543.5953,668.4199l-38.4699-114.5904M483.6483,561.0384l38.3722,114.6274M462.0273,568.2957l38.5146,114.5757M440.5503,575.5046l38.5131,114.5755M419.0733,582.7135l38.5125,114.5782M436.0688,704.4794l-38.4725-114.5569M414.6072,711.7241l-38.488-114.5927M393.0189,718.9695l-38.3766-114.6291M371.5355,726.1811l-38.3469-114.6249M330.8693,676.0617l19.1905,57.3285M321.5093,615.4617l412.92-138.6M320.1893,679.6618l1.32-64.2001M320.1893,679.6618l-1.32,64.2,453.96-152.4-38.4-114.6"/>
    <path id="ot_m4" class="outline" d="M316.1093,880.4217l497.64-167.04M765.8693,641.7417l52.92,157.92M744.2693,648.9417l52.68,156.84M722.7893,656.1417l52.32,155.7599M701.3093,663.3417l51.96,154.8M679.8293,670.5418l51.6,153.7199M709.5893,830.3817l-51.24-152.52M687.7493,836.5017l-50.88-151.4401M615.3893,692.2617l50.4,150.48M593.7893,699.4617l50.16,149.4M622.1093,854.9817l-49.8-148.3199M550.8293,713.8617l49.44,147.36M529.3493,721.0617l49.08,146.28M507.8693,728.2617l48.72,145.2M486.3893,735.5817l48.36,144M464.7893,742.7818l48.12,143.0399M443.3093,749.9817l47.64,141.96M421.8293,757.1817l47.28,140.88M400.3493,764.3817l46.92,139.8M378.8693,771.5817l46.56,138.84M357.3893,778.7817l46.2,137.76M335.9093,786.1017l45.84,136.56M340.8293,872.1417l19.08,56.76M317.9093,792.1017l-3.12,149.4,525.84-148.08-53.28-158.8799-469.44,157.5599"/>
    <path id="ot_m3" class="outline" d="M233.5493,1223.6217l663.7832-186.9471M859.1188,984.6079l32.7505,116.3738M837.2857,990.7529l32.8371,116.3793M815.5329,996.8695l32.771,116.3977M793.701,1003.0062l32.7594,116.424M771.8693,1009.1817l32.758,116.3937M750.0293,1015.3017l32.76,116.4M728.2003,1021.4627l32.7322,116.4123M706.3374,1027.6175l32.7607,116.4071M684.5093,1033.7817l32.76,116.4M662.6693,1039.9017l32.7651,116.4163M640.8367,1046.0559l32.7633,116.4071M618.9815,1052.2133l32.8721,116.3773M597.2638,1058.3177l32.7529,116.4238M575.4293,1064.5017l32.7555,116.3824M553.5893,1070.6217l32.76,116.4M531.7552,1076.7624l32.7348,116.4278M509.8936,1082.9211l32.7672,116.4188M488.0604,1089.0642l32.7652,116.4201M466.2293,1095.2217l32.7613,116.409M444.3968,1101.3608l32.7607,116.4175M422.5826,1107.5046l32.7094,116.4181M400.6929,1113.6561l32.8838,116.389M378.9802,1119.772l32.7614,116.422M357.1445,1125.9255l32.7648,116.4162M368.0757,1248.4894l-32.7656-116.4195M313.4498,1138.2169l32.7638,116.43M291.6153,1144.3717l32.7665,116.422M286.2293,1208.7417l16.32,58.2M264.3893,1214.8617l16.3282,58.226M242.5493,1221.1017l16.3034,58.1425M224.5493,1288.9017l689.16-194.04-32.76-116.4-616.8,173.64-30.24,69M233.9093,1221.1017l-9.36,67.8"/>
    <path id="ot_m2" class="outline" d="M217.8293,1337.9817l708.24-199.44M215.1893,1356.4617l737.88-121.92M926.0693,1138.5417l27,96M882.4041,1150.8353l25.6652,91.1464M860.5371,1156.9843l24.9722,88.7173M838.7093,1163.1417l24.3572,86.2746M816.8747,1169.2835l23.6346,83.8581M795.0416,1175.4292l22.9098,81.4398M773.2136,1181.5853l22.2957,78.9964M751.4595,1187.7064l21.4898,76.5953M729.627,1193.8557l20.8823,74.166M707.7932,1199.9978l20.1561,71.7439M685.9625,1206.1522l19.542,69.2959M664.1308,1212.2996l18.8159,66.8765M642.2693,1218.4617l18.12,64.44M620.4364,1224.607l17.5129,62.0147M598.6021,1230.7529l16.7858,59.5855M576.7715,1236.9009l16.1742,57.1469M553.1145,1243.5631l15.3414,54.5303M528.389,1250.5222l14.6273,51.7716M502.9493,1257.7017l13.7936,48.9357M475.7031,1265.3634l12.834,45.9359M446.9211,1273.4653l12.0009,42.7233M414.8871,1282.4861l11.0182,39.1605M374.9196,1293.7412l9.6977,34.7274M329.4325,1306.5518l8.402,29.6438M280.3575,1320.3709l6.712,24.2167M215.1893,1356.4617l2.64-18.48M904.2363,1144.687l26.2751,93.5826"/>
    <path id="ot_m1" class="outline" d="M585.1438,1341.3083l19.6855,119.3134M562.7014,1345.0142l19.6878,119.3275M540.3893,1348.6617l19.6801,119.4M517.9493,1352.3817l19.8,119.4M495.6293,1356.1017l19.68,119.28M473.1893,1359.8217l19.8,119.28M450.8693,1363.5417l19.68,119.28M428.4293,1367.2617l19.8,119.28M406.1093,1370.8617l19.68,119.4M383.7893,1374.5817l19.68,119.4M361.3493,1378.3017l19.68,119.28M339.0293,1382.0217l19.68,119.28M316.5893,1385.7417l9.84,59.64M294.2693,1389.3417l9.84,59.76M271.8293,1393.0617l9.96,59.64M249.5093,1396.7817l9.84,59.64M607.4693,1337.6217l-390.24,64.44s8.9938,31.9133,29.4,56.52l370.68-61.32-9.84-59.64ZM627.1493,1456.9017l-19.68-119.28M617.3093,1397.2617l-370.68,61.32s13.6749,17.7831,38.88,30.36l37.9146,18.1868h0l303.7254-50.2268-9.84-59.64Z"/>
  </g>
</svg>
