<?xml version="1.0" encoding="UTF-8"?>
<svg id="Redraw" xmlns="http://www.w3.org/2000/svg" viewBox="0 0 1520 1520">
  <defs>
    <style id="plan_styles">
      .outline {
        stroke: #231f20;
        fill: none;
      }
      .greens {
        fill: #99cc67;
      }
      .lots {
        fill: #4167b0;
      }
      .greens:hover,
      .lots:hover {
        fill: #4a8923;
        cursor: pointer;
      }
      .lots:active,
      .greens:active {
        cursor: pointer;
        fill: #7ed747;
      }
      .unavailable {
        fill: #be2525
      }
    </style>
  </defs>
  <polygon id="Mz-13" class="greens" points="561.4587 1519.8532 699.4656 1402.9083 442.6353 1445.3693 561.4587 1519.8532"/>
  <polyline id="Mz-12" class="greens" points="1415.7038 796.8687 898.1436 942.5486 967.5037 1189.2686 1263.904 960.6688 1444.0238 840.3089 1415.7038 796.8687"/>
  <g id="mz">
    <g id="Mz-11">
      <polygon id="Lt-1_Mz-11" class="lots" points="881.3117 1158.1727 891.1573 1217.8405 926.7962 1211.9488 910.2937 1153.3786 881.3117 1158.1727"/>
      <polygon id="Lt-2_Mz-11" class="lots" points="858.9407 1161.8746 868.8334 1221.5329 891.1573 1217.8405 881.3117 1158.1727 858.9407 1161.8746"/>
      <polygon id="Lt-3_Mz-11" class="lots" points="836.5573 1165.5791 846.3922 1225.2443 868.8334 1221.5329 858.9407 1161.8746 836.5573 1165.5791"/>
      <polygon id="Lt-4_Mz-11" class="lots" points="814.181 1169.2853 824.0676 1228.9381 846.3922 1225.2443 836.5573 1165.5791 814.181 1169.2853"/>
      <polygon id="Lt-5_Mz-11" class="lots" points="791.7999 1172.9855 801.645 1232.6601 824.0676 1228.9381 814.181 1169.2853 791.7999 1172.9855"/>
      <polygon id="Lt-6_Mz-11" class="lots" points="769.4187 1176.6855 779.3204 1236.3379 801.645 1232.6601 791.7999 1172.9855 769.4187 1176.6855"/>
      <polygon id="Lt-7_Mz-11" class="lots" points="747.0372 1180.3917 756.8794 1240.0487 779.3204 1236.3379 769.4187 1176.6855 747.0372 1180.3917"/>
      <rect id="Lt-8_Mz-11" class="lots" x="729.4859" y="1181.8368" width="22.6242" height="60.4607" transform="translate(-187.2913 136.6423) rotate(-9.3614)"/>
      <rect id="Lt-9_Mz-11" class="lots" x="707.0447" y="1185.5401" width="22.7453" height="60.4587" transform="translate(-188.1298 132.9994) rotate(-9.3582)"/>
      <polygon id="Lt-10_Mz-11" class="lots" points="679.9676 1191.4912 689.8098 1251.1322 712.1126 1247.4522 702.2816 1187.7974 679.9676 1191.4912"/>
      <polygon id="Lt-11_Mz-11" class="lots" points="657.5828 1195.2004 667.4793 1254.8391 689.8098 1251.1322 679.9676 1191.4912 657.5828 1195.2004"/>
      <polygon id="Lt-12_Mz-11" class="lots" points="635.2018 1198.8996 645.0363 1258.5087 667.4793 1254.8391 657.5828 1195.2004 635.2018 1198.8996"/>
      <polygon id="Lt-13_Mz-11" class="lots" points="612.8206 1202.5987 622.7174 1262.2381 645.0363 1258.5087 635.2018 1198.8996 612.8206 1202.5987"/>
      <polygon id="Lt-14_Mz-11" class="lots" points="590.4449 1206.3029 600.2761 1265.9488 622.7174 1262.2381 612.8206 1202.5987 590.4449 1206.3029"/>
      <polygon id="Lt-15_Mz-11" class="lots" points="580.5909 1146.5477 590.4449 1206.3029 612.8206 1202.5987 602.9066 1142.864 580.5909 1146.5477"/>
      <polygon id="Lt-16_Mz-11" class="lots" points="602.9066 1142.864 612.8206 1202.5987 635.2018 1198.8996 625.3441 1139.1574 602.9066 1142.864"/>
      <polygon id="Lt-17_Mz-11" class="lots" points="625.3441 1139.1574 635.2018 1198.8996 657.5828 1195.2004 647.6707 1135.47 625.3441 1139.1574"/>
      <polygon id="Lt-18_Mz-11" class="lots" points="647.6707 1135.47 657.5828 1195.2004 679.9676 1191.4912 670.1099 1131.7618 647.6707 1135.47"/>
      <polygon id="Lt-19_Mz-11" class="lots" points="670.1099 1131.7618 679.9676 1191.4912 702.2816 1187.7974 692.4252 1128.076 670.1099 1131.7618"/>
      <polygon id="Lt-20_Mz-11" class="lots" points="692.4252 1128.076 702.2816 1187.7974 724.7206 1184.0878 714.8807 1124.3719 692.4252 1128.076"/>
      <polygon id="Lt-21_Mz-11" class="lots" points="714.8807 1124.3719 724.7206 1184.0878 747.0372 1180.3917 737.185 1120.687 714.8807 1124.3719"/>
      <polygon id="Lt-22_Mz-11" class="lots" points="737.185 1120.687 747.0372 1180.3917 769.4187 1176.6855 759.512 1117.0043 737.185 1120.687"/>
      <polygon id="Lt-23_Mz-11" class="lots" points="759.512 1117.0043 769.4187 1176.6855 791.7999 1172.9855 781.9545 1113.2964 759.512 1117.0043"/>
      <polygon id="Lt-24_Mz-11" class="lots" points="781.9545 1113.2964 791.7999 1172.9855 814.181 1169.2853 804.2783 1109.6117 781.9545 1113.2964"/>
      <polygon id="Lt-25_Mz-11" class="lots" points="804.2783 1109.6117 814.181 1169.2853 836.5573 1165.5791 826.7203 1105.9055 804.2783 1109.6117"/>
      <polygon id="Lt-26_Mz-11" class="lots" points="826.7203 1105.9055 836.5573 1165.5791 858.9407 1161.8746 849.0479 1102.2166 826.7203 1105.9055"/>
      <polygon id="Lt-27_Mz-11" class="lots" points="849.0479 1102.2166 858.9407 1161.8746 881.3117 1158.1727 871.4688 1098.5139 849.0479 1102.2166"/>
      <polygon id="Lt-28_Mz-11" class="lots" points="871.4688 1098.5139 881.3117 1158.1727 910.2937 1153.3786 893.7964 1094.8287 871.4688 1098.5139"/>
    </g>
    <g id="Mz-10">
      <polygon id="Lt-1_Mz-10" class="lots" points="1327.7708 711.8544 1344.1958 770.0007 1389.7959 757.1609 1355.2357 704.1207 1327.7708 711.8544"/>
      <polygon id="Lt-2_Mz-10" class="lots" points="1305.9931 717.9868 1322.3555 776.1208 1344.1958 770.0007 1327.7708 711.8544 1305.9931 717.9868"/>
      <polygon id="Lt-3_Mz-10" class="lots" points="1284.1464 724.1449 1300.5157 782.3606 1322.3555 776.1208 1305.9931 717.9868 1284.1464 724.1449"/>
      <polygon id="Lt-4_Mz-10" class="lots" points="1262.2979 730.2944 1278.6759 788.4806 1300.5157 782.3606 1284.1464 724.1449 1262.2979 730.2944"/>
      <polygon id="Lt-5_Mz-10" class="lots" points="1240.466 736.4443 1256.8356 794.6007 1278.6759 788.4806 1262.2979 730.2944 1240.466 736.4443"/>
      <polygon id="Lt-6_Mz-10" class="lots" points="1218.6802 742.5723 1235.1156 800.7208 1256.8356 794.6007 1240.466 736.4443 1218.6802 742.5723"/>
      <polygon id="Lt-7_Mz-10" class="lots" points="1196.8604 748.7214 1213.2757 806.8408 1235.1156 800.7208 1218.6802 742.5723 1196.8604 748.7214"/>
      <polygon id="Lt-8_Mz-10" class="lots" points="1175.0739 754.8567 1191.4355 813.0807 1213.2757 806.8408 1196.8604 748.7214 1175.0739 754.8567"/>
      <polygon id="Lt-9_Mz-10" class="lots" points="1153.2214 761.0116 1169.5957 819.2007 1191.4355 813.0807 1175.0739 754.8567 1153.2214 761.0116"/>
      <polygon id="Lt-10_Mz-10" class="lots" points="1131.392 767.1509 1147.7558 825.3207 1169.5957 819.2007 1153.2214 761.0116 1131.392 767.1509"/>
      <polygon id="Lt-11_Mz-10" class="lots" points="1109.5899 773.288 1125.9156 831.4408 1147.7558 825.3207 1131.392 767.1509 1109.5899 773.288"/>
      <polygon id="Lt-12_Mz-10" class="lots" points="1087.7258 779.4563 1104.0758 837.5608 1125.9156 831.4408 1109.5899 773.288 1087.7258 779.4563"/>
      <polygon id="Lt-13_Mz-10" class="lots" points="1065.8558 785.6047 1082.2355 843.8007 1104.0758 837.5608 1087.7258 779.4563 1065.8558 785.6047"/>
      <polygon id="Lt-14_Mz-10" class="lots" points="1044.0246 791.7621 1060.3957 849.9208 1082.2355 843.8007 1065.8558 785.6047 1044.0246 791.7621"/>
      <polygon id="Lt-15_Mz-10" class="lots" points="1022.1993 797.909 1038.5559 856.0408 1060.3957 849.9208 1044.0246 791.7621 1022.1993 797.909"/>
      <polygon id="Lt-16_Mz-10" class="lots" points="1000.4194 804.0483 1016.8355 862.1609 1038.5559 856.0408 1022.1993 797.909 1000.4194 804.0483"/>
      <polygon id="Lt-17_Mz-10" class="lots" points="978.6275 810.1796 994.9957 868.4007 1016.8355 862.1609 1000.4194 804.0483 978.6275 810.1796"/>
      <polygon id="Lt-18_Mz-10" class="lots" points="956.7778 816.3345 973.1555 874.5207 994.9957 868.4007 978.6275 810.1796 956.7778 816.3345"/>
      <polygon id="Lt-19_Mz-10" class="lots" points="934.947 822.4814 951.3156 880.6408 973.1555 874.5207 956.7778 816.3345 934.947 822.4814"/>
      <polygon id="Lt-20_Mz-10" class="lots" points="913.1174 828.6287 929.4757 886.7609 951.3156 880.6408 934.947 822.4814 913.1174 828.6287"/>
      <polygon id="Lt-21_Mz-10" class="lots" points="891.2833 834.7797 907.6355 892.8805 929.4757 886.7609 913.1174 828.6287 891.2833 834.7797"/>
      <polygon id="Lt-22_Mz-10" class="lots" points="869.4388 840.9302 885.7957 899.1208 907.6355 892.8805 891.2833 834.7797 869.4388 840.9302"/>
      <polygon id="Lt-23_Mz-10" class="lots" points="853.0357 782.6009 869.4388 840.9302 891.2833 834.7797 874.8676 776.4548 853.0357 782.6009"/>
      <rect id="Lt-24_Mz-10" class="lots" x="882.6507" y="772.2474" width="22.6839" height="60.5898" transform="translate(-183.9947 272.2214) rotate(-15.7194)"/>
      <rect id="Lt-25_Mz-10" class="lots" x="904.4856" y="766.1015" width="22.6791" height="60.5865" transform="translate(-181.5122 277.9056) rotate(-15.7194)"/>
      <rect id="Lt-26_Mz-10" class="lots" x="926.3161" y="759.9567" width="22.6816" height="60.5838" transform="translate(-179.0243 283.5768) rotate(-15.7187)"/>
      <polygon id="Lt-27_Mz-10" class="lots" points="940.3686 758.0158 956.7778 816.3345 978.6275 810.1796 962.2317 751.8624 940.3686 758.0158"/>
      <polygon id="Lt-28_Mz-10" class="lots" points="962.2317 751.8624 978.6275 810.1796 1000.4194 804.0483 983.9536 745.7452 962.2317 751.8624"/>
      <polygon id="Lt-29_Mz-10" class="lots" points="983.9536 745.7452 1000.4194 804.0483 1022.1993 797.909 1005.7905 739.598 983.9536 745.7452"/>
      <polygon id="Lt-30_Mz-10" class="lots" points="1005.7905 739.598 1022.1993 797.909 1044.0246 791.7621 1027.6369 733.4485 1005.7905 739.598"/>
      <polygon id="Lt-31_Mz-10" class="lots" points="1027.6369 733.4485 1044.0246 791.7621 1065.8558 785.6047 1049.4503 727.3052 1027.6369 733.4485"/>
      <rect id="Lt-32_Mz-10" class="lots" x="1057.2293" y="723.1005" width="22.715" height="60.5625" transform="translate(-164.1249 317.6254) rotate(-15.7166)"/>
      <polygon id="Lt-33_Mz-10" class="lots" points="1071.3155 721.1608 1087.7258 779.4563 1109.5899 773.288 1093.1502 715.0113 1071.3155 721.1608"/>
      <polygon id="Lt-34_Mz-10" class="lots" points="1093.1502 715.0113 1109.5899 773.288 1131.392 767.1509 1114.9821 708.8616 1093.1502 715.0113"/>
      <rect id="Lt-35_Mz-10" class="lots" x="1122.7632" y="704.6557" width="22.6757" height="60.5586" transform="translate(-156.7249 334.8312) rotate(-15.7233)"/>
      <polygon id="Lt-36_Mz-10" class="lots" points="1136.8085 702.7161 1153.2214 761.0116 1175.0739 754.8567 1158.6756 696.5608 1136.8085 702.7161"/>
      <polygon id="Lt-37_Mz-10" class="lots" points="1158.6756 696.5608 1175.0739 754.8567 1196.8604 748.7214 1180.3956 690.4408 1158.6756 696.5608"/>
      <polygon id="Lt-38_Mz-10" class="lots" points="1180.3956 690.4408 1196.8604 748.7214 1218.6802 742.5723 1202.2358 684.3207 1180.3956 690.4408"/>
      <polygon id="Lt-39_Mz-10" class="lots" points="1202.2358 684.3207 1218.6802 742.5723 1240.466 736.4443 1224.0756 678.2007 1202.2358 684.3207"/>
      <polygon id="Lt-40_Mz-10" class="lots" points="1224.0756 678.2007 1240.466 736.4443 1262.2979 730.2944 1245.8948 672.0102 1224.0756 678.2007"/>
      <polygon id="Lt-41_Mz-10" class="lots" points="1245.8948 672.0102 1262.2979 730.2944 1284.1464 724.1449 1267.7557 665.8408 1245.8948 672.0102"/>
      <polygon id="Lt-42_Mz-10" class="lots" points="1267.7557 665.8408 1284.1464 724.1449 1305.9931 717.9868 1289.5955 659.7207 1267.7557 665.8408"/>
      <polygon id="Lt-43_Mz-10" class="lots" points="1289.5955 659.7207 1305.9931 717.9868 1327.7557 711.8007 1355.2357 704.1207 1320.6757 650.9607 1289.5955 659.7207"/>
    </g>
    <g id="Mz-9">
      <polygon id="Lt-1_Mz-9" class="lots" points="914.1199 471.9338 943.8903 560.673 1023.0736 538.3854 965.4405 526.2615 1043.4908 428.5372 914.1199 471.9338"/>
      <polygon id="Lt-2_Mz-9" class="lots" points="892.6437 479.1393 922.0579 566.8107 943.8903 560.673 914.1199 471.9338 892.6437 479.1393"/>
      <polygon id="Lt-3_Mz-9" class="lots" points="871.1489 486.3489 900.1886 572.9651 922.0579 566.8107 892.6437 479.1393 871.1489 486.3489"/>
      <polygon id="Lt-4_Mz-9" class="lots" points="849.6152 493.573 878.3559 579.1077 900.1886 572.9651 871.1489 486.3489 849.6152 493.573"/>
      <polygon id="Lt-5_Mz-9" class="lots" points="828.139 500.7762 856.5252 585.2503 878.3559 579.1077 849.6152 493.573 828.139 500.7762"/>
      <polygon id="Lt-6_Mz-9" class="lots" points="806.6442 507.9867 834.6558 591.4056 856.5252 585.2503 828.139 500.7762 806.6442 507.9867"/>
      <polygon id="Lt-7_Mz-9" class="lots" points="785.1663 515.1934 812.8237 597.5486 834.6558 591.4056 806.6442 507.9867 785.1663 515.1934"/>
      <polygon id="Lt-8_Mz-9" class="lots" points="1059.6722 335.4962 1076.9221 386.6239 1138.8554 308.9542 1059.6722 335.4962"/>
      <polygon id="Lt-9_Mz-9" class="lots" points="1038.1921 342.6949 1060.0366 407.8165 1076.9221 386.6239 1059.6722 335.4962 1038.1921 342.6949"/>
      <polygon id="Lt-10_Mz-9" class="lots" points="1016.713 349.8968 1043.4908 428.5372 1060.0366 407.8165 1038.1921 342.6949 1016.713 349.8968"/>
      <polygon id="Lt-11_Mz-9" class="lots" points="995.2331 357.0965 1021.6129 435.8761 1043.4908 428.5372 1016.713 349.8968 995.2331 357.0965"/>
      <polygon id="Lt-12_Mz-9" class="lots" points="973.6434 364.329 1000.1344 443.0809 1021.6129 435.8761 995.2331 357.0965 973.6434 364.329"/>
      <rect id="Lt-13_Mz-9" class="lots" x="964.822" y="365.7627" width="22.6549" height="83.0888" transform="translate(-78.9191 332.4931) rotate(-18.5928)"/>
      <polygon id="Lt-14_Mz-9" class="lots" points="930.6819 378.7277 957.1776 457.4905 978.6561 450.2856 952.1639 371.5328 930.6819 378.7277"/>
      <rect id="Lt-15_Mz-9" class="lots" x="921.8637" y="380.163" width="22.6544" height="83.0984" transform="translate(-85.7536 319.5426) rotate(-18.5925)"/>
      <polygon id="Lt-16_Mz-9" class="lots" points="887.6892 393.1471 914.1199 471.9338 935.6991 464.6953 909.205 385.9353 887.6892 393.1471"/>
      <rect id="Lt-17_Mz-9" class="lots" x="878.8391" y="394.5901" width="22.6534" height="83.1042" transform="translate(-92.4945 305.7814) rotate(-18.546)"/>
      <polygon id="Lt-18_Mz-9" class="lots" points="844.7293 407.5487 871.1489 486.3489 892.6437 479.1393 866.2103 400.3487 844.7293 407.5487"/>
      <polygon id="Lt-19_Mz-9" class="lots" points="823.1437 414.7886 849.6152 493.573 871.1489 486.3489 844.7293 407.5487 823.1437 414.7886"/>
      <rect id="Lt-20_Mz-9" class="lots" x="814.3138" y="416.2241" width="22.6532" height="83.1149" transform="translate(-102.8115 286.8339) rotate(-18.5739)"/>
      <polygon id="Lt-21_Mz-9" class="lots" points="780.1838 429.1888 806.6442 507.9867 828.139 500.7762 801.6639 421.9885 780.1838 429.1888"/>
      <rect id="Lt-22_Mz-9" class="lots" x="771.3472" y="430.6267" width="22.6547" height="83.1255" transform="translate(-109.5978 273.7142) rotate(-18.5621)"/>
    </g>
    <g id="Mz-8">
      <polygon id="Lt-1_Mz-8" class="lots" points="1126.3055 201.3774 1145.6226 258.9056 1191.0047 243.6974 1208.7913 221.3796 1194.3707 178.5249 1126.3055 201.3774"/>
      <polygon id="Lt-2_Mz-8" class="lots" points="1104.8293 208.5878 1124.1429 266.1084 1145.6226 258.9056 1126.3055 201.3774 1104.8293 208.5878"/>
      <polygon id="Lt-3_Mz-8" class="lots" points="1083.3485 215.8061 1102.6629 273.3052 1124.1429 266.1084 1104.8293 208.5878 1083.3485 215.8061"/>
      <polygon id="Lt-4_Mz-8" class="lots" points="1061.8165 223.0282 1081.0776 280.5504 1102.6629 273.3052 1083.3485 215.8061 1061.8165 223.0282"/>
      <polygon id="Lt-5_Mz-8" class="lots" points="1040.3308 230.2527 1059.5952 287.7414 1081.0776 280.5504 1061.8165 223.0282 1040.3308 230.2527"/>
      <polygon id="Lt-6_Mz-8" class="lots" points="1018.798 237.4747 1038.1159 294.9427 1059.5952 287.7414 1040.3308 230.2527 1018.798 237.4747"/>
      <polygon id="Lt-7_Mz-8" class="lots" points="997.3237 244.6866 1016.637 302.1406 1038.1159 294.9427 1018.798 237.4747 997.3237 244.6866"/>
      <polygon id="Lt-8_Mz-8" class="lots" points="975.8236 251.8989 995.1191 309.3556 1016.637 302.1406 997.3237 244.6866 975.8236 251.8989"/>
      <polygon id="Lt-9_Mz-8" class="lots" points="954.3515 259.1139 973.6398 316.5569 995.1191 309.3556 975.8236 251.8989 954.3515 259.1139"/>
      <polygon id="Lt-10_Mz-8" class="lots" points="932.8226 266.3447 952.0515 323.7933 973.6398 316.5569 954.3515 259.1139 932.8226 266.3447"/>
      <polygon id="Lt-11_Mz-8" class="lots" points="911.3452 273.5543 930.5703 330.9921 952.0515 323.7933 932.8226 266.3447 911.3452 273.5543"/>
      <polygon id="Lt-12_Mz-8" class="lots" points="889.7978 280.7893 909.0917 338.193 930.5703 330.9921 911.3452 273.5543 889.7978 280.7893"/>
      <polygon id="Lt-13_Mz-8" class="lots" points="868.3189 288.0024 887.6124 345.3931 909.0917 338.193 889.7978 280.7893 868.3189 288.0024"/>
      <rect id="Lt-14_Mz-8" class="lots" x="855.9001" y="290.0267" width="22.6533" height="60.5447" transform="translate(-56.8548 292.9683) rotate(-18.577)"/>
      <polygon id="Lt-15_Mz-8" class="lots" points="803.8731 309.6366 823.1352 367.0054 844.6524 359.7956 825.369 302.4213 803.8731 309.6366"/>
      <polygon id="Lt-16_Mz-8" class="lots" points="825.369 302.4213 844.6524 359.7956 866.1317 352.5944 846.8441 295.2063 825.369 302.4213"/>
      <polygon id="Lt-17_Mz-8" class="lots" points="801.5468 374.2396 823.1352 367.0054 803.8731 309.6366 782.3438 316.8689 801.5468 374.2396"/>
      <polygon id="Lt-18_Mz-8" class="lots" points="737.0852 371.9535 744.3038 393.4286 801.5468 374.2396 794.3518 352.7438 737.0852 371.9535"/>
      <polygon id="Lt-19_Mz-8" class="lots" points="729.8524 350.4443 737.0852 371.9535 794.3524 352.7436 787.1251 331.1537 729.8524 350.4443"/>
      <polygon id="Lt-20_Mz-8" class="lots" points="779.9343 309.6706 722.6356 328.97 729.8524 350.4443 787.1251 331.1537 779.9343 309.6706"/>
      <polygon id="Lt-21_Mz-8" class="lots" points="772.7438 288.1888 715.3839 307.3888 722.6356 328.97 779.9343 309.6706 772.7438 288.1888"/>
      <polygon id="Lt-22_Mz-8" class="lots" points="705.7837 278.8286 715.3839 307.3888 772.7439 288.1887 763.1438 259.5085 705.7837 278.8286"/>
      <polygon id="Lt-23_Mz-8" class="lots" points="763.1438 259.5085 772.7439 288.1887 772.7438 288.1888 772.7439 288.1887 777.9704 303.8035 780.1604 310.3458 782.3444 316.8688 803.8731 309.6366 784.6238 252.3087 763.1438 259.5085"/>
      <polygon id="Lt-24_Mz-8" class="lots" points="784.6238 252.3087 803.8731 309.6366 825.369 302.4213 806.1038 245.1086 784.6238 252.3087"/>
      <polygon id="Lt-25_Mz-8" class="lots" points="806.1038 245.1086 825.369 302.4213 846.8441 295.2063 827.5839 237.9088 806.1038 245.1086"/>
      <rect id="Lt-26_Mz-8" class="lots" x="836.6263" y="232.7338" width="22.6528" height="60.4454" transform="translate(-39.5899 283.8842) rotate(-18.5798)"/>
      <polygon id="Lt-27_Mz-8" class="lots" points="849.0639 230.7086 868.3189 288.0024 889.7978 280.7893 870.544 223.5085 849.0639 230.7086"/>
      <polygon id="Lt-28_Mz-8" class="lots" points="870.544 223.5085 889.7978 280.7893 911.3452 273.5543 892.1437 216.1886 870.544 223.5085"/>
      <polygon id="Lt-29_Mz-8" class="lots" points="892.1437 216.1886 911.3452 273.5543 932.8226 266.3447 913.6237 208.9885 892.1437 216.1886"/>
      <polygon id="Lt-30_Mz-8" class="lots" points="913.6237 208.9885 932.8226 266.3447 954.3515 259.1139 935.1038 201.7887 913.6237 208.9885"/>
      <polygon id="Lt-31_Mz-8" class="lots" points="935.1038 201.7887 954.3515 259.1139 975.8236 251.8989 956.5838 194.5885 935.1038 201.7887"/>
      <polygon id="Lt-32_Mz-8" class="lots" points="956.5838 194.5885 975.8236 251.8989 997.3237 244.6866 978.0638 187.3888 956.5838 194.5885"/>
      <polygon id="Lt-33_Mz-8" class="lots" points="978.0638 187.3888 997.3237 244.6866 1018.798 237.4747 999.5439 180.1886 978.0638 187.3888"/>
      <polygon id="Lt-34_Mz-8" class="lots" points="999.5439 180.1886 1018.798 237.4747 1040.3308 230.2527 1021.1436 172.9888 999.5439 180.1886"/>
      <polygon id="Lt-35_Mz-8" class="lots" points="1021.1436 172.9888 1040.3308 230.2527 1061.8165 223.0282 1042.6236 165.6686 1021.1436 172.9888"/>
      <polygon id="Lt-36_Mz-8" class="lots" points="1042.6236 165.6686 1061.8165 223.0282 1083.3485 215.8061 1064.1037 158.4689 1042.6236 165.6686"/>
      <polygon id="Lt-37_Mz-8" class="lots" points="1064.1037 158.4689 1083.3485 215.8061 1104.8293 208.5878 1085.5837 151.2687 1064.1037 158.4689"/>
      <polygon id="Lt-38_Mz-8" class="lots" points="1085.5837 151.2687 1104.8293 208.5878 1126.3055 201.3774 1107.1164 144.2286 1085.5837 151.2687"/>
      <polygon id="Lt-39_Mz-8" class="lots" points="1107.1164 144.2286 1126.3055 201.3774 1147.836 194.1487 1128.5965 137.0244 1107.1164 144.2286"/>
      <polygon id="Lt-40_Mz-8" class="lots" points="1128.5965 137.0244 1147.8363 194.1495 1169.3129 186.9379 1150.0747 129.8235 1128.5965 137.0244"/>
      <polygon id="Lt-41_Mz-8" class="lots" points="1150.0747 129.8235 1169.3129 186.9379 1194.372 178.5244 1175.1516 121.4101 1150.0747 129.8235"/>
      <polygon id="Lt-42_Mz-8" class="lots" points="1175.1516 121.4101 1194.372 178.5244 1208.7913 221.3796 1228.383 196.8678 1200.264 112.9921 1175.1516 121.4101"/>
      <polygon id="Lt-43_Mz-8" class="lots" points="1200.264 112.9921 1228.383 196.8678 1248.0493 172.2223 1225.3391 104.5746 1200.264 112.9921"/>
      <polygon id="Lt-44_Mz-8" class="lots" points="1225.3391 104.5746 1248.0493 172.2223 1267.7178 147.5907 1250.4174 96.1716 1225.3391 104.5746"/>
      <polygon id="Lt-45_Mz-8" class="lots" points="1250.4174 96.1716 1267.7178 147.5907 1330.0847 69.4574 1250.4174 96.1716"/>
    </g>
    <g id="Mz-7">
      <polygon id="Lt-1_Mz-7" class="lots" points="1213.064 27.6721 1223.1429 57.5525 1327.2969 22.5922 1325.7709 18.6405 1213.064 27.6721"/>
      <polygon id="Lt-2_Mz-7" class="lots" points="1168.397 31.2517 1181.8476 71.4141 1223.1429 57.5525 1213.064 27.6721 1168.397 31.2517"/>
      <polygon id="Lt-3_Mz-7" class="lots" points="1133.5084 34.0475 1149.6834 82.2101 1181.8476 71.4141 1168.397 31.2517 1133.5084 34.0475"/>
      <polygon id="Lt-4_Mz-7" class="lots" points="1102.8865 36.5015 1121.4871 91.6743 1149.6834 82.2101 1133.5084 34.0475 1102.8865 36.5015"/>
      <polygon id="Lt-5_Mz-7" class="lots" points="1079.6281 38.3652 1100.0012 98.8866 1121.4871 91.6743 1102.8865 36.5015 1079.6281 38.3652"/>
      <polygon id="Lt-6_Mz-7" class="lots" points="1056.3293 40.232 1078.4503 106.1204 1100.0012 98.8866 1079.6281 38.3652 1056.3293 40.232"/>
      <polygon id="Lt-7_Mz-7" class="lots" points="1033.0705 42.0962 1056.9388 113.3408 1078.4503 106.1204 1056.3293 40.232 1033.0705 42.0962"/>
      <polygon id="Lt-8_Mz-7" class="lots" points="1035.4626 120.5494 1056.9388 113.3408 1033.0705 42.0962 1009.7728 43.9631 1035.4626 120.5494"/>
      <polygon id="Lt-9_Mz-7" class="lots" points="994.6704 70.1426 1013.9865 127.7582 1035.4626 120.5494 1016.129 62.9121 994.6704 70.1426"/>
      <polygon id="Lt-10_Mz-7" class="lots" points="973.0666 77.3787 992.5032 134.9692 1013.9865 127.7582 994.6704 70.1426 973.0666 77.3787"/>
      <polygon id="Lt-11_Mz-7" class="lots" points="951.5963 84.611 970.9997 142.1874 992.5032 134.9692 973.0666 77.3787 951.5963 84.611"/>
      <polygon id="Lt-12_Mz-7" class="lots" points="930.1311 91.8208 949.3838 149.2287 970.9997 142.1874 951.5963 84.611 930.1311 91.8208"/>
      <polygon id="Lt-13_Mz-7" class="lots" points="908.1556 99.2059 927.8508 156.6705 949.3838 149.2287 930.1311 91.8208 908.1556 99.2059"/>
      <polygon id="Lt-14_Mz-7" class="lots" points="887.1709 106.241 906.4409 163.8075 927.8508 156.6705 908.651 99.0408 887.1709 106.241"/>
      <polygon id="Lt-15_Mz-7" class="lots" points="865.6236 113.4687 884.9233 171.0852 906.3736 163.8357 887.1037 106.2692 865.6236 113.4687"/>
      <polygon id="Lt-16_Mz-7" class="lots" points="844.2312 120.7006 863.4889 178.2743 884.9905 171.057 865.6909 113.4405 844.2312 120.7006"/>
      <polygon id="Lt-17_Mz-7" class="lots" points="822.6109 127.9606 842.0374 185.4747 863.4889 178.2743 844.2312 120.7006 822.6109 127.9606"/>
      <polygon id="Lt-18_Mz-7" class="lots" points="801.1312 135.1606 820.5562 192.685 842.0374 185.4747 822.6109 127.9606 801.1312 135.1606"/>
      <polygon id="Lt-19_Mz-7" class="lots" points="779.63 142.2903 798.9309 199.9438 820.5562 192.685 801.1312 135.1606 779.63 142.2903"/>
      <polygon id="Lt-20_Mz-7" class="lots" points="758.1981 149.5616 777.4425 207.1564 798.9309 199.9438 779.63 142.2903 758.1981 149.5616"/>
      <polygon id="Lt-21_Mz-7" class="lots" points="736.635 156.8055 755.9526 214.3699 777.4425 207.1564 758.1981 149.5616 736.635 156.8055"/>
      <polygon id="Lt-22_Mz-7" class="lots" points="715.1525 164.0033 734.5203 221.5641 755.9526 214.3699 736.635 156.8055 715.1525 164.0033"/>
      <polygon id="Lt-23_Mz-7" class="lots" points="693.6811 171.2351 713.0282 228.7778 734.5203 221.5641 715.1525 164.0033 693.6811 171.2351"/>
      <polygon id="Lt-24_Mz-7" class="lots" points="672.0108 178.515 691.4282 235.9529 713.0282 228.7778 693.6811 171.2351 672.0108 178.515"/>
      <polygon id="Lt-25_Mz-7" class="lots" points="652.8109 121.7207 672.0108 178.515 693.6811 171.2351 674.5772 114.4149 652.8109 121.7207"/>
      <polygon id="Lt-26_Mz-7" class="lots" points="674.5772 114.4149 693.6811 171.2351 715.1525 164.0033 696.0545 107.2063 674.5772 114.4149"/>
      <polygon id="Lt-27_Mz-7" class="lots" points="696.0545 107.2063 715.1525 164.0033 736.635 156.8055 717.5675 99.9855 696.0545 107.2063"/>
      <polygon id="Lt-28_Mz-7" class="lots" points="717.5675 99.9855 736.635 156.8055 758.1981 149.5616 739.1814 92.7309 717.5675 99.9855"/>
      <polygon id="Lt-29_Mz-7" class="lots" points="739.1814 92.7309 758.1981 149.5616 779.63 142.2903 760.6181 85.4991 739.1814 92.7309"/>
      <polygon id="Lt-30_Mz-7" class="lots" points="845.1824 57.1525 760.6181 85.4991 779.63 142.2903 1016.1293 62.912 1009.7728 43.9631 845.1824 57.1525"/>
    </g>
    <g id="Mz-6">
      <polyline id="Lt-1_Mz-6" class="lots" points="629.1038 192.9087 629.1038 192.9087 629.1038 192.9087 607.6284 200.1181 626.867 257.5963 648.3038 250.2687 629.1038 192.9087"/>
      <polyline id="Lt-2_Mz-6" class="lots" points="607.6284 200.1181 586.0917 207.3394 605.3438 264.6686 605.3438 264.6686 605.3438 264.6686 626.867 257.5963 626.867 257.5963 626.867 257.5963 607.6284 200.1181"/>
      <polygon id="Lt-3_Mz-6" class="lots" points="586.0917 207.3394 564.6047 214.5749 583.8638 271.8687 605.3438 264.6686 586.0917 207.3394"/>
      <line id="Lt-4_Mz-6" class="lots" x1="564.3736" y1="280.7581" x2="564.3753" y2="280.7631"/>
      <rect id="Lt-4_Mz-6-2" data-name="Lt-4_Mz-6" class="lots" x="552.1647" y="216.5873" width="22.6579" height="60.4564" transform="translate(-49.2732 192.4117) rotate(-18.5802)"/>
      <polyline id="Lt-5_Mz-6" class="lots" points="543.1212 221.7656 522.3779 229.4164 522.3797 229.4219 522.3749 229.4236 541.6293 286.7484 562.4332 279.7535 543.1212 221.7656"/>
      <polyline id="Lt-6_Mz-6" class="lots" points="521.5961 229.6847 500.8966 236.6254 520.1693 293.9324 519.4642 294.1687 519.465 294.1714 541.6312 286.7539 541.6293 286.7484 540.9611 286.9731 521.5961 229.6847"/>
      <polyline id="Lt-7_Mz-6" class="lots" points="500.2169 236.8534 479.3562 243.8548 498.5351 301.1853 519.4642 294.1687 500.2169 236.8534"/>
      <polyline id="Lt-8_Mz-6" class="lots" points="478.664 244.087 457.8848 251.0311 477.0647 308.3993 498.5396 301.1987 498.5351 301.1853 497.7452 301.4501 478.664 244.087"/>
      <polyline id="Lt-9_Mz-6" class="lots" points="457.1911 251.2757 436.3411 258.2899 455.582 315.6056 477.0665 308.4047 477.0647 308.3993 476.3662 308.6335 457.1911 251.2757"/>
      <polyline id="Lt-10_Mz-6" class="lots" points="435.6594 258.5211 414.864 265.5001 434.1075 322.8096 433.4242 323.0388 433.4246 323.0399 455.5825 315.6069 455.582 315.6056 454.9025 315.8332 435.6594 258.5211"/>
      <polyline id="Lt-11_Mz-6" class="lots" points="414.1786 265.729 393.3731 272.7211 412.626 330.0137 411.9426 330.2429 411.9439 330.2466 433.4242 323.0388 414.1791 265.73 414.179 265.73"/>
      <polyline id="Lt-12_Mz-6" class="lots" points="392.6767 272.9403 371.8995 279.947 391.1492 337.2198 390.4658 337.4491 390.466 337.4496 411.9426 330.2429 392.6884 272.9512 392.6812 272.9536 392.6767 272.9403"/>
      <polyline id="Lt-13_Mz-6" class="lots" points="371.2124 280.1632 350.4194 287.1396 369.675 344.4231 390.4658 337.4491 371.2124 280.1632"/>
      <polyline id="Lt-14_Mz-6" class="lots" points="349.7124 287.354 328.8741 294.3259 348.0847 351.6654 369.676 344.4261 369.675 344.4231 368.991 344.6526 349.7352 287.3691 349.7193 287.3745 349.7124 287.354"/>
      <polyline id="Lt-15_Mz-6" class="lots" points="328.1952 294.5852 307.3337 301.5886 326.5693 358.8807 325.8913 359.1081 325.8933 359.114 348.0859 351.6689 348.0847 351.6654 347.4009 351.8946 328.1952 294.5852"/>
      <polyline id="Lt-16_Mz-6" class="lots" points="306.6066 301.1398 285.1838 308.3487 304.4098 366.316 304.4098 366.316 304.4098 366.316 325.8913 359.1081 306.6066 301.1398"/>
      <polygon id="Lt-17_Mz-6" class="lots" points="261.5438 316.2687 252.1372 383.8509 304.4098 366.316 285.1838 308.3487 261.5438 316.2687"/>
      <polyline id="Lt-18_Mz-6" class="lots" points="287.7435 243.654 270.8101 249.4377 261.5438 316.2687 261.5438 316.2687 261.5438 316.2687 285.4613 308.17 306.6066 301.1398 287.177 243.8555 287.7469 243.6641 287.7435 243.654"/>
      <polyline id="Lt-19_Mz-6" class="lots" points="308.7677 236.6047 287.7469 243.6641 307.1372 300.896 327.9636 293.9067 308.7677 236.6047"/>
      <polyline id="Lt-20_Mz-6" class="lots" points="330.9065 229.1426 308.7574 236.5738 308.7677 236.6047 309.4529 236.3746 328.651 293.673 349.4867 286.6819 330.2432 229.3705 330.9084 229.1482 330.9065 229.1426"/>
      <polyline id="Lt-21_Mz-6" class="lots" points="352.4256 221.9589 330.9084 229.1482 350.1661 286.4521 370.9788 279.4681 370.978 279.4658 370.9818 279.4645 351.7222 222.1993 352.4269 221.9626 352.4256 221.9589"/>
      <polyline id="Lt-22_Mz-6" class="lots" points="373.2047 214.9845 352.4269 221.9626 371.6459 279.2417 392.4488 272.2621 373.2047 214.9845"/>
      <polyline id="Lt-23_Mz-6" class="lots" points="395.4064 207.5021 373.1989 214.9674 373.2047 214.9845 373.8995 214.7511 393.1321 272.0311 413.9501 265.048 413.9493 265.0456 394.7246 207.7405 395.4093 207.5106 395.4064 207.5021"/>
      <polyline id="Lt-24_Mz-6" class="lots" points="416.1908 200.5345 395.4093 207.5106 414.6362 264.8151 435.4302 257.8345 416.1908 200.5345"/>
      <polyline id="Lt-25_Mz-6" class="lots" points="438.4422 193.048 416.1887 200.5284 416.1908 200.5345 416.8835 200.302 436.109 257.6066 436.1114 257.6058 456.9266 250.631 437.7771 193.2776 438.4442 193.0539 438.4422 193.048"/>
      <polyline id="Lt-26_Mz-6" class="lots" points="459.2505 186.0771 438.4442 193.0539 457.6165 250.2537 478.4399 243.4134 478.4362 243.4022 478.4378 243.4017 459.2505 186.0771"/>
      <polyline id="Lt-27_Mz-6" class="lots" points="480.9017 178.8628 459.2477 186.0688 459.2505 186.0771 459.9476 185.8435 479.1181 243.1736 500.1661 236.1848 480.9038 178.8687 480.9038 178.8687 480.9017 178.8628"/>
      <polyline id="Lt-28_Mz-6" class="lots" points="502.3838 171.6686 480.9038 178.8687 500.1661 236.1848 521.6457 228.9731 521.6447 228.9703 521.6447 228.9703 502.3838 171.6686"/>
      <polyline id="Lt-29_Mz-6" class="lots" points="523.8638 164.4687 502.3838 171.6686 502.3838 171.6686 502.3838 171.6686 521.6457 228.9731 543.1212 221.7656 543.1212 221.7656 543.1212 221.7656 523.8638 164.4687"/>
      <polyline id="Lt-30_Mz-6" class="lots" points="545.1776 157.2434 523.8638 164.4687 523.8638 164.4687 523.8638 164.4687 543.1212 221.7656 564.6061 214.559 545.1776 157.2434 545.1776 157.2434 545.1776 157.2434"/>
      <polygon id="Lt-31_Mz-6" class="lots" points="566.8238 149.9487 545.1776 157.2434 564.5977 214.5573 564.6047 214.555 564.6061 214.559 586.0897 207.3441 586.0917 207.3394 586.0917 207.3394 566.8238 149.9487"/>
      <polygon id="Lt-32_Mz-6" class="lots" points="566.8238 149.9487 586.0917 207.3394 607.6284 200.1181 588.4238 142.7487 566.8238 149.9487"/>
      <polygon id="Lt-33_Mz-6" class="lots" points="629.1038 192.9087 609.9038 135.5486 588.4238 142.7487 607.6284 200.1181 629.1038 192.9087"/>
    </g>
    <g id="Mz-5">
      <polyline id="Lt-1_Mz-5" class="lots" points="693.9683 386.2491 636.7287 405.5688 643.897 426.9557 701.1684 407.729 693.9683 386.2491"/>
      <polyline id="Lt-2_Mz-5" class="lots" points="686.7686 364.769 629.4743 383.9715 636.7287 405.5688 693.9683 386.2491 686.7686 364.769"/>
      <polyline id="Lt-3_Mz-5" class="lots" points="679.5685 343.2889 622.2459 362.4763 624.6619 369.6719 624.6403 369.6791 624.6619 369.6719 627.9802 379.5539 629.4743 383.9715 686.7686 364.769 679.5685 343.2889"/>
      <polyline id="Lt-4_Mz-5" class="lots" points="672.3775 321.8061 615.035 341.0001 622.2459 362.4763 679.5685 343.2889 672.3775 321.8061"/>
      <polyline id="Lt-5_Mz-5" class="lots" points="662.7684 293.1289 605.4245 312.3769 615.035 341.0001 672.3775 321.8061 662.7684 293.1289"/>
      <polyline id="Lt-6_Mz-5" class="lots" points="624.6403 369.6791 603.1821 376.8796 622.4205 434.1658 643.897 426.9557 627.9802 379.5539 624.6403 369.6791"/>
      <polyline id="Lt-7_Mz-5" class="lots" points="603.1821 376.8796 603.1821 376.8796 581.7048 384.3165 600.8361 441.4117 622.4205 434.1658 603.1821 376.8796"/>
      <polyline id="Lt-8_Mz-5" class="lots" points="581.6188 384.1164 560.1602 391.3249 579.3685 448.6489 600.8361 441.4117 581.7048 384.3165 581.6878 384.3224 581.6188 384.1164"/>
      <polyline id="Lt-9_Mz-5" class="lots" points="560.1602 391.3249 538.6275 398.5572 557.8884 455.849 579.3685 448.6489 560.1602 391.3249"/>
      <polyline id="Lt-10_Mz-5" class="lots" points="538.6275 398.5572 517.1531 405.7689 536.4086 463.0491 557.8884 455.849 538.6275 398.5572"/>
      <polyline id="Lt-11_Mz-5" class="lots" points="517.1531 405.7689 495.6552 412.9729 514.8968 470.2723 536.4086 463.0491 517.1531 405.7689"/>
      <polyline id="Lt-12_Mz-5" class="lots" points="495.6552 412.9729 474.19 420.1885 493.4277 477.4659 514.8968 470.2723 495.6552 412.9729"/>
      <polyline id="Lt-13_Mz-5" class="lots" points="474.19 420.1885 452.7014 427.396 471.9346 484.6872 493.4277 477.4659 474.19 420.1885"/>
      <polyline id="Lt-14_Mz-5" class="lots" points="452.7014 427.396 431.1725 434.6312 450.3596 491.9332 471.9346 484.6872 452.7014 427.396"/>
      <polyline id="Lt-15_Mz-5" class="lots" points="431.1725 434.6312 409.642 441.8729 428.8811 499.1388 450.3596 491.9332 431.1725 434.6312"/>
      <polyline id="Lt-16_Mz-5" class="lots" points="409.642 441.8729 388.1361 449.0665 407.4025 506.3475 428.8811 499.1388 409.642 441.8729"/>
      <polyline id="Lt-17_Mz-5" class="lots" points="388.1361 449.0665 366.6785 456.2811 385.925 513.5592 407.4025 506.3475 388.1361 449.0665"/>
      <polyline id="Lt-18_Mz-5" class="lots" points="366.6785 456.2811 345.1797 463.4857 364.4223 520.7787 385.925 513.5592 366.6785 456.2811"/>
      <polyline id="Lt-19_Mz-5" class="lots" points="345.1797 463.4857 323.7037 470.6948 342.9463 527.9913 364.4223 520.7787 345.1797 463.4857"/>
      <polyline id="Lt-20_Mz-5" class="lots" points="323.7037 470.6948 302.171 477.9242 321.358 535.2368 342.9463 527.9913 323.7037 470.6948"/>
      <polyline id="Lt-21_Mz-5" class="lots" points="302.171 477.9242 280.7028 485.1291 299.8747 542.4486 321.358 535.2368 302.171 477.9242"/>
      <polyline id="Lt-22_Mz-5" class="lots" points="280.7028 485.1291 280.7028 485.1291 259.2131 492.3426 278.3991 549.6577 299.8747 542.4486 280.7028 485.1291"/>
      <polyline id="Lt-23_Mz-5" class="lots" points="259.2131 492.3426 248.5286 495.9291 247.2086 560.129 278.3991 549.6577 259.2131 492.3426"/>
      <polyline id="Lt-24_Mz-5" class="lots" points="261.5277 427.8236 249.8486 431.7291 248.5286 495.9291 259.2085 492.3288 280.7028 485.1291 261.5277 427.8236"/>
      <polyline id="Lt-25_Mz-5" class="lots" points="282.9814 420.6077 261.5277 427.8236 280.7028 485.1291 302.171 477.9242 282.9814 420.6077"/>
      <polyline id="Lt-26_Mz-5" class="lots" points="304.4586 413.3989 282.9814 420.6077 302.171 477.9242 323.7037 470.6948 304.4586 413.3989"/>
      <polyline id="Lt-27_Mz-5" class="lots" points="325.9355 406.1898 304.4586 413.3989 323.7037 470.6948 345.1797 463.4857 325.9355 406.1898"/>
      <polyline id="Lt-28_Mz-5" class="lots" points="347.4124 398.9811 325.9355 406.1898 345.1797 463.4857 366.6785 456.2811 347.4124 398.9811"/>
      <polyline id="Lt-29_Mz-5" class="lots" points="368.8893 391.772 347.4124 398.9811 366.6785 456.2811 388.1361 449.0665 368.8893 391.772"/>
      <polyline id="Lt-30_Mz-5" class="lots" points="390.3666 384.5631 368.8893 391.772 388.1361 449.0665 409.642 441.8729 390.3666 384.5631"/>
      <polyline id="Lt-31_Mz-5" class="lots" points="411.9874 377.3057 390.3666 384.5631 409.642 441.8729 431.1725 434.6312 411.9874 377.3057"/>
      <polyline id="Lt-32_Mz-5" class="lots" points="433.4646 370.0969 411.9874 377.3057 431.1725 434.6312 452.7014 427.396 433.4646 370.0969"/>
      <polyline id="Lt-33_Mz-5" class="lots" points="454.9415 362.8881 433.4646 370.0969 452.7014 427.396 474.19 420.1885 454.9415 362.8881"/>
      <polyline id="Lt-34_Mz-5" class="lots" points="476.474 355.7787 454.9415 362.8881 474.19 420.1885 495.6552 412.9729 476.474 355.7787"/>
      <polyline id="Lt-35_Mz-5" class="lots" points="497.9509 348.5696 476.474 355.7787 495.6552 412.9729 517.1531 405.7689 497.9509 348.5696"/>
      <polyline id="Lt-36_Mz-5" class="lots" points="519.4278 341.3608 497.9509 348.5696 517.1531 405.7689 538.6275 398.5572 519.4278 341.3608"/>
      <polyline id="Lt-37_Mz-5" class="lots" points="540.9573 334.0159 519.4278 341.3608 538.6275 398.5572 560.1602 391.3249 540.9573 334.0159"/>
      <polyline id="Lt-38_Mz-5" class="lots" points="562.4346 326.8071 540.9573 334.0159 560.1602 391.3249 581.6188 384.1164 562.4346 326.8071"/>
      <polyline id="Lt-39_Mz-5" class="lots" points="583.9476 319.5861 562.4346 326.8071 581.6358 384.1107 581.6188 384.1164 581.6358 384.1107 603.1821 376.8796 583.9476 319.5861"/>
      <polyline id="Lt-40_Mz-5" class="lots" points="605.4245 312.3769 583.9476 319.5861 603.1821 376.8796 624.6403 369.6791 622.2084 362.4889 622.2459 362.4763 622.2084 362.4889 615.0084 341.009 615.035 341.0001 615.0084 341.009 605.4245 312.3769"/>
    </g>
    <g id="Mz-4">
      <polyline id="Lt-1_Mz-4" class="lots" points="742.1437 529.7488 720.6832 536.9509 747.1566 615.9462 769.0239 609.7888 742.1437 529.7488"/>
      <polyline id="Lt-2_Mz-4" class="lots" points="720.6832 536.9509 699.1549 544.1761 725.3233 622.0912 747.1566 615.9462 720.6832 536.9509"/>
      <polyline id="Lt-3_Mz-4" class="lots" points="699.1549 544.1761 677.6779 551.3865 703.4939 628.241 725.3233 622.0912 699.1549 544.1761"/>
      <polyline id="Lt-4_Mz-4" class="lots" points="677.6779 551.3865 656.1882 558.6032 681.6258 634.4007 703.4939 628.241 677.6779 551.3865"/>
      <polyline id="Lt-5_Mz-4" class="lots" points="656.1882 558.6032 634.7086 565.8072 659.7965 640.5452 681.6258 634.4007 656.1882 558.6032"/>
      <polyline id="Lt-6_Mz-4" class="lots" points="634.7086 565.8072 613.2161 573.0254 637.9699 646.6949 659.7965 640.5452 634.7086 565.8072"/>
      <polyline id="Lt-7_Mz-4" class="lots" points="613.2161 573.0254 591.7394 580.2323 616.1315 652.8368 637.9699 646.6949 613.2161 573.0254"/>
      <polyline id="Lt-8_Mz-4" class="lots" points="591.7394 580.2323 570.1922 587.4655 594.1586 659.0381 616.1315 652.8368 591.7394 580.2323"/>
      <polyline id="Lt-9_Mz-4" class="lots" points="570.1922 587.4655 548.6633 594.6953 572.3303 665.1766 594.1586 659.0381 570.1922 587.4655"/>
      <polyline id="Lt-10_Mz-4" class="lots" points="548.6633 594.6953 527.2064 601.9495 550.4948 671.3245 572.3303 665.1766 548.6633 594.6953"/>
      <polyline id="Lt-11_Mz-4" class="lots" points="527.2064 601.9495 505.694 609.1136 528.6281 677.483 550.4948 671.3245 527.2064 601.9495"/>
      <polyline id="Lt-12_Mz-4" class="lots" points="505.694 609.1136 484.2293 616.3165 506.7976 683.634 528.6281 677.483 505.694 609.1136"/>
      <polyline id="Lt-13_Mz-4" class="lots" points="484.2293 616.3165 462.7401 623.534 484.9657 689.7789 506.7976 683.634 484.2293 616.3165"/>
      <polyline id="Lt-14_Mz-4" class="lots" points="462.7401 623.534 441.245 630.7472 463.1389 695.9279 484.9657 689.7789 462.7401 623.534"/>
      <polyline id="Lt-15_Mz-4" class="lots" points="441.245 630.7472 419.7017 637.9908 441.2761 702.0828 463.1389 695.9279 441.245 630.7472"/>
      <polyline id="Lt-16_Mz-4" class="lots" points="419.7017 637.9908 398.1667 645.2079 419.3275 708.2634 441.2761 702.0828 419.7017 637.9908"/>
      <polyline id="Lt-17_Mz-4" class="lots" points="398.1667 645.2079 376.6936 652.417 397.5039 714.4288 419.3275 708.2634 398.1667 645.2079"/>
      <polyline id="Lt-18_Mz-4" class="lots" points="376.6936 652.417 355.2101 659.6211 375.6672 720.5588 397.5039 714.4288 376.6936 652.417"/>
      <polyline id="Lt-19_Mz-4" class="lots" points="355.2101 659.6211 333.7229 666.8404 353.7998 726.7173 375.6672 720.5588 355.2101 659.6211"/>
      <polyline id="Lt-20_Mz-4" class="lots" points="333.7229 666.8404 312.2434 674.0521 331.9685 732.8663 353.7998 726.7173 333.7229 666.8404"/>
      <polyline id="Lt-21_Mz-4" class="lots" points="312.2434 674.0521 290.75 681.2569 310.1437 739.0286 331.9685 732.8663 312.2434 674.0521"/>
      <polyline id="Lt-22_Mz-4" class="lots" points="290.75 681.2569 269.2237 688.5086 288.2694 745.1738 310.1437 739.0286 290.75 681.2569"/>
      <polyline id="Lt-23_Mz-4" class="lots" points="269.2237 688.5086 244.5039 696.7887 243.1837 757.8688 288.2694 745.1738 269.2237 688.5086"/>
      <polyline id="Lt-24_Mz-4" class="lots" points="264.3038 602.4686 246.3039 608.4686 244.5039 696.7887 290.75 681.2569 264.3038 602.4686"/>
      <polyline id="Lt-25_Mz-4" class="lots" points="285.7839 595.1488 264.3038 602.4686 290.75 681.2569 312.2434 674.0521 285.7839 595.1488"/>
      <polyline id="Lt-26_Mz-4" class="lots" points="307.2637 587.9487 285.7839 595.1488 312.2434 674.0521 333.7229 666.8404 307.2637 587.9487"/>
      <polyline id="Lt-27_Mz-4" class="lots" points="328.7438 580.7486 307.2637 587.9487 333.7229 666.8404 355.2101 659.6211 328.7438 580.7486"/>
      <polyline id="Lt-28_Mz-4" class="lots" points="350.2239 573.5486 328.7438 580.7486 355.2101 659.6211 376.6936 652.417 350.2239 573.5486"/>
      <polyline id="Lt-29_Mz-4" class="lots" points="371.7037 566.3488 350.2239 573.5486 376.6936 652.417 398.1667 645.2079 371.7037 566.3488"/>
      <polyline id="Lt-30_Mz-4" class="lots" points="393.1838 559.1487 371.7037 566.3488 398.1667 645.2079 419.7017 637.9908 393.1838 559.1487"/>
      <polyline id="Lt-31_Mz-4" class="lots" points="414.7837 551.9486 393.1838 559.1487 419.7017 637.9908 441.245 630.7472 414.7837 551.9486"/>
      <polyline id="Lt-32_Mz-4" class="lots" points="436.2871 544.7058 414.7837 551.9486 441.245 630.7472 462.7401 623.534 436.2871 544.7058"/>
      <polyline id="Lt-33_Mz-4" class="lots" points="457.7867 537.5046 436.2871 544.7058 462.7401 623.534 484.2293 616.3165 457.7867 537.5046"/>
      <polyline id="Lt-34_Mz-4" class="lots" points="479.2238 530.2286 457.7867 537.5046 484.2293 616.3165 505.694 609.1136 479.2238 530.2286"/>
      <polyline id="Lt-35_Mz-4" class="lots" points="500.7039 523.0286 479.2238 530.2286 505.694 609.1136 527.2064 601.9495 500.7039 523.0286"/>
      <polyline id="Lt-36_Mz-4" class="lots" points="522.1837 515.8288 500.7039 523.0286 527.2064 601.9495 548.6633 594.6953 522.1837 515.8288"/>
      <polyline id="Lt-37_Mz-4" class="lots" points="543.7839 508.6288 522.1837 515.8288 548.6633 594.6953 570.1922 587.4655 543.7839 508.6288"/>
      <polyline id="Lt-38_Mz-4" class="lots" points="565.2637 501.4287 543.7839 508.6288 570.1922 587.4655 591.7394 580.2323 565.2648 501.442 565.2678 501.4409 565.2637 501.4287"/>
      <polyline id="Lt-39_Mz-4" class="lots" points="586.7438 494.2289 565.2678 501.4409 591.7394 580.2323 613.2161 573.0254 586.7438 494.2289"/>
      <polyline id="Lt-40_Mz-4" class="lots" points="608.2477 486.9919 586.7438 494.2289 613.2161 573.0254 634.7086 565.8072 608.2477 486.9919"/>
      <polyline id="Lt-41_Mz-4" class="lots" points="629.7363 479.7786 608.2477 486.9919 634.7086 565.8072 656.1882 558.6032 629.7363 479.7786"/>
      <polyline id="Lt-42_Mz-4" class="lots" points="651.2034 472.5698 629.7363 479.7786 656.1882 558.6032 677.6779 551.3865 651.2034 472.5698"/>
      <polyline id="Lt-43_Mz-4" class="lots" points="672.6823 465.361 651.2034 472.5698 677.6779 551.3865 699.1549 544.1761 672.6823 465.361"/>
      <polyline id="Lt-44_Mz-4" class="lots" points="694.2639 458.1088 672.6823 465.361 699.1549 544.1761 720.6832 536.9509 694.2639 458.1088"/>
      <polyline id="Lt-45_Mz-4" class="lots" points="715.7437 450.9087 694.2639 458.1088 720.6832 536.9509 742.1763 529.7372 715.7437 450.9087"/>
    </g>
    <g id="Mz-3">
      <polygon id="Lt-1_Mz-3" class="lots" points="803.8988 859.1888 820.2638 917.3486 842.1037 911.2288 825.7269 853.0416 803.8988 859.1888"/>
      <polygon id="Lt-2_Mz-3" class="lots" points="782.1101 865.344 798.5173 923.4993 820.2638 917.3486 803.8988 859.1888 782.1101 865.344"/>
      <polygon id="Lt-3_Mz-3" class="lots" points="760.321 871.4628 776.6984 929.6341 798.5173 923.4993 782.1101 865.344 760.321 871.4628"/>
      <polygon id="Lt-4_Mz-3" class="lots" points="738.485 877.6182 754.8549 935.7971 776.6984 929.6341 760.321 871.4628 738.485 877.6182"/>
      <rect id="Lt-5_Mz-3" class="lots" x="724.4108" y="879.5605" width="22.6833" height="60.439" transform="translate(-218.9576 233.3482) rotate(-15.7187)"/>
      <polygon id="Lt-6_Mz-3" class="lots" points="694.8164 889.9112 711.1839 948.0685 733.0219 941.9423 716.6478 883.7626 694.8164 889.9112"/>
      <polygon id="Lt-7_Mz-3" class="lots" points="672.9713 896.0643 689.327 954.242 711.1839 948.0685 694.8164 889.9112 672.9713 896.0643"/>
      <polygon id="Lt-8_Mz-3" class="lots" points="651.1188 902.219 667.4926 960.3917 689.327 954.242 672.9713 896.0643 651.1188 902.219"/>
      <polygon id="Lt-9_Mz-3" class="lots" points="629.2896 908.3667 645.6638 966.5486 667.4926 960.3917 651.1188 902.219 629.2896 908.3667"/>
      <polygon id="Lt-10_Mz-3" class="lots" points="607.4633 914.5275 623.8289 972.685 645.6638 966.5486 629.2896 908.3667 607.4633 914.5275"/>
      <polygon id="Lt-11_Mz-3" class="lots" points="585.6514 920.6788 601.9945 978.83 623.8289 972.685 607.4633 914.5275 585.6514 920.6788"/>
      <polygon id="Lt-12_Mz-3" class="lots" points="563.8224 926.8097 580.2482 984.9576 601.9945 978.83 585.6514 920.6788 563.8224 926.8097"/>
      <polygon id="Lt-13_Mz-3" class="lots" points="542.049 932.9374 558.4113 991.1085 580.2482 984.9576 563.8224 926.8097 542.049 932.9374"/>
      <rect id="Lt-14_Mz-3" class="lots" x="527.9738" y="934.879" width="22.68" height="60.4296" transform="translate(-241.182 182.0921) rotate(-15.7108)"/>
      <polygon id="Lt-15_Mz-3" class="lots" points="498.3898 945.2707 514.7437 1003.3887 536.5793 997.2512 520.2157 939.0781 498.3898 945.2707"/>
      <polygon id="Lt-16_Mz-3" class="lots" points="476.5366 951.4082 492.8845 1009.5571 514.7437 1003.3887 498.3898 945.2707 476.5366 951.4082"/>
      <polygon id="Lt-17_Mz-3" class="lots" points="454.6891 957.5448 471.0552 1015.7068 492.8845 1009.5571 476.5366 951.4082 454.6891 957.5448"/>
      <rect id="Lt-18_Mz-3" class="lots" x="440.6094" y="959.4884" width="22.6869" height="60.4204" transform="translate(-251.2856 159.5056) rotate(-15.7231)"/>
      <polygon id="Lt-19_Mz-3" class="lots" points="411.0218 969.835 427.3852 1027.9977 449.2201 1021.8511 432.847 963.6918 411.0218 969.835"/>
      <polygon id="Lt-20_Mz-3" class="lots" points="389.1926 975.9655 405.5519 1034.1451 427.3852 1027.9977 411.0218 969.835 389.1926 975.9655"/>
      <polygon id="Lt-21_Mz-3" class="lots" points="367.3489 982.1405 383.6865 1040.2897 405.5519 1034.1451 389.1926 975.9655 367.3489 982.1405"/>
      <polygon id="Lt-22_Mz-3" class="lots" points="345.5506 988.2757 361.9712 1046.412 383.6865 1040.2897 367.3489 982.1405 345.5506 988.2757"/>
      <polygon id="Lt-23_Mz-3" class="lots" points="323.7758 994.4189 340.1361 1052.5611 361.9712 1046.412 345.5506 988.2757 323.7758 994.4189"/>
      <rect id="Lt-24_Mz-3" class="lots" x="309.7021" y="996.3626" width="22.6782" height="60.4008" transform="translate(-265.9673 125.275) rotate(-15.7099)"/>
      <polygon id="Lt-25_Mz-3" class="lots" points="280.1056 1006.7156 296.4701 1064.8564 318.3039 1058.7088 301.9491 1000.5635 280.1056 1006.7156"/>
      <rect id="Lt-26_Mz-3" class="lots" x="266.0037" y="1008.6626" width="22.7092" height="60.4017" transform="translate(-270.987 113.9406) rotate(-15.7135)"/>
      <rect id="Lt-27_Mz-3" class="lots" x="244.1697" y="1014.8135" width="22.6835" height="60.4029" transform="translate(-273.5619 108.306) rotate(-15.7192)"/>
      <polygon id="Lt-28_Mz-3" class="lots" points="236.4121 1019.0173 214.6352 1025.1495 230.9438 1083.3088 252.7764 1077.1606 236.4121 1019.0173"/>
      <polygon id="Lt-29_Mz-3" class="lots" points="192.8031 1031.2972 209.112 1089.4546 230.9438 1083.3088 214.6352 1025.1495 192.8031 1031.2972"/>
      <polygon id="Lt-30_Mz-3" class="lots" points="192.8031 1031.2972 209.112 1089.4546 187.2471 1095.6112 170.9438 1037.4687 192.8031 1031.2972"/>
      <polygon id="Lt-31_Mz-3" class="lots" points="161.9565 1039.9833 152.9438 1105.2686 187.2471 1095.6112 170.9438 1037.4687 161.9565 1039.9833"/>
      <polygon id="Lt-32_Mz-3" class="lots" points="192.5437 968.4686 162.3037 1037.4687 161.9565 1039.9833 174.8664 1036.348 192.7839 1031.2287 214.6238 1025.1088 236.4121 1019.0173 220.0094 960.7371 192.5437 968.4686"/>
      <rect id="Lt-33_Mz-3" class="lots" x="227.786" y="956.53" width="22.6835" height="60.5452" transform="translate(-258.4017 101.6891) rotate(-15.719)"/>
      <rect id="Lt-34_Mz-3" class="lots" x="249.6203" y="950.38" width="22.7092" height="60.5442" transform="translate(-256.004 107.4287) rotate(-15.7246)"/>
      <polygon id="Lt-35_Mz-3" class="lots" points="263.7045 948.437 280.1056 1006.7156 301.9491 1000.5635 285.5391 942.2925 263.7045 948.437"/>
      <polygon id="Lt-36_Mz-3" class="lots" points="285.5391 942.2925 301.9491 1000.5635 323.7758 994.4189 307.3747 936.139 285.5391 942.2925"/>
      <polygon id="Lt-37_Mz-3" class="lots" points="307.3747 936.139 323.7758 994.4189 345.5506 988.2757 329.0874 930.0231 307.3747 936.139"/>
      <polygon id="Lt-38_Mz-3" class="lots" points="329.0874 930.0231 345.5506 988.2757 367.3489 982.1405 350.9771 923.8716 329.0874 930.0231"/>
      <polygon id="Lt-39_Mz-3" class="lots" points="350.9771 923.8716 367.3489 982.1405 389.1926 975.9655 372.7912 917.7278 350.9771 923.8716"/>
      <rect id="Lt-40_Mz-3" class="lots" x="380.5691" y="913.5258" width="22.6765" height="60.5069" transform="translate(-241.1672 141.5777) rotate(-15.7287)"/>
      <polygon id="Lt-41_Mz-3" class="lots" points="394.6239 911.5887 411.0218 969.835 432.847 963.6918 416.4549 905.4313 394.6239 911.5887"/>
      <polygon id="Lt-42_Mz-3" class="lots" points="416.4549 905.4313 432.847 963.6918 454.6891 957.5448 438.288 899.2881 416.4549 905.4313"/>
      <polygon id="Lt-43_Mz-3" class="lots" points="438.288 899.2881 454.6891 957.5448 476.5366 951.4082 460.1497 893.1293 438.288 899.2881"/>
      <polygon id="Lt-44_Mz-3" class="lots" points="460.1497 893.1293 476.5366 951.4082 498.3898 945.2707 481.9837 886.9886 460.1497 893.1293"/>
      <polygon id="Lt-45_Mz-3" class="lots" points="481.9837 886.9886 498.3898 945.2707 520.2157 939.0781 503.8238 880.8688 481.9837 886.9886"/>
      <polygon id="Lt-46_Mz-3" class="lots" points="503.8238 880.8688 520.2157 939.0781 542.049 932.9374 525.6583 874.6847 503.8238 880.8688"/>
      <polygon id="Lt-47_Mz-3" class="lots" points="525.6583 874.6847 542.049 932.9374 563.8224 926.8097 547.3761 868.5802 525.6583 874.6847"/>
      <polygon id="Lt-48_Mz-3" class="lots" points="547.3761 868.5802 563.8224 926.8097 585.6514 920.6788 569.2313 862.423 547.3761 868.5802"/>
      <polygon id="Lt-49_Mz-3" class="lots" points="569.2313 862.423 585.6514 920.6788 607.4633 914.5275 591.0637 856.2688 569.2313 862.423"/>
      <polygon id="Lt-50_Mz-3" class="lots" points="591.0637 856.2688 607.4633 914.5275 629.2896 908.3667 612.9038 850.1487 591.0637 856.2688"/>
      <polygon id="Lt-51_Mz-3" class="lots" points="612.9038 850.1487 629.2896 908.3667 651.1188 902.219 634.7319 843.9845 612.9038 850.1487"/>
      <polygon id="Lt-52_Mz-3" class="lots" points="634.7319 843.9845 651.1188 902.219 672.9713 896.0643 656.5948 837.8298 634.7319 843.9845"/>
      <polygon id="Lt-53_Mz-3" class="lots" points="656.5948 837.8298 672.9713 896.0643 694.8164 889.9112 678.4238 831.6688 656.5948 837.8298"/>
      <polygon id="Lt-54_Mz-3" class="lots" points="678.4238 831.6688 694.8164 889.9112 716.6478 883.7626 700.2639 825.5486 678.4238 831.6688"/>
      <polygon id="Lt-55_Mz-3" class="lots" points="700.2639 825.5486 716.6478 883.7626 738.485 877.6182 722.0957 819.3732 700.2639 825.5486"/>
      <polygon id="Lt-56_Mz-3" class="lots" points="722.0957 819.3732 738.485 877.6182 760.321 871.4628 743.9273 813.2366 722.0957 819.3732"/>
      <polygon id="Lt-57_Mz-3" class="lots" points="743.9273 813.2366 760.321 871.4628 782.1101 865.344 765.6802 807.1198 743.9273 813.2366"/>
      <polygon id="Lt-58_Mz-3" class="lots" points="765.6802 807.1198 782.1101 865.344 803.8988 859.1888 787.5133 800.9748 765.6802 807.1198"/>
      <rect id="Lt-59_Mz-3" class="lots" x="795.2816" y="796.7709" width="22.6781" height="60.4752" transform="translate(-193.9002 249.481) rotate(-15.7203)"/>
    </g>
    <g id="Mz-2">
      <polygon id="Lt-1_Mz-2" class="lots" points="832.6446 961.0815 858.9196 1054.6641 881.4774 1050.9361 854.4774 954.9363 832.6446 961.0815"/>
      <polygon id="Lt-2_Mz-2" class="lots" points="810.8123 967.2298 836.4775 1058.3763 836.4151 1058.3865 836.4818 1058.6238 858.9196 1054.6641 832.6446 961.0815 810.8123 967.2298"/>
      <polygon id="Lt-3_Mz-2" class="lots" points="788.9453 973.3788 813.9176 1062.0962 836.4151 1058.3865 810.8123 967.2298 788.9453 973.3788"/>
      <polygon id="Lt-4_Mz-2" class="lots" points="767.1176 979.5362 791.4747 1065.8107 813.9176 1062.0962 788.9453 973.3788 767.1176 979.5362"/>
      <polygon id="Lt-5_Mz-2" class="lots" points="745.2829 985.6779 768.9176 1069.5361 791.4747 1065.8107 767.1176 979.5362 745.2829 985.6779"/>
      <polygon id="Lt-6_Mz-2" class="lots" points="723.4498 991.8236 746.3595 1073.2636 768.9176 1069.5361 745.2829 985.6779 723.4498 991.8236"/>
      <polygon id="Lt-7_Mz-2" class="lots" points="701.6218 997.9797 723.9174 1076.9762 746.3595 1073.2636 723.4498 991.8236 701.6218 997.9797"/>
      <polygon id="Lt-8_Mz-2" class="lots" points="679.8677 1004.1008 701.3574 1080.6962 723.9174 1076.9762 701.6218 997.9797 679.8677 1004.1008"/>
      <polygon id="Lt-9_Mz-2" class="lots" points="658.0354 1010.2501 678.9175 1084.4162 701.3574 1080.6962 679.8677 1004.1008 658.0354 1010.2501"/>
      <polygon id="Lt-10_Mz-2" class="lots" points="636.2014 1016.3922 656.3575 1088.1361 678.9175 1084.4162 658.0354 1010.2501 636.2014 1016.3922"/>
      <polygon id="Lt-11_Mz-2" class="lots" points="614.3709 1022.5466 633.9129 1091.8426 656.3575 1088.1361 636.2014 1016.3922 614.3709 1022.5466"/>
      <polygon id="Lt-12_Mz-2" class="lots" points="592.539 1028.6942 611.355 1095.5706 633.9129 1091.8426 614.3709 1022.5466 592.539 1028.6942"/>
      <polygon id="Lt-13_Mz-2" class="lots" points="570.6774 1034.8562 588.7976 1099.2962 611.355 1095.5706 592.539 1028.6942 570.6774 1034.8562"/>
      <polygon id="Lt-14_Mz-2" class="lots" points="548.8446 1041.0014 566.3574 1103.0162 588.7976 1099.2962 570.6774 1034.8562 548.8446 1041.0014"/>
      <polygon id="Lt-15_Mz-2" class="lots" points="527.0103 1047.1473 543.7962 1106.7328 566.3574 1103.0162 548.8446 1041.0014 527.0103 1047.1473"/>
      <polygon id="Lt-16_Mz-2" class="lots" points="505.1796 1053.2953 521.3539 1110.4424 543.7962 1106.7328 527.0103 1047.1473 505.1796 1053.2953"/>
      <polygon id="Lt-17_Mz-2" class="lots" points="481.5228 1059.9576 496.864 1114.488 521.3539 1110.4424 505.1796 1053.2953 481.5228 1059.9576"/>
      <polygon id="Lt-18_Mz-2" class="lots" points="456.7972 1066.9166 471.4245 1118.6882 496.864 1114.488 481.5228 1059.9576 456.7972 1066.9166"/>
      <polygon id="Lt-19_Mz-2" class="lots" points="431.3576 1074.0962 445.1511 1123.032 471.4245 1118.6882 456.7972 1066.9166 431.3576 1074.0962"/>
      <polygon id="Lt-20_Mz-2" class="lots" points="404.1114 1081.7579 416.9453 1127.6937 445.1511 1123.032 431.3576 1074.0962 404.1114 1081.7579"/>
      <polygon id="Lt-21_Mz-2" class="lots" points="375.3294 1089.8597 387.3302 1132.5832 416.9453 1127.6937 404.1114 1081.7579 375.3294 1089.8597"/>
      <polygon id="Lt-22_Mz-2" class="lots" points="343.2954 1098.8805 354.3135 1138.041 387.3302 1132.5832 375.3294 1089.8597 343.2954 1098.8805"/>
      <polygon id="Lt-23_Mz-2" class="lots" points="303.328 1110.1356 313.0255 1144.8632 354.3135 1138.041 343.2954 1098.8805 303.328 1110.1356"/>
      <polygon id="Lt-24_Mz-2" class="lots" points="257.8407 1122.9462 266.2426 1152.59 313.0255 1144.8632 303.328 1110.1356 257.8407 1122.9462"/>
      <polygon id="Lt-25_Mz-2" class="lots" points="208.7657 1136.7652 215.4777 1160.982 266.2426 1152.59 257.8407 1122.9462 208.7657 1136.7652"/>
      <polygon id="Lt-26_Mz-2" class="lots" points="146.2376 1154.3761 143.5976 1172.8561 215.4777 1160.982 208.7657 1136.7652 146.2376 1154.3761"/>
    </g>
    <g id="Mz-1">
      <polygon id="Lt-1_Mz-1" class="lots" points="523.3795 1217.3207 533.2238 1276.9886 555.5438 1273.2687 545.7038 1213.6286 523.3795 1217.3207"/>
      <polygon id="Lt-2_Mz-1" class="lots" points="500.9373 1221.0322 510.7789 1280.6706 533.2237 1276.9886 523.3796 1217.3207 500.9373 1221.0322"/>
      <polygon id="Lt-3_Mz-1" class="lots" points="478.6243 1224.7257 488.4471 1284.3618 510.7789 1280.6706 500.9374 1221.0322 478.6243 1224.7257"/>
      <polygon id="Lt-4_Mz-1" class="lots" points="433.8624 1232.1284 443.7037 1291.7486 466.1282 1288.0557 456.2388 1228.4273 433.8624 1232.1284"/>
      <polygon id="Lt-5_Mz-1" class="lots" points="456.2388 1228.4273 466.1283 1288.0557 488.4471 1284.3617 478.6244 1224.7257 456.2388 1228.4273"/>
      <polygon id="Lt-6_Mz-1" class="lots" points="411.4853 1235.8347 421.3838 1295.4687 443.7038 1291.7487 433.8624 1232.1285 411.4853 1235.8347"/>
      <polygon id="Lt-7_Mz-1" class="lots" points="389.1055 1239.5376 398.9438 1299.1887 421.3838 1295.4686 411.4852 1235.8346 389.1055 1239.5376"/>
      <polygon id="Lt-8_Mz-1" class="lots" points="366.7174 1243.2367 376.6121 1302.8572 398.9439 1299.1887 389.1055 1239.5376 366.7174 1243.2367"/>
      <polygon id="Lt-9_Mz-1" class="lots" points="344.3488 1246.9358 354.1715 1306.5667 376.6121 1302.8572 366.7174 1243.2367 344.3488 1246.9358"/>
      <rect id="Lt-10_Mz-1" class="lots" x="326.784" y="1248.3808" width="22.6277" height="60.4323" transform="translate(-203.4625 72.018) rotate(-9.3608)"/>
      <polygon id="Lt-11_Mz-1" class="lots" points="299.5892 1254.3405 309.4302 1313.9701 331.85 1310.2553 322.0212 1250.63 299.5892 1254.3405"/>
      <rect id="Lt-12_Mz-1" class="lots" x="282.0314" y="1255.7835" width="22.6303" height="60.4391" transform="translate(-205.4693 64.9221) rotate(-9.3705)"/>
      <polygon id="Lt-13_Mz-1" class="lots" points="175.0238 1274.9487 185.5161 1285.9908 204.6513 1300.2133 251.8183 1323.4954 287.1038 1317.6686 277.2627 1258.0331 175.0238 1274.9487"/>
      <path id="Lt-14_Mz-1" class="lots" d="M145.6238,1218.4287c12.3513,39.2445,29.4,56.5199,29.4,56.5199l12.72-2.16-9.84-59.64-32.28,5.28Z"/>
      <polygon id="Lt-15_Mz-1" class="lots" points="177.9038 1213.1487 187.7438 1272.7887 210.1838 1269.0687 200.2238 1209.4286 177.9038 1213.1487"/>
      <polygon id="Lt-16_Mz-1" class="lots" points="200.2238 1209.4287 210.1838 1269.0687 232.5038 1265.4686 222.6638 1205.7086 200.2238 1209.4287"/>
      <polygon id="Lt-17_Mz-1" class="lots" points="222.6638 1205.7087 232.5038 1265.4687 254.8238 1261.7487 244.9863 1202.0184 222.6638 1205.7087"/>
      <polygon id="Lt-18_Mz-1" class="lots" points="244.9862 1202.0183 254.8237 1261.7487 277.2627 1258.033 267.4238 1198.3886 244.9862 1202.0183"/>
      <polygon id="Lt-19_Mz-1" class="lots" points="267.4238 1198.3887 277.2627 1258.033 299.5892 1254.3404 289.7438 1194.6687 267.4238 1198.3887"/>
      <polygon id="Lt-20_Mz-1" class="lots" points="289.7438 1194.6686 299.5893 1254.3404 322.0211 1250.63 312.1838 1190.9486 289.7438 1194.6686"/>
      <polygon id="Lt-21_Mz-1" class="lots" points="312.1838 1190.9486 322.0211 1250.63 344.3488 1246.9358 334.5038 1187.2287 312.1838 1190.9486"/>
      <polygon id="Lt-22_Mz-1" class="lots" points="334.5038 1187.2286 344.3488 1246.9358 366.7174 1243.2367 356.8238 1183.6287 334.5038 1187.2286"/>
      <polygon id="Lt-23_Mz-1" class="lots" points="356.8238 1183.6287 366.7174 1243.2367 389.1055 1239.5377 379.2535 1179.8486 356.8238 1183.6287"/>
      <polygon id="Lt-24_Mz-1" class="lots" points="379.2535 1179.8486 389.1056 1239.5376 411.4853 1235.8347 401.5711 1176.1637 379.2535 1179.8486"/>
      <polygon id="Lt-25_Mz-1" class="lots" points="401.5712 1176.1636 411.4852 1235.8346 433.8623 1232.1284 424.0238 1172.4686 401.5712 1176.1636"/>
      <polygon id="Lt-26_Mz-1" class="lots" points="424.0238 1172.4687 433.8623 1232.1285 456.2387 1228.4272 446.346 1168.7692 424.0238 1172.4687"/>
      <polygon id="Lt-27_Mz-1" class="lots" points="446.3461 1168.7692 456.2388 1228.4273 478.6243 1224.7257 468.7861 1165.0638 446.3461 1168.7692"/>
      <polygon id="Lt-28_Mz-1" class="lots" points="468.786 1165.0639 478.6245 1224.7257 500.9373 1221.0322 491.0894 1161.3803 468.786 1165.0639"/>
      <rect id="Lt-29_Mz-1" class="lots" x="495.861" y="1159.1225" width="22.7473" height="60.4576" transform="translate(-186.9554 98.5059) rotate(-9.3745)"/>
      <polygon id="Lt-30_Mz-1" class="lots" points="513.5325 1157.6721 523.3796 1217.3208 545.7037 1213.6287 535.8637 1153.9886 513.5325 1157.6721"/>
    </g>
  </g>
  <g id="Outline">
    <polygon id="ot_m13" class="outline" points="560.1376 1519.8532 698.1445 1402.9083 441.3142 1445.3693 560.1376 1519.8532"/>
    <polyline id="ot_m12" class="outline" points="898.1438 942.5487 967.5038 1189.2687 1263.9038 960.6687 1444.0238 840.3087 1415.7037 796.8687 898.1438 942.5487"/>
    <path id="ot_m11" class="outline" d="M590.4719,1206.305l319.8494-52.9265M871.4965,1098.5062l19.6883,119.3343M849.074,1102.2131l19.7869,119.3197M826.7487,1105.9018l19.671,119.3424M804.3055,1109.6056l19.7897,119.3326M781.982,1113.2964l19.6904,119.3637M759.5388,1116.9996l19.809,119.3382M737.2124,1120.6871l19.6945,119.3617M714.9083,1124.372l19.6741,119.3687M692.464,1128.0743l19.6762,119.3779M670.1374,1131.7617l19.6999,119.3705M647.6981,1135.4698l19.8087,119.3692M625.3715,1139.1573l19.6923,119.3514M602.9358,1142.8716l19.8092,119.3666M926.8238,1211.9487l-33-117.12M580.6238,1146.5487l19.68,119.4M893.8238,1094.8287l-313.2,51.72M600.3038,1265.9487l326.52-54"/>
    <path id="ot_m10" class="outline" d="M869.4638,840.7887l485.76-136.8M853.0238,782.4687l32.76,116.52,504.0001-141.96-69.12-106.2-467.6401,131.64M874.8638,776.3487l32.76,116.4M896.7038,770.2287l32.7599,116.4M918.5438,764.1087l32.76,116.4M940.3838,757.9887l32.7599,116.4M962.2238,751.7487l32.76,116.52M983.9437,745.6287l32.88,116.4M1005.7838,739.5087l32.76,116.4M1027.6238,733.3887l32.76,116.4M1049.4638,727.2687l32.76,116.4M1104.0637,837.4287l-32.76-116.4M1093.1438,714.9087l32.76,116.4M1147.7438,825.1887l-32.76-116.4M1136.8237,702.6687l32.76,116.4M1158.6638,696.4287l32.7599,116.52M1180.3838,690.3087l32.88,116.4M1202.2238,684.1887l32.88,116.4M1224.0637,678.0687l32.76,116.4M1245.9038,671.9487l32.76,116.4M1267.7438,665.7087l32.76,116.52M1289.5838,659.5887l32.76,116.4M1327.7438,711.6687l16.4399,58.2"/>
    <path id="ot_m9" class="outline" d="M785.1664,515.1935l258.3244-86.6564M812.8238,597.5487l210.2496-59.1634-57.633-12.1239,77.7385-97.3349,95.6766-119.9725-380.1517,127.4346M758.7038,436.3887l54.12,161.16M780.1838,429.1887l54.4721,162.2169M801.6638,421.9887l54.8614,163.2616M823.1438,414.7886l55.212,164.319M844.7292,407.5488l55.4594,165.4163M866.2105,400.3488l55.8133,166.3599M887.689,393.1471l56.2012,167.526M909.2049,385.9355l26.499,78.7732M930.6818,378.7277l26.502,78.781M978.6638,450.3086l-26.4999-78.7758M1000.1438,443.1087l-26.5003-78.7797M1021.6238,435.9087l-26.3907-78.8121M1016.713,349.8969l26.7778,78.6401M1038.192,342.6951l21.8447,65.1214M1059.6723,335.4961l17.2497,51.1277"/>
    <path id="ot_m8" class="outline" d="M715.3838,307.3887l57.36-19.2001M722.6357,328.9701l57.2986-19.2994M729.8522,350.4442l57.2749-19.2912M737.0852,371.9534l57.2671-19.2096M1194.372,178.5246l-412.0282,138.3441M744.3038,393.4286l446.7008-149.7314,139.0801-174.24-624.3009,209.3714,38.52,114.6M801.5467,374.2395l-38.4029-114.7308M784.6238,252.3086l38.5116,114.6968M806.1038,245.1087l38.5485,114.6871M866.1318,352.5945l-38.548-114.6858M849.0638,230.7087l38.5485,114.6844M870.5438,223.5087l38.5478,114.6843M892.1438,216.1887l38.4267,114.8033M913.6238,208.9887l38.4275,114.8045M935.1038,201.7887l38.536,114.7682M956.5838,194.5887l38.5354,114.767M1016.6369,302.1407l-38.5732-114.752M1038.1158,294.9427l-38.572-114.754M1021.1438,172.9887l38.4515,114.7527M1042.6238,165.6686l38.4537,114.8818M1102.6628,273.3053l-38.559-114.8366M1085.5838,151.2687l38.5593,114.8397M1107.1163,144.2286l38.5064,114.6769M1128.5966,137.0245l19.2396,57.1252M1150.0748,129.8234l19.2385,57.1159M1175.1515,121.4103l33.6397,99.9693M1200.2641,112.9921l28.1187,83.8757M1225.3391,104.5746l22.71,67.6475M1250.4174,96.1714l17.3006,51.4193"/>
    <path id="ot_m7" class="outline" d="M671.9437,178.5432l344.0587-115.583M674.5099,114.443l38.451,114.363M695.987,107.2344l38.4661,114.3576M717.5002,100.0136l38.3851,114.3844M777.3754,207.1847l-38.2612-114.4257M760.5617,85.5603l38.3017,114.4117M801.0638,135.1887l19.4251,57.5245M822.5438,127.9887l19.4262,57.5141M844.1639,120.7287l19.2579,57.5736M865.6238,113.4687l19.2994,57.6165M887.1038,106.2687l19.2699,57.567M927.7838,156.4286l-19.2-57.36M949.4556,149.4242l-19.3918-57.5754M951.5292,84.6387l19.4033,57.5765M972.9994,77.4066l19.4368,57.5907M994.6029,70.1706l19.3165,57.6156M1009.7058,43.991l25.6897,76.5865M1033.0034,42.1241l23.868,71.2449M1056.262,40.2603l22.0919,65.8038M1079.5607,38.3932l20.3733,60.5213M1102.8195,36.5294l18.6005,55.1732M1133.441,34.0755l16.1751,48.1627M1168.3845,31.3887l13.396,40.0532M1212.9969,27.7003l10.0788,29.8804M652.7439,121.7487l38.6399,114.3L1327.2295,22.6204l-1.5257-3.9518-480.5888,38.5119-192.3711,64.5682h0Z"/>
    <path id="ot_m6" class="outline" d="M251.8615,383.6326c.167-.056,18.6731-134.413,18.6731-134.413l339.5956-114.1282,38.6259,115.4063-396.8947,133.1349ZM261.1531,316.4487l368.292-123.6599-368.292,123.6599ZM287.4244,244.0287l38.3588,114.24M285.277,308.3487l19.1068,57.2895M309.0638,236.7087l38.28,114.24M330.4238,229.3887s38.1878,114.4436,38.4394,114.36M390.3431,336.5486l-38.4393-114.36M373.3838,214.9887l38.9804,114.5994M394.8638,207.6686l38.52,114.9002M416.3438,200.4687s38.0768,114.52,38.52,114.72M437.9438,193.2687l38.4738,114.66M459.4617,186.0687l38.3621,114.48M480.9038,178.8682l38.4797,114.4805M502.3431,171.6686l38.5607,114.4801M523.8638,164.3487l38.52,114.6M583.8638,271.8854l-38.6436-114.8395M566.8238,149.9487l38.52,114.7312M626.8238,257.4687l-38.52-114.72"/>
    <path id="ot_m5" class="outline" d="M615.0638,341.1087l57.3691-19.203M622.2638,362.5887l57.36-19.2M686.8238,364.8687l-57.36,19.2M694.0238,386.3487l-57.24,19.3199M248.5838,496.0287l376.08-126.24M643.9524,427.0554l-38.4725-114.5787M622.4758,434.2653l-38.4729-114.5798M562.4897,326.9066l38.4016,114.6049M541.0127,334.1156l38.4111,114.6331M557.9438,455.9487l-38.516-114.5879M497.9509,348.5696l38.513,114.5791M514.9521,470.3719l-38.4782-114.5934M493.4829,477.5655l-38.4861-114.5779M471.9897,484.7868l-38.4699-114.5904M412.0428,377.4054l38.3722,114.6274M390.4218,384.6627l38.5146,114.5757M368.9448,391.8716l38.5131,114.5755M347.4678,399.0805l38.5125,114.5782M364.4633,520.8463l-38.4725-114.5569M343.0017,528.0911l-38.488-114.5927M321.4134,535.3364l-38.3766-114.6291M299.93,542.5481l-38.3469-114.6249M259.2638,492.4286l19.1905,57.3285M249.9038,431.8287l412.92-138.6M248.5838,496.0287l1.32-64.2001M248.5838,496.0287l-1.32,64.2,453.96-152.4-38.4-114.6"/>
    <path id="ot_m4" class="outline" d="M244.5038,696.7887l497.64-167.04M694.2638,458.1087l52.92,157.92M672.6638,465.3086l52.68,156.84M651.1838,472.5087l52.32,155.7599M629.7038,479.7087l51.96,154.8M608.2238,486.9087l51.6,153.7199M637.9838,646.7487l-51.24-152.52M616.1438,652.8687l-50.88-151.4401M543.7838,508.6287l50.4,150.48M522.1838,515.8287l50.16,149.4M550.5038,671.3487l-49.8-148.3199M479.2238,530.2287l49.44,147.36M457.7438,537.4286l49.08,146.28M436.2638,544.6287l48.72,145.2M414.7838,551.9487l48.36,144M393.1838,559.1487l48.12,143.0399M371.7038,566.3487l47.64,141.96M350.2238,573.5487l47.28,140.88M328.7438,580.7487l46.92,139.8M307.2638,587.9487l46.56,138.84M285.7838,595.1487l46.2,137.76M264.3038,602.4687l45.84,136.56M269.2238,688.5087l19.08,56.76M246.3038,608.4687l-3.12,149.4,525.84-148.08-53.28-158.8799-469.44,157.5599"/>
    <path id="ot_m3" class="outline" d="M161.9438,1039.9887l663.7832-186.9471M787.5133,800.9749l32.7505,116.3738M765.6802,807.1199l32.8371,116.3793M743.9274,813.2365l32.771,116.3977M722.0955,819.3731l32.7594,116.424M700.2638,825.5487l32.758,116.3937M678.4238,831.6687l32.76,116.4M656.5948,837.8297l32.7322,116.4123M634.7319,843.9845l32.7607,116.4071M612.9038,850.1487l32.76,116.4M591.0638,856.2687l32.7651,116.4163M569.2312,862.4229l32.7633,116.4071M547.376,868.5802l32.8721,116.3773M525.6583,874.6846l32.7529,116.4238M503.8238,880.8687l32.7555,116.3824M481.9838,886.9887l32.76,116.4M460.1497,893.1294l32.7348,116.4278M438.2881,899.2881l32.7672,116.4188M416.4549,905.4312l32.7652,116.4201M394.6238,911.5887l32.7613,116.409M372.7913,917.7278l32.7607,116.4175M350.9771,923.8716l32.7094,116.4181M329.0874,930.0231l32.8838,116.389M307.3747,936.139l32.7614,116.422M285.539,942.2925l32.7648,116.4162M296.4702,1064.8564l-32.7656-116.4195M241.8443,954.5839l32.7638,116.43M220.0098,960.7387l32.7665,116.422M214.6238,1025.1087l16.32,58.2M192.7838,1031.2287l16.3282,58.226M170.9438,1037.4687l16.3034,58.1425M152.9438,1105.2687l689.16-194.04-32.76-116.4-616.8,173.64-30.24,69M162.3038,1037.4687l-9.36,67.8"/>
    <path id="ot_m2" class="outline" d="M146.2238,1154.3487l708.24-199.44M143.5838,1172.8287l737.88-121.92M854.4638,954.9087l27,96M810.7986,967.2022l25.6652,91.1464M788.9316,973.3513l24.9722,88.7173M767.1038,979.5087l24.3572,86.2746M745.2692,985.6505l23.6346,83.8581M723.436,991.7962l22.9098,81.4398M701.6081,997.9523l22.2957,78.9964M679.854,1004.0734l21.4898,76.5953M658.0215,1010.2227l20.8823,74.166M636.1877,1016.3648l20.1561,71.7439M614.357,1022.5192l19.542,69.2959M592.5253,1028.6666l18.8159,66.8765M570.6638,1034.8287l18.12,64.44M548.8309,1040.9739l17.5129,62.0147M526.9966,1047.1198l16.7858,59.5855M505.166,1053.2678l16.1742,57.1469M481.509,1059.9301l15.3414,54.5303M456.7835,1066.8892l14.6273,51.7716M431.3438,1074.0687l13.7936,48.9357M404.0976,1081.7303l12.834,45.9359M375.3156,1089.8323l12.0009,42.7233M343.2816,1098.8531l11.0182,39.1605M303.3141,1110.1082l9.6977,34.7274M257.827,1122.9188l8.402,29.6438M208.752,1136.7378l6.712,24.2167M143.5838,1172.8287l2.64-18.48M832.6308,961.054l26.2751,93.5826"/>
    <path id="ot_m1" class="outline" d="M513.5383,1157.6753l19.6855,119.3134M491.0959,1161.3811l19.6878,119.3275M468.7838,1165.0287l19.6801,119.4M446.3438,1168.7487l19.8,119.4M424.0238,1172.4687l19.68,119.28M401.5838,1176.1887l19.8,119.28M379.2638,1179.9087l19.68,119.28M356.8238,1183.6287l19.8,119.28M334.5038,1187.2287l19.68,119.4M312.1838,1190.9487l19.68,119.4M289.7438,1194.6687l19.68,119.28M267.4238,1198.3887l19.68,119.28M244.9838,1202.1087l9.84,59.64M222.6638,1205.7087l9.84,59.76M200.2238,1209.4287l9.96,59.64M177.9038,1213.1487l9.84,59.64M535.8638,1153.9887l-390.24,64.44s8.9938,31.9133,29.4,56.52l370.68-61.32-9.84-59.64ZM555.5438,1273.2687l-19.68-119.28M545.7038,1213.6287l-370.68,61.32s13.6749,17.7831,38.88,30.36l37.9146,18.1868h0l303.7254-50.2268-9.84-59.64Z"/>
  </g>
</svg>
