<?xml version="1.0" encoding="UTF-8"?>
<svg id="fail" xmlns="http://www.w3.org/2000/svg" viewBox="0 0 32 32">
  <defs>
    <style>
      .cls-1 {
        fill: #e34e32;
        fill-rule: evenodd;
      }
    </style>
  </defs>
  <path class="cls-1" d="M16,0C7.16,0,0,7.16,0,16s7.16,16,16,16,16-7.16,16-16S24.84,0,16,0Zm8.34,24.65c-.39,.37-.89,.56-1.39,.56-.52,0-1.05-.2-1.44-.61l-5.51-5.72-5.5,5.71c-.77,.79-2.03,.82-2.83,.05-.79-.77-.82-2.03-.05-2.83l5.6-5.81-5.61-5.82c-.77-.79-.74-2.06,.05-2.83,.79-.77,2.06-.74,2.83,.05l5.51,5.72,5.5-5.71c.77-.79,2.03-.82,2.83-.05,.79,.77,.82,2.03,.05,2.83l-5.6,5.81,5.62,5.82c.77,.79,.74,2.06-.05,2.83Z"/>
</svg>