<?xml version="1.0" encoding="utf-8"?>
<!-- Generator: Adobe Illustrator 26.4.1, SVG Export Plug-In . SVG Version: 6.00 Build 0)  -->
<svg version="1.1" id="fb" xmlns="http://www.w3.org/2000/svg" xmlns:xlink="http://www.w3.org/1999/xlink" x="0px" y="0px"
	 viewBox="0 0 16 16" style="enable-background:new 0 0 16 16;" xml:space="preserve">
<path d="M16,8c0-1.5-0.5-3-1.3-4.3s-2-2.3-3.4-2.9C9.9,0.1,8.4-0.1,6.8,0.1C5.3,0.4,3.9,1,2.8,2c-1.2,1-2,2.3-2.4,3.8
	c-0.4,1.5-0.4,3,0,4.5S1.6,13,2.7,14c1.1,1,2.5,1.7,4.1,1.9v-5.7h-2V8h2V6.2c0-0.4,0-0.8,0.1-1.2C7,4.6,7.2,4.2,7.5,3.9
	c0.3-0.3,0.6-0.5,1-0.7C8.9,3.1,9.3,3,9.7,3c0.6,0,1.2,0.1,1.8,0.2v2h-1c-0.2,0-0.3,0-0.5,0.1C9.9,5.3,9.7,5.4,9.6,5.5
	C9.5,5.6,9.4,5.8,9.3,6C9.2,6.1,9.2,6.3,9.2,6.5V8h2.2l-0.4,2.3H9.2v5.6c1.9-0.3,3.6-1.3,4.8-2.7C15.3,11.7,16,9.9,16,8z"/>
</svg>
