<svg id="logo" xmlns="http://www.w3.org/2000/svg" viewBox="0 0 521 520.99951">
  <path d="M1605.08048,482.337a51.02315,51.02315,0,0,1-12.68825,33.72962c-4.8389,5.51758-12.44745,17.11114-15.26106,26.83263v.0109H1563.151v-.02185a13.827,13.827,0,0,1,.646-4.17105,92.06639,92.06639,0,0,1,18.08549-31.86857,37.26575,37.26575,0,1,0-56.11752,0,91.7898,91.7898,0,0,1,18.10741,31.93426,13.65919,13.65919,0,0,1,.624,4.0944v.03281h-13.98014v-.0109c-2.81348-9.72149-10.42216-21.31505-15.261-26.84359a51.24553,51.24553,0,1,1,89.82529-33.71866Z" transform="translate(-1189.45215 -300.67041)"/>
  <path class="cls-1" d="M1632.54215,674.60021a211.71783,211.71783,0,0,1-12.38,17.71l-230.03-230.03-145.13,145.13a211.46414,211.46414,0,0,1-3.98-26.11l149.11-149.11Z" transform="translate(-1189.45215 -300.67041)"/>
  <path class="cls-1" d="M1577.95215,639.52637l-46-53.667V554.16992h46Zm-36-57.36621,26,30.333V564.16992h-26Z" transform="translate(-1189.45215 -300.67041)"/>
  <path class="cls-1" d="M1609.70213,704.76018a211.42842,211.42842,0,0,1-15.06,15.03l-204.51-204.51-132.15,132.15a215.70473,215.70473,0,0,1-8.2-21.89l140.35-140.35Z" transform="translate(-1189.45215 -300.67041)"/>
  <path class="cls-1" d="M1451.37988,800.499a239.80514,239.80514,0,1,1,169.56739-70.2373A238.23415,238.23415,0,0,1,1451.37988,800.499Zm0-460.60937c-121.75195,0-220.80468,99.05273-220.80468,220.80469S1329.62793,781.499,1451.37988,781.499s220.80469-99.05273,220.80469-220.80468S1573.13184,339.88965,1451.37988,339.88965Z" transform="translate(-1189.45215 -300.67041)"/>
  <path class="cls-1" d="M1449.95215,821.66992a260.5005,260.5005,0,1,1,184.20117-76.29883A258.79409,258.79409,0,0,1,1449.95215,821.66992Zm0-511.99951c-138.67774,0-251.5,112.82227-251.5,251.49951,0,138.67774,112.82226,251.5,251.5,251.5s251.5-112.82226,251.5-251.5C1701.45215,422.49268,1588.62988,309.67041,1449.95215,309.67041Z" transform="translate(-1189.45215 -300.67041)"/>
</svg>
