<?xml version="1.0" encoding="iso-8859-1"?>
<!-- Uploaded to: SVG Repo, www.svgrepo.com, Generator: SVG Repo Mixer Tools -->
<svg id="palapa" version="1.1" xmlns="http://www.w3.org/2000/svg" xmlns:xlink="http://www.w3.org/1999/xlink" 
	 viewBox="0 0 300.583 300.583" xml:space="preserve">
<g>
	<g>
		<path d="M272.954,122.343L154.518,1.775c-2.33-2.383-6.155-2.352-8.454,0L27.628,122.343c-1.082,1.067-1.762,2.6-1.762,4.213
			c0,25.048,20.377,45.425,45.425,45.425c16.91,0,31.681-9.294,39.5-23.036c6.89,12.109,19.18,20.753,33.575,22.637v56.321H89.023
			c-3.272,0-5.925,2.653-5.925,5.925v18.96v41.87c0,3.272,2.653,5.925,5.925,5.925c3.272,0,5.925-2.653,5.925-5.925v-35.945h49.418
			v35.945c0,3.272,2.653,5.925,5.925,5.925c3.272,0,5.925-2.653,5.925-5.925v-35.945h49.418v35.945c0,3.272,2.653,5.925,5.925,5.925
			c3.272,0,5.925-2.653,5.925-5.925v-41.87v-18.96c0-3.272-2.653-5.925-5.925-5.925h-55.343v-56.321
			c14.395-1.884,26.685-10.528,33.575-22.637c7.819,13.742,22.59,23.036,39.5,23.036c25.048,0,45.425-20.377,45.425-45.425
			C274.716,124.961,274.048,123.422,272.954,122.343z M144.366,246.864H94.947v-7.11h49.418V246.864z M150.291,24.968l31.324,95.663
			h-62.649L150.291,24.968z M71.291,160.132c-16.49,0-30.243-11.951-33.05-27.647h66.102
			C101.533,148.18,87.781,160.132,71.291,160.132z M106.498,120.632H45.92l90.866-92.502L106.498,120.632z M205.634,239.754v7.11
			h-49.418v-7.11H205.634z M150.291,160.132c-16.49,0-30.243-11.951-33.05-27.647h66.102
			C180.533,148.18,166.781,160.132,150.291,160.132z M163.796,28.13l90.866,92.502h-60.577L163.796,28.13z M229.291,160.132
			c-16.49,0-30.243-11.951-33.05-27.647h66.102C259.533,148.18,245.781,160.132,229.291,160.132z"/>
	</g>
</g>
</svg>
