<?xml version="1.0" encoding="utf-8"?>
<!-- Generator: Adobe Illustrator 26.4.1, SVG Export Plug-In . SVG Version: 6.00 Build 0)  -->
<svg version="1.1"
	 id="plan" xmlns:inkscape="http://www.inkscape.org/namespaces/inkscape" xmlns:sodipodi="http://sodipodi.sourceforge.net/DTD/sodipodi-0.dtd" xmlns:svg="http://www.w3.org/2000/svg"
	 xmlns="http://www.w3.org/2000/svg" xmlns:xlink="http://www.w3.org/1999/xlink" x="0px" y="0px" viewBox="0 0 750.4 750.4"
	 style="enable-background:new 0 0 750.4 750.4;" xml:space="preserve">
<style type="text/css">
	.st0{display:none;opacity:0.6;}
	.st1{display:inline;fill:#FFFFFF;stroke:#363795;stroke-width:3;stroke-miterlimit:15.1181;}
	.st2{fill:rgb(0 237 35/30%);stroke:rgb(0 237 35);stroke-width:2;stroke-miterlimit:15.1181;cursor:pointer;}
    .st2:hover, .active-lot{fill:rgb(38 39 125/60%);stroke:rgb(38 39 125)}
</style>
<image id="plan-sat" style="overflow:visible;enable-background:new;" width="3128" height="3129" xlink:href="32827039.jpg"  transform="matrix(0.24 0 0 0.24 -0.1501 -0.3141)">
</image>
<g id="Mz" transform="rotate(-90,127.1265,108.6983)" inkscape:groupmode="layer" inkscape:label="MZs" class="st0">
	<path id="Mz-10" inkscape:label="Mz-10" class="st1" d="M-265.1,437.2l51.1-18.9l69.1,210.7l-45.4,32.7L-265.1,437.2z"/>
	<path id="Mz-9" inkscape:label="Mz-9" class="st1" d="M-132.9,390.7l70.2-26.7l75.4,193.1l-108.1-91.4l-3,25L-132.9,390.7z"/>
	<path id="Mz-8" inkscape:label="Mz-8" class="st1" d="M-45.9,357.8L5,340.3l109.2,284.5L91,628l-50.3-45.4L-45.9,357.8z"/>
	<path id="Mz-7" inkscape:label="Mz-7" class="st1" d="M23.4,333.9l52.4-17.6L184.3,607l-50.7,17.1L23.4,333.9z"/>
	<path id="Mz-6" inkscape:label="Mz-6" class="st1" d="M67.5,295.7L6.4,143.9l-60.7-5.6l71.1,176.3L67.5,295.7z"/>
	<path id="Mz-5" inkscape:label="Mz-5" class="st1" d="M-135.2,128.2l59.8,6.1l74.8,185.4l-51.6,17.4L-135.2,128.2z"/>
	<path id="Mz-4" inkscape:label="Mz-4" class="st1" d="M-224.7,117.9l68.6,7.8l84.9,219.2l-69.6,25.5L-224.7,117.9z"/>
	<path id="Mz-3" inkscape:label="Mz-3" class="st1" d="M-364,128.9l59.3,7.1l83.5,259l-52,17.9L-364,128.9z"/>
	<path id="Mz-2" inkscape:label="Mz-2" class="st1" d="M-355.6,214.2l72.9,206.9l-46,16.8l-50.4-215.7l-18.9-83.9
		c0,0,3.3-11,12.7-5.7c9.3,5.2,0.4-0.6,0.4-0.6L-355.6,214.2z"/>
	<path id="Mz-1" inkscape:label="Mz-1" class="st1" d="M-352.5,444.1L-416.2,142l0.1-10.6l3.9-9.9l7.8-7.6l9.3-3.5h11.9l70.6,6.7
		l-9.7-28.4l-58-5.2l-7.8-1.1l-18.5-9.1l-41.5,36.7l-6.7,12.7l-14.6,26.2l65.5,312.5L-352.5,444.1z"/>
</g>
<g id="Lt" transform="translate(-17.638854,-10.919291)" inkscape:groupmode="layer" inkscape:label="Lots">
	<path id="Mz-1_Lt-70" sodipodi:nodetypes="ccccc" class="st2" d="M124.6,568.6l28.4-10l-1.9,19.5l-27.2-1.8L124.6,568.6z"/>
	<path id="Mz-1_Lt-69" sodipodi:nodetypes="ccccc" class="st2" d="M123.1,585.8l0.9-9.6l27.4,1.7l-1.1,10.1L123.1,585.8z"/>
	<path id="Mz-1_Lt-68" class="st2" d="M122.2,595.8l0.9-10l27.3,2.3l-0.8,10L122.2,595.8z"/>
	<path id="Mz-1_Lt-67" class="st2" d="M121.6,606l0.7-10.2l27.5,2.1l-1.2,10.4L121.6,606z"/>
	<path id="Mz-1_Lt-66" class="st2" d="M120.5,616.1l0.9-10.1l27.3,2.1l-1.1,10L120.5,616.1z"/>
	<path id="Mz-1_Lt-65" class="st2" d="M119.7,626.5l1-10.3l27,2l-1,10.5L119.7,626.5z"/>
	<path id="Mz-1_Lt-64" sodipodi:nodetypes="cccccc" class="st2" d="M111.9,648.4l6.8-13.9l0.9-7.9l27.1,2.1l-0.1,12.5L111.9,648.4z"
		/>
	<path id="Mz-1_Lt_63" sodipodi:nodetypes="cccccc" class="st2" d="M124.2,669.2l-14.7-16.1l2.4-4.8l34.7-6.9l3.5,9.4L124.2,669.2z"
		/>
	<path id="Mz-1_Lt-62" sodipodi:nodetypes="ccccc" class="st2" d="M139.4,686.6l18.8-28.1l-7.7-7.6l-26.3,18.4L139.4,686.6z"/>
	<path id="Mz-1_Lt-61" sodipodi:nodetypes="cccccc" class="st2" d="M161.1,701.9l7-39.5l-10.1-4.1l-18.7,28l7.2,8.3L161.1,701.9z"/>
	<path id="Mz-1_Lt-60" class="st2" d="M167.7,662.5l12-0.5l11.2,52.2l-5.4,1.3l-24.8-13.6L167.7,662.5z"/>
	<path id="Mz-1_Lt-30" class="st2" d="M200.7,712.4l-5.1-26.9l-10.5,2.3l5.7,26.6L200.7,712.4z"/>
	<path id="Mz-1_Lt-59" class="st2" d="M195.5,685.7l-5.6-26l-10.4,2.5l5.7,25.8L195.5,685.7z"/>
	<path id="Mz-1_Lt-58" class="st2" d="M205.6,683.5l-10.1,2.2l-5.8-26.1l10.8-2L205.6,683.5z"/>
	<path id="Mz-1_Lt-29" class="st2" d="M200.4,712.2l10.6-2l-5.3-26.9l-10,2.4L200.4,712.2z"/>
	<path id="Mz-1_Lt-28" class="st2" d="M210.9,710.2l10.8-2.5l-5.8-26.8l-10.5,2.4L210.9,710.2z"/>
	<path id="Mz-1_Lt-57" class="st2" d="M215.8,681.3l-5.4-25.9l-9.8,2.1l4.9,25.9L215.8,681.3z"/>
	<path id="Mz-1_Lt-27" class="st2" d="M221.2,707.9l10-2.3l-5.5-26.7l-9.9,2.4L221.2,707.9z"/>
	<path id="Mz-1_Lt-56" sodipodi:nodetypes="ccccc" class="st2" d="M215.9,681.1l9.8-2.1l-5.2-25.6l-10,2L215.9,681.1z"/>
	<path id="Mz-1_Lt-26" class="st2" d="M231.2,705.6l10.5-2.1l-6-26.7l-9.8,2.1L231.2,705.6z"/>
	<path id="Mz-1_Lt-55" class="st2" d="M220.7,653.3l9.9-2.1l4.9,25.7L226,679L220.7,653.3z"/>
	<path id="Mz-1_Lt-25" sodipodi:nodetypes="ccccc" class="st2" d="M242,703.4l9.9-2.2l-6.1-26.8l-10.1,2.3L242,703.4z"/>
	<path id="Mz-1_Lt-54" sodipodi:nodetypes="ccccc" class="st2" d="M230,651.2l5.6,25.5l9.9-2.2l-5.7-25.4L230,651.2z"/>
	<path id="Mz-1_Lt-53" sodipodi:nodetypes="ccccc" class="st2" d="M245.7,674.2l-5.7-25.1l10.7-2.4l5.2,25.2L245.7,674.2z"/>
	<path id="Mz-1_Lt-24" class="st2" d="M251.8,701.2l-5.8-26.9l10.4-2.6l5.6,27.5L251.8,701.2z"/>
	<path id="Mz-1_Lt-52" class="st2" d="M256.2,672.1l9.4-1.7l-5.3-25.7l-9.6,2.3L256.2,672.1z"/>
	<path id="Mz-1_Lt-23" class="st2" d="M261.8,699.3l-5.5-27.4l9.4-1.7l5.6,26.9L261.8,699.3z"/>
	<path id="Mz-1_Lt-22" class="st2" d="M271.2,697.2l-5.7-26.9l10.4-2.2l5.6,26.8L271.2,697.2z"/>
	<path id="Mz-1_Lt-51" sodipodi:nodetypes="ccccc" class="st2" d="M265.7,670.4l-5.4-25.7l10.4-2.3l5.1,25.6L265.7,670.4z"/>
	<path id="Mz-1_Lt-21" class="st2" d="M281.4,694.9l-6-27l10.2-2l6,26.6L281.4,694.9z"/>
	<path id="Mz-1_Lt-50" class="st2" d="M275.5,667.9l10-1.9l-5.8-25.9l-9.4,2.3L275.5,667.9z"/>
	<path id="Mz-1_Lt-20" class="st2" d="M291.5,692.7l-6-26.9l10.4-2.1l5.8,26.5L291.5,692.7z"/>
	<path id="Mz-1_Lt-49" class="st2" d="M295.6,663.4l-9.8,2.5l-5.9-25.5l10.5-2.4L295.6,663.4z"/>
	<path id="Mz-1_Lt-48" class="st2" d="M305.8,661.5l-10.1,2.1l-5.3-25.5l9.7-2.3L305.8,661.5z"/>
	<path id="Mz-1_Lt-19" class="st2" d="M311.5,688.2l-9.4,2.1l-6.3-26.8l9.8-2.1L311.5,688.2z"/>
	<path id="Mz-1_Lt-18" class="st2" d="M311.6,688.4l-6-26.9l10.4-2.3l5.2,27L311.6,688.4z"/>
	<path id="Mz-1_Lt-47" sodipodi:nodetypes="ccccc" class="st2" d="M300.1,635.8l10.2-2.1l5.7,25.6l-10.4,2.2L300.1,635.8z"/>
	<path id="Mz-1_Lt-46" class="st2" d="M310.2,633.5l5.5,25.4l10-2.1l-5.7-25.3L310.2,633.5z"/>
	<path id="Mz-1_Lt-17" class="st2" d="M321,686.4l10.8-2.3l-6.2-27.1l-9.6,1.9L321,686.4z"/>
	<path id="Mz-1_Lt-16" class="st2" d="M342,681.8l-10.2,2.4l-6.1-27.3l10.1-2.3L342,681.8z"/>
	<path id="Mz-1_Lt-45" class="st2" d="M325.7,657l-5.8-25.3l10.3-2.2l5.7,25.4L325.7,657z"/>
	<path id="Mz-1_Lt-15" class="st2" d="M342.2,681.8l10-2.1l-6-27.2l-10.6,2.4L342.2,681.8z"/>
	<path id="Mz-1_Lt-44" class="st2" d="M336.1,655l10.1-2.7l-5.8-25.1l-10.3,2.4L336.1,655z"/>
	<path id="Mz-1_Lt-14" class="st2" d="M352.1,679.7l-5.8-26.8l10.5-2.1l5.6,26.6L352.1,679.7z"/>
	<path id="Mz-1_Lt-43" class="st2" d="M346.4,652.7l10.5-2l-6.1-25.5l-10.4,1.8L346.4,652.7z"/>
	<path id="Mz-1_Lt-13" class="st2" d="M362.3,677.6l10.7-2.5l-6.1-26.8l-10,2.4L362.3,677.6z"/>
	<path id="Mz-1_Lt-42" sodipodi:nodetypes="ccccc" class="st2" d="M357,650.7l-6.3-25.5l10.6-2.3l5.7,25.6L357,650.7z"/>
	<path id="Mz-1_Lt-12" class="st2" d="M372.8,675.2l9.6-2l-5.2-26.6l-10.2,2.3L372.8,675.2z"/>
	<path id="Mz-1_Lt-41" sodipodi:nodetypes="ccccc" class="st2" d="M367.1,648.5l-5.6-25.6l10.3-2.3l5.7,25.9L367.1,648.5z"/>
	<path id="Mz-1_Lt-11" sodipodi:nodetypes="ccccc" class="st2" d="M382.3,673.1l-4.9-26.7l9.9-1.9l5.4,26.4L382.3,673.1z"/>
	<path id="Mz-1_Lt-40" sodipodi:nodetypes="ccccc" class="st2" d="M377.4,646.6l-5.9-25.8l10-2.5l5.4,26.1L377.4,646.6z"/>
	<path id="Mz-1_Lt-10" class="st2" d="M392.7,670.8l-5.4-26.7l9.9-2.1l5.1,26.6L392.7,670.8z"/>
	<path id="Mz-1_Lt-39" class="st2" d="M381.3,618.7l10.6-2.7l5.4,26.1l-10.1,2.3L381.3,618.7z"/>
	<path id="Mz-1_Lt-38" class="st2" d="M397.4,642.2l-5.5-26l9.5-2.2l6,26L397.4,642.2z"/>
	<path id="Mz-1_Lt-9" class="st2" d="M402.5,668.9l-5.6-26.9l10.3-2.2l5.6,26.8L402.5,668.9z"/>
	<path id="Mz-1_Lt-8" sodipodi:nodetypes="ccccc" class="st2" d="M413,666.5l-5.8-26.7l10.3-2.1l5.8,26.5L413,666.5z"/>
	<path id="Mz-1_Lt-37" sodipodi:nodetypes="ccccc" class="st2" d="M407.3,639.6l-5.6-25.5l10.7-2.2l5,25.6L407.3,639.6z"/>
	<path id="Mz-1_Lt-7" class="st2" d="M423.5,664.5l-5.9-26.9l10.4-2.2l5.3,26.9L423.5,664.5z"/>
	<path id="Mz-1_Lt-36" sodipodi:nodetypes="ccccc" class="st2" d="M417.6,637.5l-5.4-25.6l10.2-2.3l5.8,26L417.6,637.5z"/>
	<path id="Mz-1_Lt-6" sodipodi:nodetypes="ccccc" class="st2" d="M433.8,662l-5.8-26.5l9.9-2l5.5,26.4L433.8,662z"/>
	<path id="Mz-1_Lt-35" sodipodi:nodetypes="ccccc" class="st2" d="M428.2,635.7l-5.8-25.9l9.9-2.1l5.5,25.7L428.2,635.7z"/>
	<path id="Mz-1_Lt-5" sodipodi:nodetypes="ccccc" class="st2" d="M444,659.9l-5.9-26.5l9.7-2.3l6,26.5L444,659.9z"/>
	<path id="Mz-1_Lt-34" class="st2" d="M437.8,633.4l-5.6-26l10.4-2.5l5.6,26.3L437.8,633.4z"/>
	<path id="Mz-1_Lt-4" class="st2" d="M453.5,658l-5.9-27l10.6-2.4l6.1,27L453.5,658z"/>
	<path id="Mz-1_Lt-33" sodipodi:nodetypes="ccccc" class="st2" d="M448.2,631.1l-5.7-25.7l9.9-2.1l5.5,25.5L448.2,631.1z"/>
	<path id="Mz-1_Lt-3" class="st2" d="M464.3,655.4l-6-26.4l10.3-2.6l5.5,26.9L464.3,655.4z"/>
	<path id="Mz-1_Lt-32" class="st2" d="M458,628.7l-5.6-25.6l10.8-2.3l5.4,25.9L458,628.7z"/>
	<path id="Mz-1_Lt-2" sodipodi:nodetypes="ccccc" class="st2" d="M474,653.5l-5.6-27l9.8-2.1l5.9,26.8L474,653.5z"/>
	<path id="Mz-1_Lt-31" sodipodi:nodetypes="ccccc" class="st2" d="M468.7,626.6l-5.4-25.7l16.9-3.7l8.6,25.2L468.7,626.6z"/>
	<path id="Mz-1_Lt-1" class="st2" d="M484.3,651.3l-6-27l10.7-2l8.8,26L484.3,651.3z"/>
	<path id="Mz-2_Lt-1" class="st2" d="M463.8,579.1l-16.1-45.2l9.3-3.6l15.9,47.2L463.8,579.1z"/>
	<path id="Mz-2_Lt-2" class="st2" d="M453.3,581.7l-15.9-44.5l10.4-3.5l15.9,45.7L453.3,581.7z"/>
	<path id="Mz-2_Lt-3" class="st2" d="M437.6,537.3l-10,3.6l15.6,43l10.1-2.5L437.6,537.3z"/>
	<path id="Mz-2_Lt-4" class="st2" d="M433.3,586l-15.4-42.3l9.7-3l15.7,42.8L433.3,586z"/>
	<path id="Mz-2_Lt-5" sodipodi:nodetypes="ccccc" class="st2" d="M422.2,588.1l11.4-2.5l-15.9-41.4l-10,3.1L422.2,588.1z"/>
	<path id="Mz-2_Lt-6" class="st2" d="M422.2,587.9l-10.4,2.7L398,550.5l10.2-3.3L422.2,587.9z"/>
	<path id="Mz-2_Lt-7" class="st2" d="M412,590.5l-10.8,2.1l-13.4-38.8l10.6-3.2L412,590.5z"/>
	<path id="Mz-2_Lt-8" sodipodi:nodetypes="ccccc" class="st2" d="M401,592.9l-9.6,2l-12.3-38.2l8.1-2.6L401,592.9z"/>
	<path id="Mz-2_Lt-9" class="st2" d="M381.7,597.1l-13.3-36.8l10.8-3.6l12.3,38.4L381.7,597.1z"/>
	<path id="Mz-2_Lt-10" sodipodi:nodetypes="ccccc" class="st2" d="M371.6,599l-13.3-34.7l10.6-3.5l12.8,36.5L371.6,599z"/>
	<path id="Mz-2_Lt-11" sodipodi:nodetypes="ccccc" class="st2" d="M372.3,599l-11.4,2.2L348.1,567l10-2.8L372.3,599z"/>
	<path id="Mz-2_Lt-12" class="st2" d="M361.4,601.6l-10.6,2.3l-12.4-33.5l10-3.4L361.4,601.6z"/>
	<path id="Mz-2_Lt-13" sodipodi:nodetypes="ccccc" class="st2" d="M351.3,603.7l-10.4,2.2l-12.6-32.1l10.2-3.3L351.3,603.7z"/>
	<path id="Mz-2_Lt-14" class="st2" d="M340.4,606l-10.9,2.7l-11.5-31l10.8-3.7L340.4,606z"/>
	<path id="Mz-2_Lt-15" sodipodi:nodetypes="ccccc" class="st2" d="M329,608.4l-9.7,1.9l-10.5-29.6l9.5-3.2L329,608.4z"/>
	<path id="Mz-2_Lt-16" class="st2" d="M319.6,610l-10.3,2.6l-10.8-28.7l10.4-3.5L319.6,610z"/>
	<path id="Mz-2_Lt-17" sodipodi:nodetypes="ccccc" class="st2" d="M309.2,612.5l-10.1,2.7l-10-28.1l9.5-3.2L309.2,612.5z"/>
	<path id="Mz-2_Lt-18" class="st2" d="M299,615.4l-9.8,2.2l-9.5-26.9l10.1-3.8L299,615.4z"/>
	<path id="Mz-2_Lt-19" class="st2" d="M289.6,617l-10.2,2.3l-9.1-26l9.7-3L289.6,617z"/>
	<path id="Mz-2_Lt-20" sodipodi:nodetypes="ccccc" class="st2" d="M280.2,619.3l-10.6,2.2l-8.7-24.8l9.3-3L280.2,619.3z"/>
	<path id="Mz-2_Lt-21" class="st2" d="M269.2,621.8l-10.6,2.6l-8.2-23.9l10.6-4.1L269.2,621.8z"/>
	<path id="Mz-2_Lt-22" class="st2" d="M258.5,624.4l-86,17.9c0,0-6.9-2.6-6.7-6.4c0.2-3.8,1.5-7.3,1.5-7.3l83.3-28.2L258.5,624.4z"
		/>
	<path id="Mz-3_Lt-1" sodipodi:nodetypes="ccccc" class="st2" d="M451.2,518.9l-9.8,3l-9.3-26.7l8.7-3.2L451.2,518.9z"/>
	<path id="Mz-3_Lt-28" sodipodi:nodetypes="ccccc" class="st2" d="M431.7,494.6l-8.4-25.3l8.7-2.8l8.9,25L431.7,494.6z"/>
	<path id="Mz-3_Lt-2" sodipodi:nodetypes="ccccc" class="st2" d="M441.8,521.7l-9.4-26.6l-10.1,3.5l8.7,26.7L441.8,521.7z"/>
	<path id="Mz-3_Lt-29" sodipodi:nodetypes="ccccc" class="st2" d="M422.4,499l-9-26.3l9.9-2.7l8.9,25.1L422.4,499z"/>
	<path id="Mz-3_Lt-3" class="st2" d="M430.3,524.8l-8.4-26.2l-9.9,3.3l8.8,26.4L430.3,524.8z"/>
	<path id="Mz-3_Lt-30" sodipodi:nodetypes="ccccc" class="st2" d="M411.5,502l-7.9-25.7l10.7-3.4l7.8,25.7L411.5,502z"/>
	<path id="Mz-3_Lt-4" class="st2" d="M421.1,527.9l-9.8,3.5l-8.6-27.1l9.4-2.8L421.1,527.9z"/>
	<path id="Mz-3_Lt-31" sodipodi:nodetypes="ccccc" class="st2" d="M402.4,504.5l-8.2-25.2l9.6-3.1l8.1,25.4L402.4,504.5z"/>
	<path id="Mz-3_Lt-32" class="st2" d="M402.9,504.5l-11,4.3l-8.4-25.7l10.8-3.6L402.9,504.5z"/>
	<path id="Mz-3_Lt-5" class="st2" d="M401.3,534.9l-8.6-26.5L403,505l8.4,26.4L401.3,534.9z"/>
	<path id="Mz-3_Lt-6" sodipodi:nodetypes="ccccc" class="st2" d="M391.8,538.5l-9.7-27.3l10.8-3.2l8.5,26.8L391.8,538.5z"/>
	<path id="Mz-3_Lt-33" sodipodi:nodetypes="ccccc" class="st2" d="M381.5,511.4l-7.9-25.6l9.8-2.8l8.7,25L381.5,511.4z"/>
	<path id="Mz-3_Lt-7" sodipodi:nodetypes="ccccc" class="st2" d="M392.2,537.6L381,541l-8.3-26.8l9.4-2.9L392.2,537.6z"/>
	<path id="Mz-3_Lt-34" sodipodi:nodetypes="ccccc" class="st2" d="M372.8,514.3l-9.2-25l10.3-2.8l8.1,25.4L372.8,514.3z"/>
	<path id="Mz-3_Lt-8" class="st2" d="M381.2,541.4l-8.4-26.2l-10.2,3l8.8,26.7L381.2,541.4z"/>
	<path id="Mz-3_Lt-35" class="st2" d="M362.9,518.7l-9.5-26.2l10.7-3.4l8.7,25.5L362.9,518.7z"/>
	<path id="Mz-3_Lt-36" class="st2" d="M362.4,518l-10.2,3.4l-8.7-25.7l10.3-3.4L362.4,518z"/>
	<path id="Mz-3_Lt-9" sodipodi:nodetypes="ccccc" class="st2" d="M361.8,547.9l-9-26.2l10.4-3.8l8.7,26.3L361.8,547.9z"/>
	<path id="Mz-3_Lt-10" class="st2" d="M361.6,547.4l-9.2-26.1l-10.3,3.5l9.2,26.9L361.6,547.4z"/>
	<path id="Mz-3_Lt-37" class="st2" d="M342.7,524.6l-9.6-25.2l10.8-3.6l8.8,25.5L342.7,524.6z"/>
	<path id="Mz-3_Lt-11" class="st2" d="M351.4,551.2l-9.9,3.3l-9.3-27l10.4-2.7L351.4,551.2z"/>
	<path id="Mz-3_Lt-38" class="st2" d="M332.7,527.8l-8.7-25.5l10-2.8l8.6,25.2L332.7,527.8z"/>
	<path id="Mz-3_Lt-12" sodipodi:nodetypes="ccccc" class="st2" d="M341.6,554.4l-10.3,2.8l-9.1-26.6l10.8-3.2L341.6,554.4z"/>
	<path id="Mz-3_Lt-39" sodipodi:nodetypes="ccccc" class="st2" d="M322.6,531.3l-9.1-25.8l9.6-3.2l9.7,25.8L322.6,531.3z"/>
	<path id="Mz-3_Lt-13" class="st2" d="M331.4,557.4l-9-26.1l-9.4,3.5l8.7,25.6L331.4,557.4z"/>
	<path id="Mz-3_Lt-40" class="st2" d="M313.2,534.6l-8.8-25.7l9.2-3l9.1,25.2L313.2,534.6z"/>
	<path id="Mz-3_Lt-14" class="st2" d="M312.1,564.1l-8.9-26.8l9.9-3l8.7,26.3L312.1,564.1z"/>
	<path id="Mz-3_Lt-41" class="st2" d="M303.3,537.5l-9.1-25.4l10.4-3.3l8.6,25.5L303.3,537.5z"/>
	<path id="Mz-3_Lt-15" class="st2" d="M312.1,564l-10,3.4l-9.1-26.9l10.4-3.4L312.1,564z"/>
	<path id="Mz-3_Lt-42" class="st2" d="M293.1,540.7l-8.9-25.2l10.2-3.2l8.7,25.2L293.1,540.7z"/>
	<path id="Mz-3_Lt-16" class="st2" d="M292.1,570.7l-8.5-27.1l9.4-2.9l8.7,26.7L292.1,570.7z"/>
	<path id="Mz-3_Lt-43" class="st2" d="M283.6,543.7l-9-25.1l9.7-3.1l8.6,25L283.6,543.7z"/>
	<path id="Mz-33_Lt-17" class="st2" d="M292.1,570.6l-9.3,2.9l-9-26.7l9.8-3L292.1,570.6z"/>
	<path id="Mz-3_Lt-44" sodipodi:nodetypes="ccccc" class="st2" d="M273.9,546.7l-9.1-24.7l9.8-3.1l8.9,24.9L273.9,546.7z"/>
	<path id="Mz-3_Lt-18" class="st2" d="M282.8,573.6l-9.2,3l-9.4-26.2l9.6-3.5L282.8,573.6z"/>
	<path id="Mz-3_Lt-45" sodipodi:nodetypes="ccccc" class="st2" d="M264.2,550.3l-8.7-25.3l9.6-3.1l9,24.5L264.2,550.3z"/>
	<path id="Mz-3_Lt-19" class="st2" d="M273.6,576.5l-10.5,3.6l-8.9-26.3l10.4-3.3L273.6,576.5z"/>
	<path id="Mz-3_Lt-46" sodipodi:nodetypes="ccccc" class="st2" d="M254.5,553.4l-9.2-24.9l9.8-3.1l9.3,25.1L254.5,553.4z"/>
	<path id="Mz-3_Lt-20" class="st2" d="M263.3,580l-9.9,3.1l-9.2-26.2l9.7-3.2L263.3,580z"/>
	<path id="Mz-3_Lt-47" class="st2" d="M244.5,556.8l-9.1-25.1l10.2-3.2l9,25L244.5,556.8z"/>
	<path id="Mz-3_Lt-21" sodipodi:nodetypes="ccccc" class="st2" d="M253.4,583.2l-9.3,2.9l-9.4-25.7l9.7-3.4L253.4,583.2z"/>
	<path id="Mz-3_Lt-48" sodipodi:nodetypes="ccccc" class="st2" d="M235.1,560.4l-9.2-25.5l9.7-3.2l8.9,25.2L235.1,560.4z"/>
	<path id="Mz-3_Lt-22" class="st2" d="M244.3,586.2l-10.5,3.3l-8.4-26.2l9.4-3.2L244.3,586.2z"/>
	<path id="Mz-3_Lt-49" sodipodi:nodetypes="ccccc" class="st2" d="M225.4,563.4l-8.6-25.5l9.2-2.9l9.1,25L225.4,563.4z"/>
	<path id="Mz-3_Lt-23" class="st2" d="M233.9,589.7l-9.5,3l-8.9-26.4l9.9-3L233.9,589.7z"/>
	<path id="Mz-3_Lt-50" sodipodi:nodetypes="ccccc" class="st2" d="M215.6,566.5l-8.8-25.5l9.7-3l9.2,25.1L215.6,566.5z"/>
	<path id="Mz-3_Lt-24" class="st2" d="M224.5,592.6l-9.8,3.5l-8.8-26.6l9.8-3.2L224.5,592.6z"/>
	<path id="Mz-3_Lt-51" sodipodi:nodetypes="ccccc" class="st2" d="M206.2,569.4l-8.9-25.1l9.4-3l9,24.8L206.2,569.4z"/>
	<path id="Mz-3_Lt-25" class="st2" d="M214.3,595.7L205,599l-8.7-26.3l9.6-3.1L214.3,595.7z"/>
	<path id="Mz-3_Lt-52" class="st2" d="M196.6,573.1l-9-25.5l9.6-3.3l9,25.2L196.6,573.1z"/>
	<path id="Mz-3_Lt-26" class="st2" d="M187.1,576.5l9.8-3.7l8.4,26l-9.8,3.3L187.1,576.5z"/>
	<path id="Mz-3_Lt-53" sodipodi:nodetypes="ccccc" class="st2" d="M196.4,572.9l-26.1,8.3l3.3-29.3l13.7-4.4L196.4,572.9z"/>
	<path id="Mz-3_Lt-27" class="st2" d="M166.5,611.6l3.9-30.4l16.5-5.3l8.9,26.3L166.5,611.6z"/>
	<path id="Mz-4_Lt-1" sodipodi:nodetypes="ccccc" class="st2" d="M406.6,387.1l-10.6,3.3l-12.2-34.3l10.1-4.1L406.6,387.1z"/>
	<path id="Mz-4_Lt-25" sodipodi:nodetypes="ccccc" class="st2" d="M384.3,356.1l-12.7-35.9l9.8-3.3l12.6,35.5L384.3,356.1z"/>
	<path id="Mz-4_Lt-2" class="st2" d="M386.7,393.7l-11.8-34.3l9.4-3.3l12.6,34.3L386.7,393.7z"/>
	<path id="Mz-4_Lt-26" class="st2" d="M375.3,359.7l-12.6-35.1l9.3-3.7l12.2,35.1L375.3,359.7z"/>
	<path id="Mz-4_Lt-27" class="st2" d="M374.5,359.4l-9.3,3.7L352.5,328l10.2-3.3L374.5,359.4z"/>
	<path id="Mz-4_Lt-3" class="st2" d="M376.5,396.6l-11.8-33.9l10.2-3.3l12.1,33.9L376.5,396.6z"/>
	<path id="Mz-4_Lt-4" sodipodi:nodetypes="ccccc" class="st2" d="M367.1,399.9L355.4,366l10.2-3.3l11.8,34.3L367.1,399.9z"/>
	<path id="Mz-4_Lt-28" class="st2" d="M354.6,366.8l-11.4-34.7l10.1-4.1l11.8,34.7L354.6,366.8z"/>
	<path id="Mz-4_Lt-29" sodipodi:nodetypes="ccccc" class="st2" d="M344.8,369.7l-11-34l10.1-3.7l11.4,34.8L344.8,369.7z"/>
	<path id="Mz-4_Lt-5" sodipodi:nodetypes="ccccc" class="st2" d="M356.6,403.3l-11.8-33.9l11.3-3.4l10.2,34.4L356.6,403.3z"/>
	<path id="Mz-4_Lt-6" class="st2" d="M346.8,406.6l-11.7-33.2l10.5-3.7l11.7,33.5L346.8,406.6z"/>
	<path id="Mz-4_Lt-30" sodipodi:nodetypes="ccccc" class="st2" d="M335.5,373.8l-12.2-34.3l10.1-3.7l11.4,34.4L335.5,373.8z"/>
	<path id="Mz-4_Lt-7" sodipodi:nodetypes="ccccc" class="st2" d="M346.1,407l-9.8,2.5l-11.6-32l11-3L346.1,407z"/>
	<path id="Mz-4_Lt-31" sodipodi:nodetypes="ccccc" class="st2" d="M325,377.5l-11.8-33.9l10.5-4.1l11.8,34.3L325,377.5z"/>
	<path id="Mz-4_Lt-8" class="st2" d="M336.6,409.5l-10.2,3.3l-10.8-31.6l9.7-3.7L336.6,409.5z"/>
	<path id="Mz-4_Lt-32" sodipodi:nodetypes="ccccc" class="st2" d="M316.1,381.2l-12.5-33.9l10.1-3.7l12.1,33.9L316.1,381.2z"/>
	<path id="Mz-4_Lt-9" sodipodi:nodetypes="ccccc" class="st2" d="M327.7,412.8l-10.6,3.3l-11.2-30.8l10.1-3.7L327.7,412.8z"/>
	<path id="Mz-4_Lt-33" class="st2" d="M306.4,385.7L293.8,351l10.1-3.7l11.8,34.7L306.4,385.7z"/>
	<path id="Mz-4_Lt-10" class="st2" d="M317.1,416.1l-10.9,3.8l-9.6-31.3l9.7-3.7L317.1,416.1z"/>
	<path id="Mz-4_Lt-34" class="st2" d="M296.6,388.6l-12.2-34.3l9.8-3.3l12.1,33.9L296.6,388.6z"/>
	<path id="Mz-4_Lt-11" sodipodi:nodetypes="ccccc" class="st2" d="M307,419.8l-10.2,2.9l-10-30.5l10.2-3.3L307,419.8z"/>
	<path id="Mz-4_Lt-35" sodipodi:nodetypes="ccccc" class="st2" d="M286.8,392.3L275,358.4l9.3-3.7l12.2,34.7L286.8,392.3z"/>
	<path id="Mz-4_Lt-12" sodipodi:nodetypes="ccccc" class="st2" d="M297.2,423.1l-9.8,2.9l-10-30.1l10.1-3.7L297.2,423.1z"/>
	<path id="Mz-4_Lt-36" sodipodi:nodetypes="ccccc" class="st2" d="M277.1,395.6l-11.7-33.5l9.3-3.7l12.5,33.5L277.1,395.6z"/>
	<path id="Mz-4_Lt-13" class="st2" d="M287.5,426.4l-10.1,3.7l-10-30.1l10.2-3.3L287.5,426.4z"/>
	<path id="Mz-4_Lt-37" class="st2" d="M268.2,399.7l-12.1-33.9l10.1-4.1l11.4,34.4L268.2,399.7z"/>
	<path id="Mz-4_Lt-14" class="st2" d="M277.3,429.8l-9.4,2.9l-9.9-29.3l10.2-3.3L277.3,429.8z"/>
	<path id="Mz-4-Lt-38" sodipodi:nodetypes="ccccc" class="st2" d="M258.1,403.8l-11.4-34.4l10.1-4.1l11.4,34.8L258.1,403.8z"/>
	<path id="Mz-4_Lt-15" class="st2" d="M267.9,432.7l-9,2.9l-10.3-28.5l9.8-3.3L267.9,432.7z"/>
	<path id="Mz-4_Lt-39" sodipodi:nodetypes="ccccc" class="st2" d="M249.1,407l-12.2-34.3l9.8-3.3l11.8,33.9L249.1,407z"/>
	<path id="Mz-4_Lt-16" class="st2" d="M259.8,435.5l-10.9,3.4l-9.8-28.1l10.2-3.3L259.8,435.5z"/>
	<path id="Mz-4_Lt-40" sodipodi:nodetypes="ccccc" class="st2" d="M248.7,407.1l-9.7,4.1l-12.2-34.3l10.1-3.7L248.7,407.1z"/>
	<path id="Mz-4_Lt-17" class="st2" d="M249.2,438.4l-10.1,3.7l-9.8-27.7l9.8-3.3L249.2,438.4z"/>
	<path id="Mz-4_Lt-41" sodipodi:nodetypes="ccccc" class="st2" d="M229.2,414.5l-11.8-33.9l9.8-3.3l11.7,33.2L229.2,414.5z"/>
	<path id="Mz-4_Lt-18" class="st2" d="M239.4,442.1l-10.2,3.3l-9-27.3l9.7-3.7L239.4,442.1z"/>
	<path id="Mz-4_Lt-42" class="st2" d="M220.7,418.5l-12.2-34.3l9.3-4.1l12.2,34.7L220.7,418.5z"/>
	<path id="Mz-4_Lt-19" class="st2" d="M229.3,445.1l-9.3,3.7l-9.4-26.5l10.2-3.3L229.3,445.1z"/>
	<path id="Mz_4_Lt-43" sodipodi:nodetypes="ccccc" class="st2" d="M211.4,423l-12.6-35.1l10.1-3.7l11.8,33.9L211.4,423z"/>
	<path id="Mz-4_Lt-20" sodipodi:nodetypes="ccccc" class="st2" d="M220.7,448.7l-10.2,3.3l-9-26.1l9.7-3.7L220.7,448.7z"/>
	<path id="Mz-4_Lt-44" sodipodi:nodetypes="ccccc" class="st2" d="M201.2,425.1l-12.1-33.5l9.8-3.3l12.5,33.9L201.2,425.1z"/>
	<path id="Mz-4_Lt-21" class="st2" d="M211.4,452l-10.2,2.9l-8.5-25.4l9.4-3.3L211.4,452z"/>
	<path id="Mz-4_Lt-45" class="st2" d="M192.7,429.1l-13-34.3l9.4-2.9l12.1,33.9L192.7,429.1z"/>
	<path id="Mz-4_Lt-22" sodipodi:nodetypes="ccccc" class="st2" d="M200.4,455l-9.8,3.3l-8.5-25l10.5-4.1L200.4,455z"/>
	<path id="Mz-4_Lt-46" sodipodi:nodetypes="ccccc" class="st2" d="M182.5,433.3L170,399.4l9.7-3.7l12.9,33.5L182.5,433.3z"/>
	<path id="Mz-4_Lt-23" sodipodi:nodetypes="ccccc" class="st2" d="M191.8,458.2l-10.6,3.3l-9.3-24.9l10.9-3.8L191.8,458.2z"/>
	<path id="Mz-4_Lt-24" sodipodi:nodetypes="ccccc" class="st2" d="M180.9,462l-26.9,9l4-29.6l14.1-4.7L180.9,462z"/>
	<path id="Mz-4_Lt-47" sodipodi:nodetypes="ccccc" class="st2" d="M182.5,432.5l-24.5,9.3l3.8-39.5l8.6-2.8L182.5,432.5z"/>
	<path id="Mz-5_Lt-5" sodipodi:nodetypes="ccccc" class="st2" d="M334.6,269.3l-4.7-12l25.2-9.6l3.9,11.7L334.6,269.3z"/>
	<path id="Mz-5_Lt-1" sodipodi:nodetypes="ccccc" class="st2" d="M349,307.8l-4.2-10.1l23.6-9.9l4.3,11.7L349,307.8z"/>
	<path id="Mz-5_Lt-2" sodipodi:nodetypes="ccccc" class="st2" d="M344.8,298.1l-3.8-9.3l24.8-9.9l3,9.7L344.8,298.1z"/>
	<path id="Mz-5_Lt-3" sodipodi:nodetypes="ccccc" class="st2" d="M341.8,289.2l-4.2-10.5l25.3-9.2l3,10.1L341.8,289.2z"/>
	<path id="Mz-5_Lt-4" sodipodi:nodetypes="ccccc" class="st2" d="M337.6,279.1l-3.5-10.5l25.3-9.2l3.4,10.1L337.6,279.1z"/>
	<path id="Mz-5_Lt-6" class="st2" d="M348.3,309l-9.3-26.8l-10.1,4.2l9.6,26L348.3,309z"/>
	<path id="Mz-5_Lt-24" class="st2" d="M329.7,286.8l-10-25.6l11.3-4.3l8.8,25.3L329.7,286.8z"/>
	<path id="Mz-5_Lt-7" sodipodi:nodetypes="ccccc" class="st2" d="M339.3,312.4l-10.1,4.2l-9.7-26.8l10.1-3.4L339.3,312.4z"/>
	<path id="Mz-5_Lt-25" sodipodi:nodetypes="ccccc" class="st2" d="M319.2,290.2l-9.1-24.9l10.5-3.8l8.7,24.9L319.2,290.2z"/>
	<path id="Mz-5_Lt-26" sodipodi:nodetypes="ccccc" class="st2" d="M309.9,294.4l-8.8-25.3l8.9-3.7l10,25.2L309.9,294.4z"/>
	<path id="Mz-5_Lt-8" sodipodi:nodetypes="ccccc" class="st2" d="M318.7,320.1l-8.8-26.5l9.7-3.4l9.6,26.4L318.7,320.1z"/>
	<path id="Mz-5_Lt-9" sodipodi:nodetypes="ccccc" class="st2" d="M309.9,324.2l-10-26.4l9.7-3.8l9.6,26.4L309.9,324.2z"/>
	<path id="Mz-5_Lt-27" sodipodi:nodetypes="ccccc" class="st2" d="M300.7,298.5l-9.6-25.2l10.1-4.2l8.8,25.3L300.7,298.5z"/>
	<path id="Mz-5_Lt-10" sodipodi:nodetypes="ccccc" class="st2" d="M309.9,324.2l-9.7,3.4l-9.2-26.5l9.3-3.8L309.9,324.2z"/>
	<path id="Mz-5_Lt-28" sodipodi:nodetypes="ccccc" class="st2" d="M291.3,301.5l-9.5-24.8l9.3-3.4l9.5,24.4L291.3,301.5z"/>
	<path id="Mz-5_Lt-11" class="st2" d="M300.9,327.9l-10.1,3.4l-10.1-26.8l10.1-3L300.9,327.9z"/>
	<path id="Mz-5_Lt-29" class="st2" d="M281.6,305.3l-9.9-24.4l10.9-4.3l9.1,24.5L281.6,305.3z"/>
	<path id="Mz-5_Lt-12" sodipodi:nodetypes="ccccc" class="st2" d="M282.7,335.5l-10.4-26.8l8.5-3.3l10.8,26.4L282.7,335.5z"/>
	<path id="Mz-5_Lt-30" sodipodi:nodetypes="ccccc" class="st2" d="M272.7,309.1l-9.9-24.8l8.5-3.3l9.9,24.4L272.7,309.1z"/>
	<path id="Mz-5_Lt-13" sodipodi:nodetypes="ccccc" class="st2" d="M271.5,339.8l-9.7-27.2l10.9-3.9l9.7,27.2L271.5,339.8z"/>
	<path id="Mz-5_Lt-31" sodipodi:nodetypes="ccccc" class="st2" d="M262.6,312.9l-8.7-24.5l9.3-3.4l9.1,23.7L262.6,312.9z"/>
	<path id="Mz-5_Lt-14" class="st2" d="M271.8,339.3l-9.3,4.2l-9.7-27.2l9.4-3L271.8,339.3z"/>
	<path id="Mz-5_Lt-32" sodipodi:nodetypes="ccccc" class="st2" d="M253.3,317.1l-9.2-25.3l8.9-3.4l9.1,24.5L253.3,317.1z"/>
	<path id="Mz-5_Lt-15" class="st2" d="M262.9,343.1l-9.7,4.2l-9.7-27.2l10.1-3.8L262.9,343.1z"/>
	<path id="Mz-5_Lt-33" sodipodi:nodetypes="ccccc" class="st2" d="M244,320.4l-9.1-24.9l9.3-3.4l8.7,24.9L244,320.4z"/>
	<path id="Mz-5_Lt-16" class="st2" d="M243.9,350.3l-10-26l10.1-4.2l9.7,26.8L243.9,350.3z"/>
	<path id="Mz-5_Lt-34" sodipodi:nodetypes="ccccc" class="st2" d="M234.3,324.2l-9.9-23.6l9.7-4.2L244,320L234.3,324.2z"/>
	<path id="Mz-5_Lt-17" class="st2" d="M243.9,350.3l-10.1,3.8l-9.2-25.7l9.7-3.8L243.9,350.3z"/>
	<path id="Mz-5_Lt-35" sodipodi:nodetypes="ccccc" class="st2" d="M224.7,328.8l-8.7-24.9l8.9-3.7l9.1,24.5L224.7,328.8z"/>
	<path id="Mz-5_Lt-18" class="st2" d="M233.8,354.1l-8.5,4.1l-9.6-26.4l9-3L233.8,354.1z"/>
	<path id="Mz-5_Lt-36" sodipodi:nodetypes="ccccc" class="st2" d="M215.7,332.2l-8.7-24.5l9.3-3.8l8.4,25.7L215.7,332.2z"/>
	<path id="Mz-5_Lt-19" class="st2" d="M224.9,357.8l-9.3,4.2l-9.2-26.1l9.7-4.2L224.9,357.8z"/>
	<path id="Mz-5_Lt-37" sodipodi:nodetypes="ccccc" class="st2" d="M206.1,336.8c-0.1-1.6-8-25.3-8-25.3l8.5-3.3l9.9,24L206.1,336.8z
		"/>
	<path id="Mz-5_Lt-20" sodipodi:nodetypes="ccccc" class="st2" d="M216,362l-9,3l-9.5-24.8l8.9-3.7L216,362z"/>
	<path id="Mz-5_Lt-38" sodipodi:nodetypes="ccccc" class="st2" d="M197.6,340.5l-9.6-25.2l9.3-3.8l8.7,24.9L197.6,340.5z"/>
	<path id="Mz-5_Lt-21" class="st2" d="M206.7,365.3l-9.3,3.8l-9.2-25.7l9.7-3.4L206.7,365.3z"/>
	<path id="Mz-5_Lt-39" class="st2" d="M188.6,343.4l-9.5-24.8l9.3-3.8l8.8,25.7L188.6,343.4z"/>
	<path id="Mz-5_Lt-22" class="st2" d="M197,369.1l-8.5,3.7l-9.6-25.2l9.7-3.8L197,369.1z"/>
	<path id="Mz-5_Lt-23" sodipodi:nodetypes="ccccc" class="st2" d="M188.1,372.9l-24.4,9.9l3.2-30.4l12-5.1L188.1,372.9z"/>
	<path id="Mz-5_Lt-40" sodipodi:nodetypes="ccccc" class="st2" d="M166.9,352.4l21.7-8.9l-9.1-24.5l-9.7,3.4L166.9,352.4z"/>
	<path id="Mz-6_Lt-1" class="st2" d="M349.4,230.2l-9.5-26.1l-8.9,3.7l9.5,26.1L349.4,230.2z"/>
	<path id="Mz-6_Lt-18" sodipodi:nodetypes="ccccc" class="st2" d="M331.5,207.7l-9.4-25.3l9-3.3l9.4,25.3L331.5,207.7z"/>
	<path id="Mz-6_Lt-2" sodipodi:nodetypes="ccccc" class="st2" d="M330.8,237.6l-9.9-26.5l10.1-3.8l9.7,26.3L330.8,237.6z"/>
	<path id="Mz-6_Lt-19" sodipodi:nodetypes="ccccc" class="st2" d="M321.3,211.1l-9-24.9l9.3-3.5l10.2,25.1L321.3,211.1z"/>
	<path id="Mz-6_Lt-3" sodipodi:nodetypes="ccccc" class="st2" d="M321.8,240.9l-9.4-25.7l8.9-3.7l9.6,25.9L321.8,240.9z"/>
	<path id="Mz-6_Lt-20" sodipodi:nodetypes="ccccc" class="st2" d="M312.4,214.4l-9-24.5l9.3-3.7l9,25.3L312.4,214.4z"/>
	<path id="Mz-6_Lt-4" class="st2" d="M321.8,240.5l-10.9,4.2l-9.8-25.7l11.7-4.2L321.8,240.5z"/>
	<path id="Mz-6_Lt-21" sodipodi:nodetypes="ccccc" class="st2" d="M301.9,218.6l-8.6-24.9l10.5-3.8l8.2,25L301.9,218.6z"/>
	<path id="Mz-6_Lt-5" class="st2" d="M310.9,245.1l-9.3,3.7l-9.5-26.1l9.7-3.7L310.9,245.1z"/>
	<path id="Mz-6_Lt-22" sodipodi:nodetypes="ccccc" class="st2" d="M292.6,222.7l-8.2-25l9.3-3.7l9,25.3L292.6,222.7z"/>
	<path id="Mz-6_Lt-6" sodipodi:nodetypes="ccccc" class="st2" d="M302,248.4l-8.9,3.7l-10.2-25.6l10.1-3.8L302,248.4z"/>
	<path id="Mz-6_Lt-23" class="st2" d="M283.6,226.4l-9-25.3l9.3-3.7l9,24.9L283.6,226.4z"/>
	<path id="Mz-6_Lt-7" sodipodi:nodetypes="ccccc" class="st2" d="M282.9,255.9l9.7-3.3l-9.5-26.1l-9.3,3.7L282.9,255.9z"/>
	<path id="Mz-6_Lt-24" class="st2" d="M273.5,230.6l-9-25.3l10.1-4.2l9,25.7L273.5,230.6z"/>
	<path id="Mz-6_Lt-8" sodipodi:nodetypes="ccccc" class="st2" d="M273.7,260.4l-9.1-26.5l9-3.3l9.5,26.1L273.7,260.4z"/>
	<path id="Mz-6_Lt-25" sodipodi:nodetypes="ccccc" class="st2" d="M265,233.8l-9.4-24.9l10.1-3.8l8.2,24.6L265,233.8z"/>
	<path id="Mz-6_Lt-9" class="st2" d="M274,259.9l-9.5-26.5l-9.7,4.5l9,25.7L274,259.9z"/>
	<path id="Mz-6_Lt-26" sodipodi:nodetypes="ccccc" class="st2" d="M255.3,237.6l8.9-3.7l-9.4-24.9l-8.5,3.7L255.3,237.6z"/>
	<path id="Mz-6_Lt-27" class="st2" d="M244.7,241l-8.9-24.1l10.5-4.2l8.6,25.3L244.7,241z"/>
	<path id="Mz-6_Lt-10" sodipodi:nodetypes="ccccc" class="st2" d="M254.6,267.4l-9.4-25.3l9.3-3.7l9.4,25.7L254.6,267.4z"/>
	<path id="Mz-6_Lt-11" class="st2" d="M245.6,270.7l-9-24.9l8.1-3.6l9.4,25.3L245.6,270.7z"/>
	<path id="Mz-6_Lt-28" class="st2" d="M235.4,245.5l-9-25.3l9-3.3l9.4,25.3L235.4,245.5z"/>
	<path id="Mz-6_Lt-29" sodipodi:nodetypes="ccccc" class="st2" d="M226.9,249.1l-10.2-25.2l9.3-3.7l10.2,26L226.9,249.1z"/>
	<path id="Mz-6_Lt-12" class="st2" d="M235.6,274.9l-9-24.9l9.3-3.7l10.2,24.5L235.6,274.9z"/>
	<path id="Mz-6_Lt-13" sodipodi:nodetypes="ccccc" class="st2" d="M226.6,278.6l-9.4-24.5l9.3-3.7l9.4,24.5L226.6,278.6z"/>
	<path id="Mz-6_Lt-30" sodipodi:nodetypes="ccccc" class="st2" d="M217.2,253.7l-9.8-25.3l8.9-3.7l10.2,25.2L217.2,253.7z"/>
	<path id="Mz-6_Lt-14" sodipodi:nodetypes="ccccc" class="st2" d="M217.3,282.5l-10.2-25.1l10.1-3.4l8.8,24.9L217.3,282.5z"/>
	<path id="Mz-6_Lt31" class="st2" d="M207.1,257l-9.4-24.9l9.3-3.7l9.4,25.3L207.1,257z"/>
	<path id="Mz-6_Lt-16" sodipodi:nodetypes="ccccc" class="st2" d="M198.2,290.2l-8.9-25.1l9.4-3.5l9.7,24.8L198.2,290.2z"/>
	<path id="Mz-6_Lt-15" sodipodi:nodetypes="ccccc" class="st2" d="M207.2,286l-9.8-25.3l10.1-3.4l10.2,24.9L207.2,286z"/>
	<path id="Mz-6_Lt-32" sodipodi:nodetypes="ccccc" class="st2" d="M197.7,260l-9-24.5l8.6-3.3l9,24.9L197.7,260z"/>
	<path id="Mz-6_Lt-33" class="st2" d="M178,268.6l19.4-7.5l-9-25.3l-7.4,2.8L178,268.6z"/>
	<path id="Mz-6_Lt-17" sodipodi:nodetypes="ccccc" class="st2" d="M174.2,299.3c0.7-2,4.2-29.9,4.2-29.9l9.5-3.9l8.8,24.9
		L174.2,299.3z"/>
	<path id="Mz-10_Lt-1" sodipodi:nodetypes="ccccc" class="st2" d="M697.1,435.3L682,412.6l-19.6,5.8l8.9,25.8L697.1,435.3z"/>
	<path id="Mz-10_Lt-22" sodipodi:nodetypes="ccccc" class="st2" d="M662.9,418.5l-9.6-24.5l12.1-4l16.7,22.8L662.9,418.5z"/>
	<path id="Mz-10_Lt-2" sodipodi:nodetypes="ccccc" class="st2" d="M661.6,447.9l-9.7-26.1l10.6-2.9l8.5,25.6L661.6,447.9z"/>
	<path id="Mz-10_Lt-23" class="st2" d="M652.7,421.8l-9.6-24.1l10.5-3.7l8.4,24.6L652.7,421.8z"/>
	<path id="Mz-10_Lt-3" sodipodi:nodetypes="ccccc" class="st2" d="M651.3,451.1l-8.3-26.4l9.8-2.5l8.1,25.6L651.3,451.1z"/>
	<path id="Mz-10_Lt-24" sodipodi:nodetypes="ccccc" class="st2" d="M643,425.1l-8.8-24.6l9.4-3.3l8.9,25L643,425.1z"/>
	<path id="Mz-10_Lt-25" class="st2" d="M632.8,428.4l-9.2-24.5l10.2-3.3l8.5,25L632.8,428.4z"/>
	<path id="Mz-10_Lt-4" sodipodi:nodetypes="ccccc" class="st2" d="M641.5,454.4l-9.1-25.5l10.2-3.3l8.3,26.2L641.5,454.4z"/>
	<path id="Mz-10_Lt-5" sodipodi:nodetypes="ccccc" class="st2" d="M631.2,457.9l-9.7-26.1l11.3-3.8l8.5,26L631.2,457.9z"/>
	<path id="Mz-10_Lt-26" sodipodi:nodetypes="ccccc" class="st2" d="M621.8,431.4l-9.2-24.2l10.9-3.4l8.8,24.2L621.8,431.4z"/>
	<path id="Mz-10_Lt-6" class="st2" d="M621,460.8l-8.9-25.8l9.4-2.9l8.9,25.8L621,460.8z"/>
	<path id="Mz-10_Lt-27" class="st2" d="M612.1,434.7l-8.4-24.2l8.6-3.2l9.2,24.2L612.1,434.7z"/>
	<path id="Mz-10_Lt-7" class="st2" d="M611.6,464.1l-8.9-25l9.4-3.3l8.5,25L611.6,464.1z"/>
	<path id="Mz-10_Lt-28" sodipodi:nodetypes="ccccc" class="st2" d="M602.3,438.7l-9.7-24.9l10.2-3.3l8.8,24.6L602.3,438.7z"/>
	<path id="Mz-10_Lt-8" class="st2" d="M601.1,467.4l-8.9-25l10.1-3.7l9.3,25.7L601.1,467.4z"/>
	<path id="Mz-10_Lt-29" class="st2" d="M592.6,441.6l-9.6-24.1l10.1-3.7l8.8,24.6L592.6,441.6z"/>
	<path id="Mz-10_Lt-9" class="st2" d="M591.3,470.7L582,445l9.8-2.9l9.3,25.7L591.3,470.7z"/>
	<path id="Mz-10_Lt-30" class="st2" d="M582.8,444.9l-9.2-24.2l9.4-3.3l8.8,24.2L582.8,444.9z"/>
	<path id="Mz-10_Lt-10" class="st2" d="M582,474.4l-9.3-26.1l9.4-2.9l9.3,25.7L582,474.4z"/>
	<path id="Mz-10_Lt-31" class="st2" d="M572.6,448.3l-8.8-24.2l9.7-3.7l8.1,24.6L572.6,448.3z"/>
	<path id="Mz-10_Lt-11" class="st2" d="M571.4,477.3l-8.1-25.8l9.4-3.3l9.3,26.1L571.4,477.3z"/>
	<path id="Mz-10_Lt-32" class="st2" d="M562.5,451.2l-8.4-24.2l9.8-3.3l8.1,24.6L562.5,451.2z"/>
	<path id="Mz-10_Lt-12" class="st2" d="M562,480.2l-8.5-25l9.4-3.3l8.5,25.4L562,480.2z"/>
	<path id="Mz-10_Lt-33" sodipodi:nodetypes="ccccc" class="st2" d="M553.1,454.4l-8.8-24.2l10.2-3.3l7.7,25L553.1,454.4z"/>
	<path id="Mz-10_Lt-13" class="st2" d="M561.2,480.6l-9.4,3.3l-8.9-25.8l9.8-3.3L561.2,480.6z"/>
	<path id="Mz-10_Lt-34" class="st2" d="M543.4,458.1l-8.9-25l9.4-2.9l8.4,24.6L543.4,458.1z"/>
	<path id="Mz-10_Lt-14" class="st2" d="M542.9,486.8l-9.7-24.9l10.2-3.3l8.5,25.4L542.9,486.8z"/>
	<path id="Mz-10_Lt-35" sodipodi:nodetypes="ccccc" class="st2" d="M533.2,461.5l-8.9-25l10.2-3.3l8.5,25.4L533.2,461.5z"/>
	<path id="Mz-10_Lt-15" class="st2" d="M533.1,490.1l-9.7-25.3l9.8-2.9l8.9,25.4L533.1,490.1z"/>
	<path id="Mz-10_Lt-36" sodipodi:nodetypes="ccccc" class="st2" d="M523.8,464.3l-8.5-25.4l8.6-2.4l9.3,25.3L523.8,464.3z"/>
	<path id="Mz-10_Lt-16" class="st2" d="M523,493.4l-9.3-25.3l9.4-2.9l9.7,24.9L523,493.4z"/>
	<path id="Mz-10_Lt-37" class="st2" d="M513.7,468.4l-8.1-25.4l9.4-2.9l8.1,25L513.7,468.4z"/>
	<path id="Mz-10_Lt-17" class="st2" d="M513.2,496.7l-9.3-24.9l9.4-3.3l8.9,25.4L513.2,496.7z"/>
	<path id="Mz-10_Lt-38" class="st2" d="M504.3,471.3l-9.3-24.9l10.2-3.3l8.1,25.4L504.3,471.3z"/>
	<path id="Mz-10_Lt-18" class="st2" d="M503.8,500l-9.3-25.3l9-2.9l8.9,25L503.8,500z"/>
	<path id="Mz-10_Lt-39" class="st2" d="M494.6,474.6l-8.5-25.4l9-2.9l8.1,25L494.6,474.6z"/>
	<path id="Mz-10_Lt-19" sodipodi:nodetypes="ccccc" class="st2" d="M494.1,503.3l-9.3-24.9l9.8-3.3l8.9,25L494.1,503.3z"/>
	<path id="Mz-10_Lt-40" class="st2" d="M484.4,477.5l-9.3-24.9l10.9-3.4l8.5,25L484.4,477.5z"/>
	<path id="Mz-10_Lt-20" sodipodi:nodetypes="ccccc" class="st2" d="M483.9,507l-9.3-25.7l10.2-2.9l8.5,25L483.9,507z"/>
	<path id="Mz-10_Lt-41" class="st2" d="M475,481.2l-9.3-25.3l9-2.9l9.2,24.5L475,481.2z"/>
	<path id="Mz-10_Lt-21" class="st2" d="M473.4,509.9l-9.3-25.7l9.8-2.5l9.3,24.9L473.4,509.9z"/>
	<path id="Mz-10_Lt-42" class="st2" d="M463.7,483.8l-8.8-24.2l10.9-3.8l8.5,25L463.7,483.8z"/>
	<path id="Mz-9_Lt-7" sodipodi:nodetypes="ccccc" class="st2" d="M426.7,380.6l-13.5-35.8l11.4-4.3l13,36.2L426.7,380.6z"/>
	<path id="Mz-9_Lt-21" sodipodi:nodetypes="ccccc" class="st2" d="M413.2,345.2l-13.1-35l10.9-4.3l13,35.1L413.2,345.2z"/>
	<path id="Mz-9_Lt-6" sodipodi:nodetypes="ccccc" class="st2" d="M437.5,376.6l-13-36.2l9.2-3.1l13.1,36.3L437.5,376.6z"/>
	<path id="Mz-9_Lt-20" sodipodi:nodetypes="ccccc" class="st2" d="M424.4,339.8l-13.8-34l10.3-4l12.6,34.6L424.4,339.8z"/>
	<path id="Mz-9_Lt-19" sodipodi:nodetypes="ccccc" class="st2" d="M434.1,336.6L421,302.2l9.3-3.8l13.5,34.8L434.1,336.6z"/>
	<path id="Mz-9_Lt-18" sodipodi:nodetypes="ccccc" class="st2" d="M444.7,333.1L431,298.2l8.5-3.6l13.7,34.9L444.7,333.1z"/>
	<path id="Mz-9_Lt-17" sodipodi:nodetypes="ccccc" class="st2" d="M454.4,329.4l-14.1-35l9-3.3l14.1,34.6L454.4,329.4z"/>
	<path id="Mz-9_Lt-16" sodipodi:nodetypes="ccccc" class="st2" d="M462.8,325.7l-13.4-34.9l10-3.5l13.4,34.4L462.8,325.7z"/>
	<path id="Mz-9_Lt-15" sodipodi:nodetypes="ccccc" class="st2" d="M473.4,320.9l-14.5-33.5l10.3-4l13.9,33.8L473.4,320.9z"/>
	<path id="Mz-9_Lt-14" sodipodi:nodetypes="ccccc" class="st2" d="M484,317.1l-14.4-33.8l9.5-3.5l13.5,33.7L484,317.1z"/>
	<path id="Mz-9_Lt-13" sodipodi:nodetypes="ccccc" class="st2" d="M492.9,313.9l-13.7-34.7l10-3.7l13.1,35.1L492.9,313.9z"/>
	<path id="Mz-9_Lt-12" class="st2" d="M502.9,309.5l-13.3-34.1l9.7-3.3l12.5,33.9L502.9,309.5z"/>
	<path id="Mz-9_Lt-11" sodipodi:nodetypes="ccccc" class="st2" d="M512.3,305.9l-12.8-34.4l8.8-3.3l13.1,34.1L512.3,305.9z"/>
	<path id="Mz-9_Lt-10" sodipodi:nodetypes="ccccc" class="st2" d="M521.6,302.3l-13.1-34.4l9.9-3.6l11.7,34.5L521.6,302.3z"/>
	<path id="Mz-9_Lt-9" sodipodi:nodetypes="ccccc" class="st2" d="M530.7,298.4l-12.8-34.2l9.6-3.9l12.8,34.7L530.7,298.4z"/>
	<path id="Mz-9_Lt-8" sodipodi:nodetypes="cccc" class="st2" d="M541.5,295.6l-13.1-35.3l64.2-24.8L541.5,295.6z"/>
	<path id="Mz-9_Lt-1" sodipodi:nodetypes="cccccc" class="st2" d="M487.9,359.4l-14.7-37.7l69.1-26.7l-40.1,47.9l24.3,3.2
		L487.9,359.4z"/>
	<path id="Mz-9_Lt-2" sodipodi:nodetypes="ccccc" class="st2" d="M477.4,363.4l-14.1-37.5l9.6-3.9l14.4,37.7L477.4,363.4z"/>
	<path id="Mz-9_Lt-3" sodipodi:nodetypes="ccccc" class="st2" d="M467.7,366.4l-14-36.6l9.4-3.3l13.8,36.9L467.7,366.4z"/>
	<path id="Mz-9_Lt-4" sodipodi:nodetypes="ccccc" class="st2" d="M466.9,366.5l-13.7-36.4l-9.1,3.6l13.2,36.1L466.9,366.5z"/>
	<path id="Mz-9_Lt-5" class="st2" d="M456.4,369.8l-12.9-36.4l-8.8,3.6l12.3,36.2L456.4,369.8z"/>
	<path id="Mz-8_Lt-25" class="st2" d="M380.4,253.3l-4.3-12.4l26.4-10.1l4.6,12.7L380.4,253.3z"/>
	<path id="Mz-8_Lt-24" class="st2" d="M383.7,263l-3-9.7l26.7-10.1l3,9.7L383.7,263z"/>
	<path id="Mz-8_Lt-23" sodipodi:nodetypes="ccccc" class="st2" d="M386.7,272.1l-3-10l26.5-9.2l3.3,9.7L386.7,272.1z"/>
	<path id="Mz-8_Lt-22" class="st2" d="M390.6,281.7l-3.6-9.6l26.5-9.5l3.3,9.7L390.6,281.7z"/>
	<path id="Mz-8_Lt-21" class="st2" d="M394.2,291.4l-3.6-9.9l26.2-9.2l3.6,9.4L394.2,291.4z"/>
	<path id="Mz-8_Lt-20" sodipodi:nodetypes="ccccc" class="st2" d="M420.4,281.6l-9.5-25.9l9.7-3.3l9.7,25.3L420.4,281.6z"/>
	<path id="Mz-8_Lt-50" class="st2" d="M411.4,255.6l-8.9-24.8l9.6-3.6l8.6,24.8L411.4,255.6z"/>
	<path id="Mz-8_Lt-19" class="st2" d="M430.3,277.4l9.4-3.3l-9.2-25.4l-9.6,3.9L430.3,277.4z"/>
	<path id="Mz-8_Lt-49" class="st2" d="M421.4,252l-9.2-24.8l9.6-3.9l8.9,25.1L421.4,252z"/>
	<path id="Mz-8_Lt-18" class="st2" d="M439.6,273.8l-9.2-25.7l9.9-3.9l9.2,25.9L439.6,273.8z"/>
	<path id="Mz-8_Lt-48" class="st2" d="M431,247.9l-8.9-24.3l9.6-3.9l8.9,24.5L431,247.9z"/>
	<path id="Mz-8_Lt-47" class="st2" d="M440.7,244.8l-8.9-25.1l9.6-3.6l8.3,24.3L440.7,244.8z"/>
	<path id="Mz-8_Lt-17" class="st2" d="M449.6,270.2l-9.2-25.7l9.6-4.2l9.2,25.9L449.6,270.2z"/>
	<path id="Mz-8_Lt-16" class="st2" d="M459.5,266.6l-9.8-25.9l9.9-3.9l9.2,26.2L459.5,266.6z"/>
	<path id="Mz-8_Lt-46" class="st2" d="M450,241l-8.9-24.8l10.2-3.9l8.6,24.6L450,241z"/>
	<path id="Mz-8_Lt-45" class="st2" d="M459.6,237.1l-8.6-24.8l9.9-3.6l8.3,24.6L459.6,237.1z"/>
	<path id="Mz-8_Lt-15" sodipodi:nodetypes="ccccc" class="st2" d="M469.1,263l-9.2-26.2l9.6-3.6l9.2,26.2L469.1,263z"/>
	<path id="Mz-8_Lt-44" class="st2" d="M469.8,233.2l-8.9-24.8l9.6-3.6l9.1,24.5L469.8,233.2z"/>
	<path id="Mz-8_Lt-14" class="st2" d="M479,258.8l-9.5-25.9l10.5-3.6l8.6,25.7L479,258.8z"/>
	<path id="Mz-8_Lt-13" class="st2" d="M489.2,254.7l-9.2-25.4l9.4-3.3l9.2,25.1L489.2,254.7z"/>
	<path id="Mz-8_Lt-43" class="st2" d="M480.3,229.3l-9.4-24.5l9.9-3.9l8.9,25.1L480.3,229.3z"/>
	<path id="Mz-8_Lt-12" class="st2" d="M499.2,251.3l-9.5-25.6l9.6-3.6l9.2,25.1L499.2,251.3z"/>
	<path id="Mz-8_Lt-42" class="st2" d="M489.7,225.7l-8.6-25.1l9.6-3.6l8.9,25.4L489.7,225.7z"/>
	<path id="Mz-8_Lt-11" class="st2" d="M509.3,247.4l-9.7-25.3l9.1-3.6l9.2,25.4L509.3,247.4z"/>
	<path id="Mz-8_Lt-41" class="st2" d="M499.9,222.4L491,197l8.8-3.3l9.5,25.1L499.9,222.4z"/>
	<path id="Mz-8_Lt-40" class="st2" d="M508.9,218.2l-9.2-24.8l9.4-3.6l8.9,24.5L508.9,218.2z"/>
	<path id="Mz-8_Lt-10" class="st2" d="M518.2,243.9l-9.2-25.4l9.1-3.3l8.6,25.1L518.2,243.9z"/>
	<path id="Mz-8_Lt-9" class="st2" d="M526.7,240.3l-8.6-25.7l9.6-3.6l9.2,25.4L526.7,240.3z"/>
	<path id="Mz-8_Lt-39" class="st2" d="M518.3,214.1l-8.6-24.3l8.8-3.5l8.9,24.8L518.3,214.1z"/>
	<path id="Mz-8_Lt-38" sodipodi:nodetypes="ccccc" class="st2" d="M527.4,210.8l-8.9-24.5l9.9-3.6l8.3,24L527.4,210.8z"/>
	<path id="Mz-8_Lt-8" sodipodi:nodetypes="ccccc" class="st2" d="M537.1,236.2l-9.5-25.9l9.4-3.3l9.2,26.5L537.1,236.2z"/>
	<path id="Mz-8_Lt-7" sodipodi:nodetypes="ccccc" class="st2" d="M546.8,233.1l-9.8-26.2l9.7-3.3l8.9,25.9L546.8,233.1z"/>
	<path id="Mz-8_Lt-37" sodipodi:nodetypes="ccccc" class="st2" d="M537,206.7l-8.9-24.3l9.4-3.3l9.1,24.3L537,206.7z"/>
	<path id="Mz-8_Lt-36" class="st2" d="M546.7,203.1l-8.6-24l9.1-3.6l8.6,24L546.7,203.1z"/>
	<path id="Mz-8_Lt-6" class="st2" d="M556.4,229l-9.2-26l9.4-3l8.9,25.4L556.4,229z"/>
	<path id="Mz-8_Lt-5" class="st2" d="M566.1,225.1l-9.8-25.9l9.4-3.3l9.2,25.9L566.1,225.1z"/>
	<path id="Mz-8_Lt-35" class="st2" d="M556.6,199.7l-8.9-24.5l9.9-3.3l8.3,23.7L556.6,199.7z"/>
	<path id="Mz-8_Lt-34" class="st2" d="M566.5,195.8l-8.9-24.5l9.4-3.3l8.3,24L566.5,195.8z"/>
	<path id="Mz-8_Lt-33" sodipodi:nodetypes="ccccc" class="st2" d="M575.6,192l-8.6-24l9.4-3.6l8.6,24L575.6,192z"/>
	<path id="Mz-8_Lt-32" sodipodi:nodetypes="ccccc" class="st2" d="M584.9,188.1l-8.6-24l9.6-3.6l8.6,24L584.9,188.1z"/>
	<path id="Mz-8_Lt-31" class="st2" d="M594.9,184.5l-8.6-24.3l9.6-3.6l8.3,24.4L594.9,184.5z"/>
	<path id="Mz-8_Lt-30" class="st2" d="M604.8,180.6l-8.8-24l10.2-3.9l8.6,24.3L604.8,180.6z"/>
	<path id="Mz-8_Lt29" class="st2" d="M615.3,177l-9.1-24.3l9.1-3.6l9.4,23.7L615.3,177z"/>
	<path id="Mz-8_Lt-28" sodipodi:nodetypes="ccccc" class="st2" d="M624.9,173.1l-9.4-24l9.1-3.3l9.7,23.9L624.9,173.1z"/>
	<path id="Mz-8_Lt-27" sodipodi:nodetypes="ccccc" class="st2" d="M634.3,170.4l-9.4-24.8l9.9-3.6l8.9,24.3L634.3,170.4z"/>
	<path id="Mz-8_Lt-26" class="st2" d="M647.4,173.4l-12.6-31.9l25.9-9.8l3.5,23.4L647.4,173.4z"/>
	<path id="Mz-8_Lt-1" sodipodi:nodetypes="cccccc" class="st2" d="M604.7,210.7l-9.5-25.9l48.8-18.3l3.2,7.1l-28.4,31.3L604.7,210.7
		z"/>
	<path id="Mz-8_Lt-2" sodipodi:nodetypes="ccccc" class="st2" d="M594.7,214l-9.8-25.6l9.9-3.3l9.5,25.9L594.7,214z"/>
	<path id="Mz-8_Lt-3" class="st2" d="M585.1,218.2l-9.5-25.9l9.1-3l9.8,25.6L585.1,218.2z"/>
	<path id="Mz-8_Lt-4" class="st2" d="M575.2,221.8l-8.9-25.7l9.1-3.6l9.5,25.9L575.2,221.8z"/>
	<path id="Mz-7_Lt-29" class="st2" d="M369.7,223.2l-9.3-26.5l10.2-3.4l9.3,25.9L369.7,223.2z"/>
	<path id="Mz-7_Lt-58" class="st2" d="M360.7,197.2l-9.2-25.6l10.5-3.9l8.9,25.4L360.7,197.2z"/>
	<path id="Mz-7_Lt-57" class="st2" d="M370.9,193l-9-25.7l9.4-3.3l9.2,25.4L370.9,193z"/>
	<path id="Mz-7_Lt-28" class="st2" d="M380.1,219.2l-9.3-26.2l9.6-3.6l9.3,26.5L380.1,219.2z"/>
	<path id="Mz-7_Lt-27" class="st2" d="M390.1,215.9l-9.3-26.8l9.1-3.6l9.3,26.8L390.1,215.9z"/>
	<path id="Mz-7_Lt-56" class="st2" d="M381.1,189.1l-9.5-25.3l8.8-3.6l9.5,25.3L381.1,189.1z"/>
	<path id="Mz-7_Lt-55" class="st2" d="M389.8,185.3l-9.5-25.1l9.9-3.3l9.5,25.3L389.8,185.3z"/>
	<path id="Mz-7_Lt-26" class="st2" d="M399.1,212l-9-26.5l9.9-3.3l9,25.9L399.1,212z"/>
	<path id="Mz-7_Lt-25" class="st2" d="M409.3,207.8l-9.3-25.9l9.4-3.3l9.2,25.6L409.3,207.8z"/>
	<path id="Mz-7_Lt-54" class="st2" d="M400.3,181.6l-9.5-25.3l9.4-3.6l9.5,25.6L400.3,181.6z"/>
	<path id="Mz-7_Lt-53" class="st2" d="M409.4,177.8l-9.2-24.8l9.9-3.9l9.2,25.6L409.4,177.8z"/>
	<path id="Mz-7_Lt-24" class="st2" d="M419.5,204.8l-10.1-26.4l10.2-3.9l9.5,25.9L419.5,204.8z"/>
	<path id="Mz-7_Lt-23" class="st2" d="M429.1,200.3l-9.6-26.2l8.8-3.3l9.3,26.2L429.1,200.3z"/>
	<path id="Mz-7_L52" class="st2" d="M419.9,174.4l-9.8-25.3l9.4-3.6l9.5,25.6L419.9,174.4z"/>
	<path id="Mz-7_Lt-22" class="st2" d="M437.9,196.7l-9.8-25.9l10.2-3.9l9.8,26.2L437.9,196.7z"/>
	<path id="Mz-7_Lt-51" class="st2" d="M428.9,170l-9.2-24.5l9.6-3.6l8.9,25.1L428.9,170z"/>
	<path id="Mz-7_Lt-50" class="st2" d="M438.3,166.7l-9.2-24.8l9.9-3.6l9.5,25.1L438.3,166.7z"/>
	<path id="Mz-7_Lt-21" class="st2" d="M448.1,192.8l-9.8-25.9l9.9-3.6l9.3,25.9L448.1,192.8z"/>
	<path id="Mz-7_Lt-20" class="st2" d="M457.8,189.2l-9.3-26.2l9.4-3.3l9.8,25.6L457.8,189.2z"/>
	<path id="Mz-7_Lt-49" class="st2" d="M448.8,163.3l-9.5-25.6l9.7-3.3l9,25.7L448.8,163.3z"/>
	<path id="Mz-7_Lt-48" class="st2" d="M457.9,159.4l-8.7-25.1l9.1-3.6l8.9,25.4L457.9,159.4z"/>
	<path id="Mz-7_Lt-47" class="st2" d="M467.5,155.5l-8.7-25.1l9.6-3.6l8.7,25.4L467.5,155.5z"/>
	<path id="Mz-7_Lt-46" class="st2" d="M477.1,151.9l-8.7-25.1l9.4-3.3l8.9,24.8L477.1,151.9z"/>
	<path id="Mz-7_Lt-45" sodipodi:nodetypes="ccccc" class="st2" d="M487.4,148.9l-9.2-25.6l9.1-3.3l9.2,24.8L487.4,148.9z"/>
	<path id="Mz-7_Lt-44" sodipodi:nodetypes="ccccc" class="st2" d="M496.9,144.1l-9.2-24.8l9.7-3.3l8.7,25.1L496.9,144.1z"/>
	<path id="Mz-7_Lt-43" class="st2" d="M506.3,141.1l-8.7-25.4l9.4-3.6l8.7,25.4L506.3,141.1z"/>
	<path id="Mz-7_Lt-42" class="st2" d="M516,137.2l-9.2-25.1l9.9-3.6l9,25.7L516,137.2z"/>
	<path id="Mz-7_Lt-41" class="st2" d="M526.5,133.8l-9-25.7l9.1-3.3l8.9,25.1L526.5,133.8z"/>
	<path id="Mz-7_Lt-40" class="st2" d="M535.8,130.2l-8.7-25.7l8.8-3.3l8.9,25.1L535.8,130.2z"/>
	<path id="Mz-7_Lt-39" sodipodi:nodetypes="ccccc" class="st2" d="M544.6,126.4l-8.7-25.4l9.4-3.3l8.4,25.1L544.6,126.4z"/>
	<path id="Mz-7_Lt-38" class="st2" d="M554,122.8l-8.7-25.1l10.2-3.4l8.1,24.9L554,122.8z"/>
	<path id="Mz-7_Lt-37" class="st2" d="M564.2,119.2l-8.7-25.1l9.1-3.6l8.7,25.1L564.2,119.2z"/>
	<path id="Mz-7_Lt-36" class="st2" d="M573.8,115.6l-8.9-25.4l9.4-3l8.4,24.8L573.8,115.6z"/>
	<path id="Mz-7_Lt-35" class="st2" d="M583.1,111.4l-8.9-24.5l9.6-3.9l8.4,24.8L583.1,111.4z"/>
	<path id="Mz-7_Lt-34" class="st2" d="M593.1,108.1L583.9,83l9.9-3.6l8.4,24.8L593.1,108.1z"/>
	<path id="Mz7_Lt-33" class="st2" d="M602.4,103.6l-8.6-24.3l9.6-3.6l8.9,24.5L602.4,103.6z"/>
	<path id="Mz-7_Lt-32" class="st2" d="M612.9,100.3l-9.2-24.5l9.6-3.9l8.9,25.1L612.9,100.3z"/>
	<path id="Mz-7_Lt-31" class="st2" d="M622.5,96.6l-8.9-24.8l9.9-3.6l8.4,25.1L622.5,96.6z"/>
	<path id="Mz-7_Lt-30" sodipodi:nodetypes="ccccc" class="st2" d="M632.2,93.6l-8.7-25.7l18.2-6.9l9,25.9L632.2,93.6z"/>
	<path id="Mz-7_Lt-1" sodipodi:nodetypes="ccccc" class="st2" d="M641.4,118.1l-8.9-24l18.4-7.2l8.1,24.6L641.4,118.1z"/>
	<path id="Mz-7_Lt-2" class="st2" d="M631.8,122l-9.5-24.5l9.3-3.9l9.7,24.5L631.8,122z"/>
	<path id="Mz-7_Lt-3" sodipodi:nodetypes="ccccc" class="st2" d="M621.9,125.9l-9.8-25l9.7-3.3l10.3,24.7L621.9,125.9z"/>
	<path id="Mz-7_Lt-4" class="st2" d="M611.7,130.1l-9.3-26.2l9.7-3L621,126L611.7,130.1z"/>
	<path id="Mz-7_Lt-5" class="st2" d="M602,133.4l-9.5-25.1l9.3-3.9l10.1,25.6L602,133.4z"/>
	<path id="Mz-7_Lt-6" sodipodi:nodetypes="ccccc" class="st2" d="M592.2,137.9l-9-26.2l8.8-3.3l10.1,25.3L592.2,137.9z"/>
	<path id="Mz-7_Lt-7" class="st2" d="M582.5,140.9l-8.9-24.8l9.4-3.6l9.2,24.8L582.5,140.9z"/>
	<path id="Mz-7_Lt-8" class="st2" d="M573.1,144.5l-9.2-24.5l9.3-3.9l9.5,24.8L573.1,144.5z"/>
	<path id="Mz-7_Lt-9" class="st2" d="M563.5,148.1l-9.2-25.1l9.4-3.6l9.5,25.3L563.5,148.1z"/>
	<path id="Mz-7_Lt-10" class="st2" d="M554.1,152.3l-9.2-25.6l9.7-3.3l9.5,25.1L554.1,152.3z"/>
	<path id="Mz-7_Lt-11" class="st2" d="M544.5,155.9l-9.2-25.6l9.9-3.3l8.9,25.4L544.5,155.9z"/>
	<path id="Mz-7_Lt-12" sodipodi:nodetypes="ccccc" class="st2" d="M534.9,159.8l-9.3-25.9l9.1-3.3l9.2,25.6L534.9,159.8z"/>
	<path id="Mz-7_Lt-13" class="st2" d="M525.2,163.1l-9.2-25.4l9.4-3l9.8,24.8L525.2,163.1z"/>
	<path id="Mz-7_Lt-14" class="st2" d="M515.6,167l-9.3-25.9l9.1-2.7l9.8,24.8L515.6,167z"/>
	<path id="Mz-7_Lt-15" class="st2" d="M506.2,170.3l-9.8-25.6l9.7-3.3l9.8,25.6L506.2,170.3z"/>
	<path id="Mz-7_Lt-16" sodipodi:nodetypes="ccccc" class="st2" d="M496.3,174.8l-9.6-26.2l9.9-3.6l9.2,25.6L496.3,174.8z"/>
	<path id="Mz-7_Lt-17" class="st2" d="M486.9,177.8l-9.5-25.6l9.1-3.6l9.8,25.9L486.9,177.8z"/>
	<path id="Mz-7_Lt-18" class="st2" d="M477.3,181.7l-9.8-25.9l10.2-3.9l9.5,25.9L477.3,181.7z"/>
	<path id="Mz-7_Lt-19" class="st2" d="M467.4,185.6l-9.6-26.2l9.9-3.3l9.5,25.6L467.4,185.6z"/>
</g>
</svg>
